Graphik-Super.ufo
<glyph name="exclam" format="2">
  <advance width="358"/>
  <unicode hex="0021"/>
  <outline>
    <contour>
      <point x="179" y="-14" type="curve" smooth="yes"/>
      <point x="108" y="-14"/>
      <point x="51" y="38"/>
      <point x="51" y="103" type="curve" smooth="yes"/>
      <point x="51" y="168"/>
      <point x="108" y="221"/>
      <point x="179" y="221" type="curve" smooth="yes"/>
      <point x="250" y="221"/>
      <point x="308" y="168"/>
      <point x="308" y="103" type="curve" smooth="yes"/>
      <point x="308" y="38"/>
      <point x="250" y="-14"/>
    </contour>
    <contour>
      <point x="83" y="252" type="line"/>
      <point x="50" y="715" type="line"/>
      <point x="308" y="715" type="line"/>
      <point x="275" y="252" type="line"/>
    </contour>
  </outline>
</glyph>
<glyph name="quotedbl" format="2">
  <advance width="507"/>
  <unicode hex="0022"/>
  <outline>
    <contour>
      <point x="54" y="424" type="line"/>
      <point x="30" y="715" type="line"/>
      <point x="239" y="715" type="line"/>
      <point x="215" y="424" type="line"/>
    </contour>
    <contour>
      <point x="292" y="424" type="line"/>
      <point x="268" y="715" type="line"/>
      <point x="477" y="715" type="line"/>
      <point x="453" y="424" type="line"/>
    </contour>
  </outline>
</glyph>
<glyph name="numbersign" format="2">
  <advance width="613"/>
  <unicode hex="0023"/>
  <outline>
    <contour>
      <point x="280" y="99" type="line"/>
      <point x="298" y="220" type="line"/>
      <point x="253" y="220" type="line"/>
      <point x="235" y="99" type="line"/>
      <point x="87" y="99" type="line"/>
      <point x="105" y="220" type="line"/>
      <point x="44" y="220" type="line"/>
      <point x="44" y="398" type="line"/>
      <point x="131" y="398" type="line"/>
      <point x="138" y="444" type="line"/>
      <point x="66" y="444" type="line"/>
      <point x="66" y="612" type="line"/>
      <point x="163" y="612" type="line"/>
      <point x="179" y="715" type="line"/>
      <point x="327" y="715" type="line"/>
      <point x="311" y="612" type="line"/>
      <point x="356" y="612" type="line"/>
      <point x="372" y="715" type="line"/>
      <point x="520" y="715" type="line"/>
      <point x="504" y="612" type="line"/>
      <point x="569" y="612" type="line"/>
      <point x="569" y="444" type="line"/>
      <point x="479" y="444" type="line"/>
      <point x="472" y="398" type="line"/>
      <point x="547" y="398" type="line"/>
      <point x="547" y="220" type="line"/>
      <point x="446" y="220" type="line"/>
      <point x="428" y="99" type="line"/>
    </contour>
    <contour>
      <point x="286" y="444" type="line"/>
      <point x="279" y="398" type="line"/>
      <point x="324" y="398" type="line"/>
      <point x="331" y="444" type="line"/>
    </contour>
  </outline>
</glyph>
<glyph name="dollar" format="2">
  <advance width="657"/>
  <unicode hex="0024"/>
  <outline>
    <contour>
      <point x="290" y="-135" type="line"/>
      <point x="290" y="-11" type="line"/>
      <point x="115" y="1"/>
      <point x="18" y="90"/>
      <point x="13" y="230" type="curve"/>
      <point x="238" y="230" type="line"/>
      <point x="240" y="195"/>
      <point x="256" y="170"/>
      <point x="290" y="159" type="curve"/>
      <point x="290" y="259" type="line"/>
      <point x="92" y="284"/>
      <point x="22" y="349"/>
      <point x="22" y="491" type="curve" smooth="yes"/>
      <point x="22" y="621"/>
      <point x="121" y="714"/>
      <point x="290" y="725" type="curve"/>
      <point x="290" y="813" type="line"/>
      <point x="378" y="813" type="line"/>
      <point x="378" y="724" type="line"/>
      <point x="533" y="712"/>
      <point x="627" y="645"/>
      <point x="638" y="497" type="curve"/>
      <point x="417" y="497" type="line"/>
      <point x="415" y="522"/>
      <point x="407" y="542"/>
      <point x="378" y="552" type="curve"/>
      <point x="378" y="455" type="line"/>
      <point x="534" y="435"/>
      <point x="646" y="386"/>
      <point x="646" y="238" type="curve" smooth="yes"/>
      <point x="646" y="111"/>
      <point x="572" y="2"/>
      <point x="378" y="-11" type="curve"/>
      <point x="378" y="-135" type="line"/>
    </contour>
    <contour>
      <point x="241" y="511" type="curve" smooth="yes"/>
      <point x="241" y="486"/>
      <point x="258" y="473"/>
      <point x="290" y="466" type="curve"/>
      <point x="290" y="556" type="line"/>
      <point x="257" y="549"/>
      <point x="241" y="534"/>
    </contour>
    <contour>
      <point x="424" y="203" type="curve" smooth="yes"/>
      <point x="424" y="224"/>
      <point x="410" y="236"/>
      <point x="378" y="245" type="curve"/>
      <point x="378" y="156" type="line"/>
      <point x="411" y="163"/>
      <point x="424" y="180"/>
    </contour>
  </outline>
</glyph>
<glyph name="percent" format="2">
  <advance width="849"/>
  <unicode hex="0025"/>
  <outline>
    <contour>
      <point x="223" y="479" type="curve" smooth="yes"/>
      <point x="252" y="479"/>
      <point x="265" y="504"/>
      <point x="265" y="542" type="curve" smooth="yes"/>
      <point x="265" y="580"/>
      <point x="252" y="603"/>
      <point x="223" y="603" type="curve" smooth="yes"/>
      <point x="195" y="603"/>
      <point x="180" y="579"/>
      <point x="180" y="543" type="curve" smooth="yes"/>
      <point x="180" y="503"/>
      <point x="195" y="479"/>
    </contour>
    <contour>
      <point x="222" y="354" type="curve" smooth="yes"/>
      <point x="87" y="354"/>
      <point x="20" y="436"/>
      <point x="20" y="542" type="curve" smooth="yes"/>
      <point x="20" y="645"/>
      <point x="104" y="724"/>
      <point x="223" y="724" type="curve" smooth="yes"/>
      <point x="340" y="724"/>
      <point x="425" y="651"/>
      <point x="425" y="546" type="curve" smooth="yes"/>
      <point x="425" y="439"/>
      <point x="353" y="354"/>
    </contour>
    <contour>
      <point x="109" y="0" type="line"/>
      <point x="636" y="715" type="line"/>
      <point x="745" y="715" type="line"/>
      <point x="218" y="0" type="line"/>
    </contour>
    <contour>
      <point x="627" y="111" type="curve" smooth="yes"/>
      <point x="656" y="111"/>
      <point x="669" y="136"/>
      <point x="669" y="174" type="curve" smooth="yes"/>
      <point x="669" y="212"/>
      <point x="656" y="235"/>
      <point x="627" y="235" type="curve" smooth="yes"/>
      <point x="599" y="235"/>
      <point x="584" y="211"/>
      <point x="584" y="175" type="curve" smooth="yes"/>
      <point x="584" y="135"/>
      <point x="599" y="111"/>
    </contour>
    <contour>
      <point x="626" y="-14" type="curve" smooth="yes"/>
      <point x="491" y="-14"/>
      <point x="424" y="68"/>
      <point x="424" y="174" type="curve" smooth="yes"/>
      <point x="424" y="277"/>
      <point x="508" y="356"/>
      <point x="627" y="356" type="curve" smooth="yes"/>
      <point x="744" y="356"/>
      <point x="829" y="283"/>
      <point x="829" y="178" type="curve" smooth="yes"/>
      <point x="829" y="71"/>
      <point x="757" y="-14"/>
    </contour>
  </outline>
</glyph>
<glyph name="ampersand" format="2">
  <advance width="804"/>
  <unicode hex="0026"/>
  <outline>
    <contour>
      <point x="794" y="374" type="line"/>
      <point x="680" y="146" type="line"/>
      <point x="798" y="0" type="line"/>
      <point x="504" y="0" type="line"/>
      <point x="476" y="35" type="line"/>
      <point x="431" y="7"/>
      <point x="381" y="-14"/>
      <point x="286" y="-14" type="curve" smooth="yes"/>
      <point x="123" y="-14"/>
      <point x="22" y="66"/>
      <point x="22" y="212" type="curve" smooth="yes"/>
      <point x="22" y="293"/>
      <point x="70" y="367"/>
      <point x="176" y="416" type="curve"/>
      <point x="150" y="455"/>
      <point x="142" y="501"/>
      <point x="142" y="528" type="curve" smooth="yes"/>
      <point x="142" y="657"/>
      <point x="257" y="727"/>
      <point x="402" y="727" type="curve" smooth="yes"/>
      <point x="531" y="727"/>
      <point x="643" y="671"/>
      <point x="643" y="550" type="curve" smooth="yes"/>
      <point x="643" y="476"/>
      <point x="604" y="420"/>
      <point x="504" y="377" type="curve"/>
      <point x="563" y="304" type="line"/>
      <point x="597" y="374" type="line"/>
    </contour>
    <contour>
      <point x="333" y="159" type="curve" smooth="yes"/>
      <point x="349" y="159"/>
      <point x="360" y="163"/>
      <point x="368" y="166" type="curve"/>
      <point x="278" y="277" type="line"/>
      <point x="271" y="268"/>
      <point x="262" y="254"/>
      <point x="262" y="233" type="curve" smooth="yes"/>
      <point x="262" y="194"/>
      <point x="283" y="159"/>
    </contour>
    <contour>
      <point x="361" y="525" type="curve" smooth="yes"/>
      <point x="361" y="503"/>
      <point x="375" y="484"/>
      <point x="395" y="463" type="curve"/>
      <point x="428" y="481"/>
      <point x="447" y="503"/>
      <point x="447" y="526" type="curve" smooth="yes"/>
      <point x="447" y="553"/>
      <point x="432" y="571"/>
      <point x="406" y="571" type="curve" smooth="yes"/>
      <point x="379" y="571"/>
      <point x="361" y="551"/>
    </contour>
  </outline>
</glyph>
<glyph name="quotesingle" format="2">
  <advance width="279"/>
  <unicode hex="0027"/>
  <outline>
    <contour>
      <point x="54" y="424" type="line"/>
      <point x="30" y="715" type="line"/>
      <point x="249" y="715" type="line"/>
      <point x="225" y="424" type="line"/>
    </contour>
  </outline>
</glyph>
<glyph name="parenleft" format="2">
  <advance width="373"/>
  <unicode hex="0028"/>
  <outline>
    <contour>
      <point x="197" y="-148" type="line"/>
      <point x="127" y="-63"/>
      <point x="30" y="79"/>
      <point x="30" y="314" type="curve" smooth="yes"/>
      <point x="30" y="550"/>
      <point x="127" y="691"/>
      <point x="197" y="776" type="curve"/>
      <point x="366" y="776" type="line"/>
      <point x="312" y="679"/>
      <point x="245" y="525"/>
      <point x="245" y="314" type="curve" smooth="yes"/>
      <point x="245" y="103"/>
      <point x="312" y="-51"/>
      <point x="366" y="-148" type="curve"/>
    </contour>
  </outline>
</glyph>
<glyph name="parenright" format="2">
  <advance width="373"/>
  <unicode hex="0029"/>
  <outline>
    <contour>
      <point x="7" y="-148" type="line"/>
      <point x="61" y="-51"/>
      <point x="128" y="103"/>
      <point x="128" y="314" type="curve" smooth="yes"/>
      <point x="128" y="525"/>
      <point x="61" y="679"/>
      <point x="7" y="776" type="curve"/>
      <point x="176" y="776" type="line"/>
      <point x="246" y="691"/>
      <point x="343" y="550"/>
      <point x="343" y="314" type="curve" smooth="yes"/>
      <point x="343" y="79"/>
      <point x="246" y="-63"/>
      <point x="176" y="-148" type="curve"/>
    </contour>
  </outline>
</glyph>
<glyph name="asterisk" format="2">
  <advance width="450"/>
  <unicode hex="002A"/>
  <outline>
    <contour>
      <point x="178" y="350" type="line"/>
      <point x="44" y="445" type="line"/>
      <point x="136" y="524" type="line"/>
      <point x="22" y="529" type="line"/>
      <point x="63" y="681" type="line"/>
      <point x="168" y="626" type="line"/>
      <point x="136" y="743" type="line"/>
      <point x="314" y="743" type="line"/>
      <point x="282" y="626" type="line"/>
      <point x="387" y="681" type="line"/>
      <point x="428" y="529" type="line"/>
      <point x="314" y="524" type="line"/>
      <point x="406" y="445" type="line"/>
      <point x="272" y="350" type="line"/>
      <point x="225" y="462" type="line"/>
    </contour>
  </outline>
</glyph>
<glyph name="plus" format="2">
  <advance width="596"/>
  <unicode hex="002B"/>
  <outline>
    <contour>
      <point x="208" y="72" type="line"/>
      <point x="208" y="258" type="line"/>
      <point x="38" y="258" type="line"/>
      <point x="38" y="420" type="line"/>
      <point x="208" y="420" type="line"/>
      <point x="208" y="606" type="line"/>
      <point x="388" y="606" type="line"/>
      <point x="388" y="420" type="line"/>
      <point x="558" y="420" type="line"/>
      <point x="558" y="258" type="line"/>
      <point x="388" y="258" type="line"/>
      <point x="388" y="72" type="line"/>
    </contour>
  </outline>
</glyph>
<glyph name="comma" format="2">
  <advance width="319"/>
  <unicode hex="002C"/>
  <outline>
    <contour>
      <point x="139" y="-122" type="line"/>
      <point x="6" y="-74" type="line"/>
      <point x="83" y="212" type="line"/>
      <point x="294" y="142" type="line"/>
    </contour>
  </outline>
</glyph>
<glyph name="period" format="2">
  <advance width="308"/>
  <unicode hex="002E"/>
  <outline>
    <contour>
      <point x="152" y="-14" type="curve" smooth="yes"/>
      <point x="81" y="-14"/>
      <point x="30" y="39"/>
      <point x="30" y="106" type="curve" smooth="yes"/>
      <point x="30" y="172"/>
      <point x="81" y="226"/>
      <point x="152" y="226" type="curve" smooth="yes"/>
      <point x="225" y="226"/>
      <point x="278" y="172"/>
      <point x="278" y="106" type="curve" smooth="yes"/>
      <point x="278" y="39"/>
      <point x="225" y="-14"/>
    </contour>
  </outline>
</glyph>
<glyph name="zero" format="2">
  <advance width="758"/>
  <unicode hex="0030"/>
  <outline>
    <contour>
      <point x="381" y="190" type="curve" smooth="yes"/>
      <point x="449" y="190"/>
      <point x="470" y="239"/>
      <point x="470" y="346" type="curve" smooth="yes"/>
      <point x="470" y="369" type="line" smooth="yes"/>
      <point x="470" y="482"/>
      <point x="448" y="526"/>
      <point x="379" y="526" type="curve" smooth="yes"/>
      <point x="310" y="526"/>
      <point x="288" y="480"/>
      <point x="288" y="370" type="curve" smooth="yes"/>
      <point x="288" y="346" type="line" smooth="yes"/>
      <point x="288" y="237"/>
      <point x="308" y="190"/>
    </contour>
    <contour>
      <point x="372" y="-14" type="curve" smooth="yes"/>
      <point x="156" y="-14"/>
      <point x="24" y="111"/>
      <point x="24" y="345" type="curve" smooth="yes"/>
      <point x="24" y="369" type="line" smooth="yes"/>
      <point x="24" y="603"/>
      <point x="182" y="726"/>
      <point x="378" y="726" type="curve" smooth="yes"/>
      <point x="572" y="726"/>
      <point x="734" y="621"/>
      <point x="734" y="375" type="curve" smooth="yes"/>
      <point x="734" y="352" type="line" smooth="yes"/>
      <point x="734" y="116"/>
      <point x="590" y="-14"/>
    </contour>
  </outline>
</glyph>
<glyph name="two" format="2">
  <advance width="646"/>
  <unicode hex="0032"/>
  <outline>
    <contour>
      <point x="3" y="0" type="line"/>
      <point x="3" y="34" type="line"/>
      <point x="235" y="281" type="line" smooth="yes"/>
      <point x="309" y="360"/>
      <point x="360" y="419"/>
      <point x="360" y="473" type="curve" smooth="yes"/>
      <point x="360" y="504"/>
      <point x="347" y="528"/>
      <point x="312" y="528" type="curve" smooth="yes"/>
      <point x="277" y="528"/>
      <point x="256" y="505"/>
      <point x="249" y="435" type="curve"/>
      <point x="10" y="435" type="line"/>
      <point x="15" y="634"/>
      <point x="135" y="726"/>
      <point x="327" y="726" type="curve" smooth="yes"/>
      <point x="523" y="726"/>
      <point x="621" y="624"/>
      <point x="621" y="487" type="curve" smooth="yes"/>
      <point x="621" y="383"/>
      <point x="567" y="316"/>
      <point x="491" y="243" type="curve" smooth="yes"/>
      <point x="441" y="195" type="line"/>
      <point x="627" y="195" type="line"/>
      <point x="627" y="0" type="line"/>
    </contour>
  </outline>
</glyph>
<glyph name="three" format="2">
  <advance width="677"/>
  <unicode hex="0033"/>
  <outline>
    <contour>
      <point x="345" y="-14" type="curve" smooth="yes"/>
      <point x="122" y="-14"/>
      <point x="29" y="77"/>
      <point x="22" y="248" type="curve"/>
      <point x="257" y="248" type="line"/>
      <point x="261" y="202"/>
      <point x="278" y="174"/>
      <point x="327" y="174" type="curve" smooth="yes"/>
      <point x="365" y="174"/>
      <point x="385" y="192"/>
      <point x="385" y="227" type="curve" smooth="yes"/>
      <point x="385" y="263"/>
      <point x="365" y="282"/>
      <point x="320" y="282" type="curve" smooth="yes"/>
      <point x="262" y="282" type="line"/>
      <point x="262" y="437" type="line"/>
      <point x="317" y="437" type="line" smooth="yes"/>
      <point x="366" y="437"/>
      <point x="391" y="458"/>
      <point x="391" y="494" type="curve" smooth="yes"/>
      <point x="391" y="523"/>
      <point x="372" y="540"/>
      <point x="335" y="540" type="curve" smooth="yes"/>
      <point x="297" y="540"/>
      <point x="279" y="517"/>
      <point x="271" y="471" type="curve"/>
      <point x="37" y="471" type="line"/>
      <point x="48" y="627"/>
      <point x="142" y="726"/>
      <point x="342" y="726" type="curve" smooth="yes"/>
      <point x="527" y="726"/>
      <point x="638" y="655"/>
      <point x="638" y="526" type="curve" smooth="yes"/>
      <point x="638" y="446"/>
      <point x="593" y="393"/>
      <point x="513" y="373" type="curve"/>
      <point x="595" y="359"/>
      <point x="653" y="301"/>
      <point x="653" y="220" type="curve" smooth="yes"/>
      <point x="653" y="81"/>
      <point x="554" y="-14"/>
    </contour>
  </outline>
</glyph>
<glyph name="four" format="2">
  <advance width="709"/>
  <unicode hex="0034"/>
  <outline>
    <contour>
      <point x="350" y="0" type="line"/>
      <point x="350" y="130" type="line"/>
      <point x="7" y="130" type="line"/>
      <point x="7" y="232" type="line"/>
      <point x="291" y="715" type="line"/>
      <point x="605" y="715" type="line"/>
      <point x="605" y="308" type="line"/>
      <point x="693" y="308" type="line"/>
      <point x="693" y="130" type="line"/>
      <point x="605" y="130" type="line"/>
      <point x="605" y="0" type="line"/>
    </contour>
    <contour>
      <point x="243" y="308" type="line"/>
      <point x="357" y="308" type="line"/>
      <point x="357" y="515" type="line"/>
    </contour>
  </outline>
</glyph>
<glyph name="five" format="2">
  <advance width="654"/>
  <unicode hex="0035"/>
  <outline>
    <contour>
      <point x="320" y="-14" type="curve" smooth="yes"/>
      <point x="112" y="-14"/>
      <point x="19" y="98"/>
      <point x="17" y="241" type="curve"/>
      <point x="257" y="241" type="line"/>
      <point x="260" y="206"/>
      <point x="274" y="184"/>
      <point x="318" y="184" type="curve" smooth="yes"/>
      <point x="358" y="184"/>
      <point x="367" y="217"/>
      <point x="367" y="248" type="curve" smooth="yes"/>
      <point x="367" y="293"/>
      <point x="345" y="316"/>
      <point x="298" y="316" type="curve" smooth="yes"/>
      <point x="253" y="316"/>
      <point x="222" y="295"/>
      <point x="206" y="274" type="curve"/>
      <point x="37" y="274" type="line"/>
      <point x="60" y="715" type="line"/>
      <point x="584" y="715" type="line"/>
      <point x="584" y="526" type="line"/>
      <point x="248" y="526" type="line"/>
      <point x="241" y="400" type="line"/>
      <point x="268" y="444"/>
      <point x="319" y="489"/>
      <point x="419" y="489" type="curve" smooth="yes"/>
      <point x="551" y="489"/>
      <point x="633" y="403"/>
      <point x="633" y="243" type="curve" smooth="yes"/>
      <point x="633" y="90"/>
      <point x="524" y="-14"/>
    </contour>
  </outline>
</glyph>
<glyph name="six" format="2">
  <advance width="703"/>
  <unicode hex="0036"/>
  <outline>
    <contour>
      <point x="369" y="-14" type="curve" smooth="yes"/>
      <point x="124" y="-14"/>
      <point x="24" y="132"/>
      <point x="24" y="349" type="curve" smooth="yes"/>
      <point x="24" y="369" type="line" smooth="yes"/>
      <point x="24" y="590"/>
      <point x="175" y="726"/>
      <point x="366" y="726" type="curve" smooth="yes"/>
      <point x="552" y="726"/>
      <point x="656" y="648"/>
      <point x="669" y="495" type="curve"/>
      <point x="426" y="495" type="line"/>
      <point x="424" y="514"/>
      <point x="416" y="533"/>
      <point x="380" y="533" type="curve" smooth="yes"/>
      <point x="317" y="533"/>
      <point x="291" y="481"/>
      <point x="287" y="394" type="curve"/>
      <point x="318" y="439"/>
      <point x="354" y="470"/>
      <point x="445" y="470" type="curve" smooth="yes"/>
      <point x="569" y="470"/>
      <point x="684" y="404"/>
      <point x="684" y="243" type="curve" smooth="yes"/>
      <point x="684" y="89"/>
      <point x="566" y="-14"/>
    </contour>
    <contour>
      <point x="365" y="171" type="curve" smooth="yes"/>
      <point x="404" y="171"/>
      <point x="428" y="203"/>
      <point x="428" y="243" type="curve" smooth="yes"/>
      <point x="428" y="280"/>
      <point x="405" y="311"/>
      <point x="366" y="311" type="curve" smooth="yes"/>
      <point x="326" y="311"/>
      <point x="303" y="278"/>
      <point x="303" y="239" type="curve" smooth="yes"/>
      <point x="303" y="204"/>
      <point x="325" y="171"/>
    </contour>
  </outline>
</glyph>
<glyph name="seven" format="2">
  <advance width="603"/>
  <unicode hex="0037"/>
  <outline>
    <contour>
      <point x="94" y="0" type="line"/>
      <point x="269" y="499" type="line"/>
      <point x="20" y="499" type="line"/>
      <point x="20" y="715" type="line"/>
      <point x="602" y="715" type="line"/>
      <point x="602" y="689" type="line"/>
      <point x="364" y="0" type="line"/>
    </contour>
  </outline>
</glyph>
<glyph name="eight" format="2">
  <advance width="683"/>
  <unicode hex="0038"/>
  <outline>
    <contour>
      <point x="341" y="-14" type="curve" smooth="yes"/>
      <point x="128" y="-14"/>
      <point x="16" y="64"/>
      <point x="16" y="201" type="curve" smooth="yes"/>
      <point x="16" y="276"/>
      <point x="54" y="340"/>
      <point x="144" y="372" type="curve"/>
      <point x="84" y="400"/>
      <point x="47" y="445"/>
      <point x="47" y="518" type="curve" smooth="yes"/>
      <point x="47" y="653"/>
      <point x="177" y="726"/>
      <point x="344" y="726" type="curve" smooth="yes"/>
      <point x="517" y="726"/>
      <point x="640" y="654"/>
      <point x="640" y="519" type="curve" smooth="yes"/>
      <point x="640" y="446"/>
      <point x="602" y="400"/>
      <point x="543" y="373" type="curve"/>
      <point x="629" y="344"/>
      <point x="667" y="283"/>
      <point x="667" y="208" type="curve" smooth="yes"/>
      <point x="667" y="72"/>
      <point x="553" y="-14"/>
    </contour>
    <contour>
      <point x="342" y="168" type="curve" smooth="yes"/>
      <point x="383" y="168"/>
      <point x="408" y="194"/>
      <point x="408" y="231" type="curve" smooth="yes"/>
      <point x="408" y="268"/>
      <point x="385" y="296"/>
      <point x="342" y="296" type="curve" smooth="yes"/>
      <point x="301" y="296"/>
      <point x="276" y="271"/>
      <point x="276" y="232" type="curve" smooth="yes"/>
      <point x="276" y="194"/>
      <point x="300" y="168"/>
    </contour>
    <contour>
      <point x="343" y="435" type="curve" smooth="yes"/>
      <point x="376" y="435"/>
      <point x="405" y="458"/>
      <point x="405" y="493" type="curve" smooth="yes"/>
      <point x="405" y="530"/>
      <point x="377" y="552"/>
      <point x="344" y="552" type="curve" smooth="yes"/>
      <point x="312" y="552"/>
      <point x="284" y="529"/>
      <point x="284" y="494" type="curve" smooth="yes"/>
      <point x="284" y="459"/>
      <point x="311" y="435"/>
    </contour>
  </outline>
</glyph>
<glyph name="nine" format="2">
  <advance width="703"/>
  <unicode hex="0039"/>
  <outline>
    <contour>
      <point x="338" y="-13" type="curve" smooth="yes"/>
      <point x="151" y="-13"/>
      <point x="42" y="67"/>
      <point x="30" y="216" type="curve"/>
      <point x="272" y="216" type="line"/>
      <point x="274" y="197"/>
      <point x="287" y="181"/>
      <point x="322" y="181" type="curve" smooth="yes"/>
      <point x="392" y="181"/>
      <point x="411" y="230"/>
      <point x="415" y="317" type="curve"/>
      <point x="385" y="273"/>
      <point x="355" y="239"/>
      <point x="264" y="239" type="curve" smooth="yes"/>
      <point x="128" y="239"/>
      <point x="19" y="307"/>
      <point x="19" y="468" type="curve" smooth="yes"/>
      <point x="19" y="621"/>
      <point x="139" y="727"/>
      <point x="337" y="727" type="curve" smooth="yes"/>
      <point x="573" y="727"/>
      <point x="679" y="568"/>
      <point x="679" y="361" type="curve" smooth="yes"/>
      <point x="679" y="348" type="line" smooth="yes"/>
      <point x="679" y="119"/>
      <point x="559" y="-13"/>
    </contour>
    <contour>
      <point x="332" y="403" type="curve" smooth="yes"/>
      <point x="372" y="403"/>
      <point x="396" y="436"/>
      <point x="396" y="475" type="curve" smooth="yes"/>
      <point x="396" y="510"/>
      <point x="374" y="543"/>
      <point x="333" y="543" type="curve" smooth="yes"/>
      <point x="294" y="543"/>
      <point x="270" y="510"/>
      <point x="270" y="471" type="curve" smooth="yes"/>
      <point x="270" y="434"/>
      <point x="293" y="403"/>
    </contour>
  </outline>
</glyph>
<glyph name="colon" format="2">
  <advance width="312"/>
  <unicode hex="003A"/>
  <outline>
    <contour>
      <point x="154" y="-14" type="curve" smooth="yes"/>
      <point x="83" y="-14"/>
      <point x="32" y="39"/>
      <point x="32" y="106" type="curve" smooth="yes"/>
      <point x="32" y="172"/>
      <point x="83" y="226"/>
      <point x="154" y="226" type="curve" smooth="yes"/>
      <point x="227" y="226"/>
      <point x="280" y="172"/>
      <point x="280" y="106" type="curve" smooth="yes"/>
      <point x="280" y="39"/>
      <point x="227" y="-14"/>
    </contour>
    <contour>
      <point x="154" y="266" type="curve" smooth="yes"/>
      <point x="83" y="266"/>
      <point x="32" y="319"/>
      <point x="32" y="386" type="curve" smooth="yes"/>
      <point x="32" y="452"/>
      <point x="83" y="506"/>
      <point x="154" y="506" type="curve" smooth="yes"/>
      <point x="227" y="506"/>
      <point x="280" y="452"/>
      <point x="280" y="386" type="curve" smooth="yes"/>
      <point x="280" y="319"/>
      <point x="227" y="266"/>
    </contour>
  </outline>
</glyph>
<glyph name="semicolon" format="2">
  <advance width="336"/>
  <unicode hex="003B"/>
  <outline>
    <contour>
      <point x="137" y="-122" type="line"/>
      <point x="4" y="-74" type="line"/>
      <point x="81" y="212" type="line"/>
      <point x="291" y="142" type="line"/>
    </contour>
    <contour>
      <point x="184" y="266" type="curve" smooth="yes"/>
      <point x="113" y="266"/>
      <point x="62" y="319"/>
      <point x="62" y="386" type="curve" smooth="yes"/>
      <point x="62" y="452"/>
      <point x="113" y="506"/>
      <point x="184" y="506" type="curve" smooth="yes"/>
      <point x="257" y="506"/>
      <point x="310" y="452"/>
      <point x="310" y="386" type="curve" smooth="yes"/>
      <point x="310" y="319"/>
      <point x="257" y="266"/>
    </contour>
  </outline>
</glyph>
<glyph name="less" format="2">
  <advance width="517"/>
  <unicode hex="003C"/>
  <outline>
    <contour>
      <point x="477" y="41" type="line"/>
      <point x="36" y="302" type="line"/>
      <point x="36" y="343" type="line"/>
      <point x="477" y="604" type="line"/>
      <point x="477" y="399" type="line"/>
      <point x="324" y="324" type="line"/>
      <point x="477" y="239" type="line"/>
    </contour>
  </outline>
</glyph>
<glyph name="equal" format="2">
  <advance width="594"/>
  <unicode hex="003D"/>
  <outline>
    <contour>
      <point x="38" y="152" type="line"/>
      <point x="38" y="300" type="line"/>
      <point x="556" y="300" type="line"/>
      <point x="556" y="152" type="line"/>
    </contour>
    <contour>
      <point x="38" y="357" type="line"/>
      <point x="38" y="505" type="line"/>
      <point x="556" y="505" type="line"/>
      <point x="556" y="357" type="line"/>
    </contour>
  </outline>
</glyph>
<glyph name="question" format="2">
  <advance width="591"/>
  <unicode hex="003F"/>
  <outline>
    <contour>
      <point x="164" y="252" type="line"/>
      <point x="164" y="255" type="line" smooth="yes"/>
      <point x="164" y="329"/>
      <point x="215" y="376"/>
      <point x="259" y="417" type="curve" smooth="yes"/>
      <point x="291" y="447"/>
      <point x="320" y="473"/>
      <point x="320" y="502" type="curve" smooth="yes"/>
      <point x="320" y="530"/>
      <point x="308" y="541"/>
      <point x="283" y="541" type="curve" smooth="yes"/>
      <point x="256" y="541"/>
      <point x="239" y="517"/>
      <point x="232" y="475" type="curve"/>
      <point x="8" y="475" type="line"/>
      <point x="12" y="644"/>
      <point x="133" y="726"/>
      <point x="303" y="726" type="curve" smooth="yes"/>
      <point x="467" y="726"/>
      <point x="571" y="663"/>
      <point x="571" y="526" type="curve" smooth="yes"/>
      <point x="571" y="465"/>
      <point x="547" y="421"/>
      <point x="511" y="385" type="curve" smooth="yes"/>
      <point x="459" y="333"/>
      <point x="396" y="295"/>
      <point x="382" y="252" type="curve"/>
    </contour>
    <contour>
      <point x="274" y="-14" type="curve" smooth="yes"/>
      <point x="201" y="-14"/>
      <point x="144" y="38"/>
      <point x="144" y="103" type="curve" smooth="yes"/>
      <point x="144" y="168"/>
      <point x="201" y="221"/>
      <point x="274" y="221" type="curve" smooth="yes"/>
      <point x="345" y="221"/>
      <point x="402" y="168"/>
      <point x="402" y="103" type="curve" smooth="yes"/>
      <point x="402" y="38"/>
      <point x="345" y="-14"/>
    </contour>
  </outline>
</glyph>
<glyph name="at" format="2">
  <advance width="924"/>
  <unicode hex="0040"/>
  <outline>
    <contour>
      <point x="461" y="-164" type="curve" smooth="yes"/>
      <point x="189" y="-164"/>
      <point x="20" y="13"/>
      <point x="20" y="247" type="curve" smooth="yes"/>
      <point x="20" y="521"/>
      <point x="244" y="692"/>
      <point x="482" y="692" type="curve" smooth="yes"/>
      <point x="719" y="692"/>
      <point x="903" y="555"/>
      <point x="903" y="329" type="curve" smooth="yes"/>
      <point x="903" y="125"/>
      <point x="794" y="45"/>
      <point x="673" y="45" type="curve" smooth="yes"/>
      <point x="583" y="45"/>
      <point x="527" y="70"/>
      <point x="509" y="124" type="curve"/>
      <point x="485" y="71"/>
      <point x="448" y="45"/>
      <point x="383" y="45" type="curve" smooth="yes"/>
      <point x="284" y="45"/>
      <point x="219" y="119"/>
      <point x="219" y="237" type="curve" smooth="yes"/>
      <point x="219" y="382"/>
      <point x="307" y="473"/>
      <point x="417" y="473" type="curve" smooth="yes"/>
      <point x="475" y="473"/>
      <point x="505" y="450"/>
      <point x="520" y="418" type="curve"/>
      <point x="527" y="465" type="line"/>
      <point x="707" y="465" type="line"/>
      <point x="672" y="182" type="line" smooth="yes"/>
      <point x="667" y="146"/>
      <point x="678" y="122"/>
      <point x="713" y="122" type="curve" smooth="yes"/>
      <point x="767" y="122"/>
      <point x="819" y="181"/>
      <point x="819" y="333" type="curve" smooth="yes"/>
      <point x="819" y="505"/>
      <point x="685" y="621"/>
      <point x="485" y="621" type="curve" smooth="yes"/>
      <point x="278" y="621"/>
      <point x="109" y="478"/>
      <point x="109" y="244" type="curve" smooth="yes"/>
      <point x="109" y="49"/>
      <point x="229" y="-93"/>
      <point x="466" y="-93" type="curve" smooth="yes"/>
      <point x="586" y="-93"/>
      <point x="689" y="-46"/>
      <point x="734" y="0" type="curve"/>
      <point x="832" y="0" type="line"/>
      <point x="759" y="-100"/>
      <point x="619" y="-164"/>
    </contour>
    <contour>
      <point x="446" y="190" type="curve" smooth="yes"/>
      <point x="481" y="190"/>
      <point x="502" y="232"/>
      <point x="502" y="283" type="curve" smooth="yes"/>
      <point x="502" y="310"/>
      <point x="489" y="332"/>
      <point x="458" y="332" type="curve" smooth="yes"/>
      <point x="423" y="332"/>
      <point x="403" y="293"/>
      <point x="403" y="246" type="curve" smooth="yes"/>
      <point x="403" y="218"/>
      <point x="414" y="190"/>
    </contour>
  </outline>
</glyph>
<glyph name="A" format="2">
  <advance width="784"/>
  <unicode hex="0041"/>
  <outline>
    <contour>
      <point x="1" y="0" type="line"/>
      <point x="221" y="715" type="line"/>
      <point x="564" y="715" type="line"/>
      <point x="783" y="0" type="line"/>
      <point x="499" y="0" type="line"/>
      <point x="475" y="95" type="line"/>
      <point x="273" y="95" type="line"/>
      <point x="249" y="0" type="line"/>
    </contour>
    <contour>
      <point x="375" y="501" type="line"/>
      <point x="317" y="273" type="line"/>
      <point x="431" y="273" type="line"/>
    </contour>
  </outline>
</glyph>
<glyph name="B" format="2">
  <advance width="709"/>
  <unicode hex="0042"/>
  <outline>
    <contour>
      <point x="58" y="0" type="line"/>
      <point x="58" y="715" type="line"/>
      <point x="431" y="715" type="line" smooth="yes"/>
      <point x="619" y="715"/>
      <point x="678" y="623"/>
      <point x="678" y="527" type="curve" smooth="yes"/>
      <point x="678" y="523" type="line" smooth="yes"/>
      <point x="678" y="435"/>
      <point x="629" y="385"/>
      <point x="550" y="368" type="curve"/>
      <point x="629" y="357"/>
      <point x="693" y="305"/>
      <point x="693" y="203" type="curve" smooth="yes"/>
      <point x="693" y="199" type="line" smooth="yes"/>
      <point x="693" y="74"/>
      <point x="615" y="0"/>
      <point x="420" y="0" type="curve" smooth="yes"/>
    </contour>
    <contour>
      <point x="317" y="172" type="line"/>
      <point x="365" y="172" type="line" smooth="yes"/>
      <point x="410" y="172"/>
      <point x="431" y="194"/>
      <point x="431" y="230" type="curve" smooth="yes"/>
      <point x="431" y="234" type="line" smooth="yes"/>
      <point x="431" y="270"/>
      <point x="412" y="291"/>
      <point x="362" y="291" type="curve" smooth="yes"/>
      <point x="317" y="291" type="line"/>
    </contour>
    <contour>
      <point x="317" y="445" type="line"/>
      <point x="369" y="445" type="line" smooth="yes"/>
      <point x="411" y="445"/>
      <point x="428" y="459"/>
      <point x="428" y="491" type="curve" smooth="yes"/>
      <point x="428" y="495" type="line" smooth="yes"/>
      <point x="428" y="527"/>
      <point x="412" y="544"/>
      <point x="369" y="544" type="curve" smooth="yes"/>
      <point x="317" y="544" type="line"/>
    </contour>
  </outline>
</glyph>
<glyph name="D" format="2">
  <advance width="767"/>
  <unicode hex="0044"/>
  <outline>
    <contour>
      <point x="325" y="203" type="line"/>
      <point x="346" y="203" type="line" smooth="yes"/>
      <point x="436" y="203"/>
      <point x="470" y="243"/>
      <point x="470" y="354" type="curve" smooth="yes"/>
      <point x="470" y="362" type="line" smooth="yes"/>
      <point x="470" y="483"/>
      <point x="430" y="512"/>
      <point x="344" y="512" type="curve" smooth="yes"/>
      <point x="325" y="512" type="line"/>
    </contour>
    <contour>
      <point x="58" y="0" type="line"/>
      <point x="58" y="715" type="line"/>
      <point x="354" y="715" type="line" smooth="yes"/>
      <point x="613" y="715"/>
      <point x="748" y="601"/>
      <point x="748" y="367" type="curve" smooth="yes"/>
      <point x="748" y="360" type="line" smooth="yes"/>
      <point x="748" y="124"/>
      <point x="608" y="0"/>
      <point x="355" y="0" type="curve" smooth="yes"/>
    </contour>
  </outline>
</glyph>
<glyph name="F" format="2">
  <advance width="596"/>
  <unicode hex="0046"/>
  <outline>
    <contour>
      <point x="58" y="0" type="line"/>
      <point x="58" y="715" type="line"/>
      <point x="575" y="715" type="line"/>
      <point x="575" y="511" type="line"/>
      <point x="325" y="511" type="line"/>
      <point x="325" y="411" type="line"/>
      <point x="528" y="411" type="line"/>
      <point x="528" y="218" type="line"/>
      <point x="325" y="218" type="line"/>
      <point x="325" y="0" type="line"/>
    </contour>
  </outline>
</glyph>
<glyph name="L" format="2">
  <advance width="595"/>
  <unicode hex="004C"/>
  <outline>
    <contour>
      <point x="58" y="0" type="line"/>
      <point x="58" y="715" type="line"/>
      <point x="325" y="715" type="line"/>
      <point x="325" y="204" type="line"/>
      <point x="566" y="204" type="line"/>
      <point x="566" y="0" type="line"/>
    </contour>
  </outline>
</glyph>
<glyph name="M" format="2">
  <advance width="986"/>
  <unicode hex="004D"/>
  <outline>
    <contour>
      <point x="58" y="0" type="line"/>
      <point x="58" y="715" type="line"/>
      <point x="400" y="715" type="line"/>
      <point x="494" y="429" type="line"/>
      <point x="591" y="715" type="line"/>
      <point x="927" y="715" type="line"/>
      <point x="927" y="0" type="line"/>
      <point x="662" y="0" type="line"/>
      <point x="662" y="380" type="line"/>
      <point x="520" y="0" type="line"/>
      <point x="430" y="0" type="line"/>
      <point x="294" y="380" type="line"/>
      <point x="294" y="0" type="line"/>
    </contour>
  </outline>
</glyph>
<glyph name="N" format="2">
  <advance width="805"/>
  <unicode hex="004E"/>
  <outline>
    <contour>
      <point x="58" y="0" type="line"/>
      <point x="58" y="715" type="line"/>
      <point x="355" y="715" type="line"/>
      <point x="510" y="383" type="line"/>
      <point x="510" y="715" type="line"/>
      <point x="746" y="715" type="line"/>
      <point x="746" y="0" type="line"/>
      <point x="493" y="0" type="line"/>
      <point x="295" y="390" type="line"/>
      <point x="295" y="0" type="line"/>
    </contour>
  </outline>
</glyph>
<glyph name="P" format="2">
  <advance width="688"/>
  <unicode hex="0050"/>
  <outline>
    <contour>
      <point x="58" y="0" type="line"/>
      <point x="58" y="715" type="line"/>
      <point x="366" y="715" type="line" smooth="yes"/>
      <point x="592" y="715"/>
      <point x="672" y="614"/>
      <point x="672" y="460" type="curve" smooth="yes"/>
      <point x="672" y="456" type="line" smooth="yes"/>
      <point x="672" y="308"/>
      <point x="578" y="216"/>
      <point x="379" y="216" type="curve" smooth="yes"/>
      <point x="323" y="216" type="line"/>
      <point x="323" y="0" type="line"/>
    </contour>
    <contour>
      <point x="323" y="392" type="line"/>
      <point x="349" y="392" type="line" smooth="yes"/>
      <point x="397" y="392"/>
      <point x="421" y="413"/>
      <point x="421" y="455" type="curve" smooth="yes"/>
      <point x="421" y="459" type="line" smooth="yes"/>
      <point x="421" y="500"/>
      <point x="398" y="518"/>
      <point x="350" y="518" type="curve" smooth="yes"/>
      <point x="323" y="518" type="line"/>
    </contour>
  </outline>
</glyph>
<glyph name="Q" format="2">
  <advance width="823"/>
  <unicode hex="0051"/>
  <outline>
    <contour>
      <point x="590" y="-136" type="line"/>
      <point x="466" y="-10" type="line"/>
      <point x="446" y="-13"/>
      <point x="425" y="-14"/>
      <point x="404" y="-14" type="curve" smooth="yes"/>
      <point x="163" y="-14"/>
      <point x="19" y="131"/>
      <point x="19" y="353" type="curve" smooth="yes"/>
      <point x="19" y="361" type="line" smooth="yes"/>
      <point x="19" y="587"/>
      <point x="194" y="726"/>
      <point x="410" y="726" type="curve" smooth="yes"/>
      <point x="632" y="726"/>
      <point x="804" y="601"/>
      <point x="804" y="368" type="curve" smooth="yes"/>
      <point x="804" y="360" type="line" smooth="yes"/>
      <point x="804" y="235"/>
      <point x="757" y="135"/>
      <point x="675" y="70" type="curve"/>
      <point x="734" y="10" type="line"/>
    </contour>
    <contour>
      <point x="297" y="354" type="line" smooth="yes"/>
      <point x="297" y="271"/>
      <point x="320" y="222"/>
      <point x="364" y="203" type="curve"/>
      <point x="464" y="285" type="line"/>
      <point x="502" y="246" type="line"/>
      <point x="517" y="273"/>
      <point x="526" y="309"/>
      <point x="526" y="354" type="curve" smooth="yes"/>
      <point x="526" y="362" type="line" smooth="yes"/>
      <point x="526" y="472"/>
      <point x="478" y="519"/>
      <point x="410" y="519" type="curve" smooth="yes"/>
      <point x="343" y="519"/>
      <point x="297" y="471"/>
      <point x="297" y="362" type="curve" smooth="yes"/>
    </contour>
  </outline>
</glyph>
<glyph name="U" format="2">
  <advance width="799"/>
  <unicode hex="0055"/>
  <outline>
    <contour>
      <point x="401" y="-14" type="curve" smooth="yes"/>
      <point x="180" y="-14"/>
      <point x="54" y="92"/>
      <point x="54" y="305" type="curve" smooth="yes"/>
      <point x="54" y="715" type="line"/>
      <point x="320" y="715" type="line"/>
      <point x="320" y="313" type="line" smooth="yes"/>
      <point x="320" y="237"/>
      <point x="330" y="194"/>
      <point x="401" y="194" type="curve" smooth="yes"/>
      <point x="471" y="194"/>
      <point x="477" y="240"/>
      <point x="477" y="311" type="curve" smooth="yes"/>
      <point x="477" y="715" type="line"/>
      <point x="745" y="715" type="line"/>
      <point x="745" y="304" type="line" smooth="yes"/>
      <point x="745" y="78"/>
      <point x="606" y="-14"/>
    </contour>
  </outline>
</glyph>
<glyph name="V" format="2">
  <advance width="766"/>
  <unicode hex="0056"/>
  <outline>
    <contour>
      <point x="237" y="0" type="line"/>
      <point x="3" y="715" type="line"/>
      <point x="293" y="715" type="line"/>
      <point x="403" y="279" type="line"/>
      <point x="514" y="715" type="line"/>
      <point x="763" y="715" type="line"/>
      <point x="536" y="0" type="line"/>
    </contour>
  </outline>
</glyph>
<glyph name="X" format="2">
  <advance width="805"/>
  <unicode hex="0058"/>
  <outline>
    <contour>
      <point x="10" y="0" type="line"/>
      <point x="223" y="368" type="line"/>
      <point x="27" y="715" type="line"/>
      <point x="331" y="715" type="line"/>
      <point x="409" y="537" type="line"/>
      <point x="485" y="715" type="line"/>
      <point x="757" y="715" type="line"/>
      <point x="580" y="379" type="line"/>
      <point x="795" y="0" type="line"/>
      <point x="492" y="0" type="line"/>
      <point x="388" y="217" type="line"/>
      <point x="285" y="0" type="line"/>
    </contour>
  </outline>
</glyph>
<glyph name="bracketleft" format="2">
  <advance width="437"/>
  <unicode hex="005B"/>
  <outline>
    <contour>
      <point x="54" y="-148" type="line"/>
      <point x="54" y="776" type="line"/>
      <point x="402" y="776" type="line"/>
      <point x="402" y="612" type="line"/>
      <point x="285" y="612" type="line"/>
      <point x="285" y="16" type="line"/>
      <point x="402" y="16" type="line"/>
      <point x="402" y="-148" type="line"/>
    </contour>
  </outline>
</glyph>
<glyph name="bracketright" format="2">
  <advance width="437"/>
  <unicode hex="005D"/>
  <outline>
    <contour>
      <point x="36" y="-148" type="line"/>
      <point x="36" y="16" type="line"/>
      <point x="151" y="16" type="line"/>
      <point x="151" y="612" type="line"/>
      <point x="36" y="612" type="line"/>
      <point x="36" y="776" type="line"/>
      <point x="382" y="776" type="line"/>
      <point x="382" y="-148" type="line"/>
    </contour>
  </outline>
</glyph>
<glyph name="asciicircum" format="2">
  <advance width="543"/>
  <unicode hex="005E"/>
  <outline>
    <contour>
      <point x="12" y="386" type="line"/>
      <point x="175" y="715" type="line"/>
      <point x="368" y="715" type="line"/>
      <point x="531" y="386" type="line"/>
      <point x="342" y="386" type="line"/>
      <point x="270" y="531" type="line"/>
      <point x="197" y="386" type="line"/>
    </contour>
  </outline>
</glyph>
<glyph name="underscore" format="2">
  <advance width="454"/>
  <unicode hex="005F"/>
  <outline>
    <contour>
      <point x="-1" y="-162" type="line"/>
      <point x="-1" y="-66" type="line"/>
      <point x="455" y="-66" type="line"/>
      <point x="455" y="-162" type="line"/>
    </contour>
  </outline>
</glyph>
<glyph name="grave" format="2">
  <advance width="400"/>
  <unicode hex="0060"/>
  <outline>
    <contour>
      <point x="125" y="568" type="line"/>
      <point x="20" y="743" type="line"/>
      <point x="239" y="743" type="line"/>
      <point x="288" y="568" type="line"/>
    </contour>
  </outline>
</glyph>
<glyph name="b" format="2">
  <advance width="651"/>
  <unicode hex="0062"/>
  <outline>
    <contour>
      <point x="419" y="-14" type="curve" smooth="yes"/>
      <point x="345" y="-14"/>
      <point x="290" y="21"/>
      <point x="266" y="78" type="curve"/>
      <point x="266" y="0" type="line"/>
      <point x="37" y="0" type="line"/>
      <point x="37" y="743" type="line"/>
      <point x="266" y="743" type="line"/>
      <point x="266" y="450" type="line"/>
      <point x="295" y="499"/>
      <point x="341" y="539"/>
      <point x="421" y="539" type="curve" smooth="yes"/>
      <point x="535" y="539"/>
      <point x="634" y="452"/>
      <point x="634" y="264" type="curve" smooth="yes"/>
      <point x="634" y="256" type="line" smooth="yes"/>
      <point x="634" y="66"/>
      <point x="532" y="-14"/>
    </contour>
    <contour>
      <point x="329" y="159" type="curve" smooth="yes"/>
      <point x="376" y="159"/>
      <point x="402" y="193"/>
      <point x="402" y="259" type="curve" smooth="yes"/>
      <point x="402" y="267" type="line" smooth="yes"/>
      <point x="402" y="338"/>
      <point x="379" y="371"/>
      <point x="329" y="371" type="curve" smooth="yes"/>
      <point x="281" y="371"/>
      <point x="260" y="332"/>
      <point x="260" y="268" type="curve" smooth="yes"/>
      <point x="260" y="260" type="line" smooth="yes"/>
      <point x="260" y="194"/>
      <point x="282" y="159"/>
    </contour>
  </outline>
</glyph>
<glyph name="c" format="2">
  <advance width="590"/>
  <unicode hex="0063"/>
  <outline>
    <contour>
      <point x="300" y="-14" type="curve" smooth="yes"/>
      <point x="139" y="-14"/>
      <point x="15" y="71"/>
      <point x="15" y="254" type="curve" smooth="yes"/>
      <point x="15" y="262" type="line" smooth="yes"/>
      <point x="15" y="444"/>
      <point x="145" y="539"/>
      <point x="307" y="539" type="curve" smooth="yes"/>
      <point x="444" y="539"/>
      <point x="570" y="481"/>
      <point x="578" y="308" type="curve"/>
      <point x="365" y="308" type="line"/>
      <point x="360" y="339"/>
      <point x="354" y="364"/>
      <point x="313" y="364" type="curve" smooth="yes"/>
      <point x="266" y="364"/>
      <point x="248" y="335"/>
      <point x="248" y="266" type="curve" smooth="yes"/>
      <point x="248" y="258" type="line" smooth="yes"/>
      <point x="248" y="186"/>
      <point x="264" y="150"/>
      <point x="316" y="150" type="curve" smooth="yes"/>
      <point x="353" y="150"/>
      <point x="372" y="173"/>
      <point x="376" y="215" type="curve"/>
      <point x="581" y="215" type="line"/>
      <point x="578" y="74"/>
      <point x="490" y="-14"/>
    </contour>
  </outline>
</glyph>
<glyph name="k" format="2">
  <advance width="609"/>
  <unicode hex="006B"/>
  <outline>
    <contour>
      <point x="37" y="0" type="line"/>
      <point x="37" y="743" type="line"/>
      <point x="266" y="743" type="line"/>
      <point x="266" y="344" type="line"/>
      <point x="367" y="523" type="line"/>
      <point x="599" y="523" type="line"/>
      <point x="456" y="292" type="line"/>
      <point x="610" y="0" type="line"/>
      <point x="359" y="0" type="line"/>
      <point x="266" y="191" type="line"/>
      <point x="266" y="0" type="line"/>
    </contour>
  </outline>
</glyph>
<glyph name="l" format="2">
  <advance width="313"/>
  <unicode hex="006C"/>
  <outline>
    <contour>
      <point x="43" y="0" type="line"/>
      <point x="43" y="743" type="line"/>
      <point x="270" y="743" type="line"/>
      <point x="270" y="0" type="line"/>
    </contour>
  </outline>
</glyph>
<glyph name="m" format="2">
  <advance width="942"/>
  <unicode hex="006D"/>
  <outline>
    <contour>
      <point x="37" y="0" type="line"/>
      <point x="37" y="523" type="line"/>
      <point x="266" y="523" type="line"/>
      <point x="266" y="443" type="line"/>
      <point x="296" y="493"/>
      <point x="350" y="539"/>
      <point x="433" y="539" type="curve" smooth="yes"/>
      <point x="504" y="539"/>
      <point x="546" y="509"/>
      <point x="570" y="458" type="curve"/>
      <point x="619" y="515"/>
      <point x="674" y="539"/>
      <point x="740" y="539" type="curve" smooth="yes"/>
      <point x="841" y="539"/>
      <point x="908" y="471"/>
      <point x="908" y="351" type="curve" smooth="yes"/>
      <point x="908" y="0" type="line"/>
      <point x="680" y="0" type="line"/>
      <point x="680" y="303" type="line" smooth="yes"/>
      <point x="680" y="336"/>
      <point x="661" y="356"/>
      <point x="636" y="356" type="curve" smooth="yes"/>
      <point x="598" y="356"/>
      <point x="586" y="332"/>
      <point x="586" y="294" type="curve" smooth="yes"/>
      <point x="586" y="0" type="line"/>
      <point x="360" y="0" type="line"/>
      <point x="360" y="303" type="line" smooth="yes"/>
      <point x="360" y="336"/>
      <point x="340" y="356"/>
      <point x="316" y="356" type="curve" smooth="yes"/>
      <point x="278" y="356"/>
      <point x="266" y="332"/>
      <point x="266" y="294" type="curve" smooth="yes"/>
      <point x="266" y="0" type="line"/>
    </contour>
  </outline>
</glyph>
<glyph name="o" format="2">
  <advance width="632"/>
  <unicode hex="006F"/>
  <outline>
    <contour>
      <point x="317" y="152" type="curve" smooth="yes"/>
      <point x="365" y="152"/>
      <point x="385" y="187"/>
      <point x="385" y="259" type="curve" smooth="yes"/>
      <point x="385" y="267" type="line" smooth="yes"/>
      <point x="385" y="338"/>
      <point x="366" y="372"/>
      <point x="317" y="372" type="curve" smooth="yes"/>
      <point x="270" y="372"/>
      <point x="247" y="341"/>
      <point x="247" y="270" type="curve" smooth="yes"/>
      <point x="247" y="262" type="line" smooth="yes"/>
      <point x="247" y="187"/>
      <point x="267" y="152"/>
    </contour>
    <contour>
      <point x="316" y="-14" type="curve" smooth="yes"/>
      <point x="149" y="-14"/>
      <point x="15" y="77"/>
      <point x="15" y="254" type="curve" smooth="yes"/>
      <point x="15" y="262" type="line" smooth="yes"/>
      <point x="15" y="436"/>
      <point x="148" y="539"/>
      <point x="317" y="539" type="curve" smooth="yes"/>
      <point x="485" y="539"/>
      <point x="617" y="440"/>
      <point x="617" y="269" type="curve" smooth="yes"/>
      <point x="617" y="261" type="line" smooth="yes"/>
      <point x="617" y="85"/>
      <point x="483" y="-14"/>
    </contour>
  </outline>
</glyph>
<glyph name="r" format="2">
  <advance width="455"/>
  <unicode hex="0072"/>
  <outline>
    <contour>
      <point x="37" y="0" type="line"/>
      <point x="37" y="523" type="line"/>
      <point x="266" y="523" type="line"/>
      <point x="266" y="414" type="line"/>
      <point x="299" y="501"/>
      <point x="359" y="532"/>
      <point x="433" y="529" type="curve"/>
      <point x="433" y="316" type="line"/>
      <point x="322" y="324"/>
      <point x="266" y="288"/>
      <point x="266" y="228" type="curve" smooth="yes"/>
      <point x="266" y="0" type="line"/>
    </contour>
  </outline>
</glyph>
<glyph name="v" format="2">
  <advance width="624"/>
  <unicode hex="0076"/>
  <outline>
    <contour>
      <point x="192" y="0" type="line"/>
      <point x="-1" y="523" type="line"/>
      <point x="243" y="523" type="line"/>
      <point x="327" y="239" type="line"/>
      <point x="411" y="523" type="line"/>
      <point x="625" y="523" type="line"/>
      <point x="433" y="0" type="line"/>
    </contour>
  </outline>
</glyph>
<glyph name="x" format="2">
  <advance width="637"/>
  <unicode hex="0078"/>
  <outline>
    <contour>
      <point x="2" y="0" type="line"/>
      <point x="170" y="264" type="line"/>
      <point x="13" y="523" type="line"/>
      <point x="275" y="523" type="line"/>
      <point x="331" y="412" type="line"/>
      <point x="386" y="523" type="line"/>
      <point x="618" y="523" type="line"/>
      <point x="458" y="282" type="line"/>
      <point x="634" y="0" type="line"/>
      <point x="372" y="0" type="line"/>
      <point x="304" y="128" type="line"/>
      <point x="233" y="0" type="line"/>
    </contour>
  </outline>
</glyph>
<glyph name="z" format="2">
  <advance width="521"/>
  <unicode hex="007A"/>
  <outline>
    <contour>
      <point x="4" y="0" type="line"/>
      <point x="4" y="21" type="line"/>
      <point x="192" y="354" type="line"/>
      <point x="25" y="354" type="line"/>
      <point x="25" y="523" type="line"/>
      <point x="514" y="523" type="line"/>
      <point x="514" y="502" type="line"/>
      <point x="313" y="167" type="line"/>
      <point x="498" y="167" type="line"/>
      <point x="498" y="0" type="line"/>
    </contour>
  </outline>
</glyph>
<glyph name="braceleft" format="2">
  <advance width="437"/>
  <unicode hex="007B"/>
  <outline>
    <contour>
      <point x="402" y="-148" type="line"/>
      <point x="173" y="-148"/>
      <point x="73" y="-71"/>
      <point x="100" y="95" type="curve" smooth="yes"/>
      <point x="112" y="170" type="line" smooth="yes"/>
      <point x="119" y="211"/>
      <point x="91" y="236"/>
      <point x="26" y="236" type="curve"/>
      <point x="26" y="394" type="line"/>
      <point x="91" y="394"/>
      <point x="119" y="418"/>
      <point x="112" y="459" type="curve" smooth="yes"/>
      <point x="100" y="533" type="line" smooth="yes"/>
      <point x="72" y="708"/>
      <point x="173" y="776"/>
      <point x="402" y="776" type="curve"/>
      <point x="402" y="611" type="line"/>
      <point x="336" y="606"/>
      <point x="322" y="590"/>
      <point x="327" y="542" type="curve" smooth="yes"/>
      <point x="337" y="448" type="line" smooth="yes"/>
      <point x="344" y="384"/>
      <point x="307" y="334"/>
      <point x="231" y="317" type="curve"/>
      <point x="308" y="301"/>
      <point x="344" y="250"/>
      <point x="337" y="186" type="curve" smooth="yes"/>
      <point x="327" y="92" type="line" smooth="yes"/>
      <point x="322" y="42"/>
      <point x="336" y="22"/>
      <point x="402" y="17" type="curve"/>
    </contour>
  </outline>
</glyph>
<glyph name="bar" format="2">
  <advance width="275"/>
  <unicode hex="007C"/>
  <outline>
    <contour>
      <point x="60" y="-148" type="line"/>
      <point x="60" y="776" type="line"/>
      <point x="215" y="776" type="line"/>
      <point x="215" y="-148" type="line"/>
    </contour>
  </outline>
</glyph>
<glyph name="braceright" format="2">
  <advance width="437"/>
  <unicode hex="007D"/>
  <outline>
    <contour>
      <point x="35" y="-148" type="curve"/>
      <point x="35" y="17" type="line"/>
      <point x="101" y="22"/>
      <point x="115" y="42"/>
      <point x="110" y="92" type="curve" smooth="yes"/>
      <point x="100" y="186" type="line" smooth="yes"/>
      <point x="93" y="250"/>
      <point x="129" y="301"/>
      <point x="206" y="317" type="curve"/>
      <point x="130" y="334"/>
      <point x="93" y="384"/>
      <point x="100" y="448" type="curve" smooth="yes"/>
      <point x="110" y="542" type="line" smooth="yes"/>
      <point x="115" y="590"/>
      <point x="101" y="606"/>
      <point x="35" y="611" type="curve"/>
      <point x="35" y="776" type="line"/>
      <point x="264" y="776"/>
      <point x="365" y="708"/>
      <point x="337" y="533" type="curve" smooth="yes"/>
      <point x="325" y="459" type="line" smooth="yes"/>
      <point x="318" y="418"/>
      <point x="346" y="394"/>
      <point x="411" y="394" type="curve"/>
      <point x="411" y="236" type="line"/>
      <point x="346" y="236"/>
      <point x="318" y="211"/>
      <point x="325" y="170" type="curve" smooth="yes"/>
      <point x="337" y="95" type="line" smooth="yes"/>
      <point x="364" y="-71"/>
      <point x="264" y="-148"/>
    </contour>
  </outline>
</glyph>
<glyph name="asciitilde" format="2">
  <advance width="556"/>
  <unicode hex="007E"/>
  <outline>
    <contour>
      <point x="20" y="210" type="line"/>
      <point x="28" y="381"/>
      <point x="104" y="444"/>
      <point x="189" y="444" type="curve" smooth="yes"/>
      <point x="264" y="444"/>
      <point x="313" y="403"/>
      <point x="349" y="403" type="curve" smooth="yes"/>
      <point x="378" y="403"/>
      <point x="389" y="420"/>
      <point x="394" y="445" type="curve"/>
      <point x="536" y="445" type="line"/>
      <point x="532" y="289"/>
      <point x="453" y="211"/>
      <point x="367" y="211" type="curve" smooth="yes"/>
      <point x="291" y="211"/>
      <point x="244" y="252"/>
      <point x="207" y="252" type="curve" smooth="yes"/>
      <point x="178" y="252"/>
      <point x="166" y="234"/>
      <point x="162" y="210" type="curve"/>
    </contour>
  </outline>
</glyph>
<glyph name="exclamdown" format="2">
  <advance width="358"/>
  <unicode hex="00A1"/>
  <outline>
    <contour>
      <point x="50" y="-117" type="line"/>
      <point x="83" y="346" type="line"/>
      <point x="275" y="346" type="line"/>
      <point x="308" y="-117" type="line"/>
    </contour>
    <contour>
      <point x="179" y="377" type="curve" smooth="yes"/>
      <point x="108" y="377"/>
      <point x="50" y="430"/>
      <point x="50" y="495" type="curve" smooth="yes"/>
      <point x="50" y="560"/>
      <point x="108" y="612"/>
      <point x="179" y="612" type="curve" smooth="yes"/>
      <point x="250" y="612"/>
      <point x="307" y="560"/>
      <point x="307" y="495" type="curve" smooth="yes"/>
      <point x="307" y="430"/>
      <point x="250" y="377"/>
    </contour>
  </outline>
</glyph>
<glyph name="cent" format="2">
  <advance width="610"/>
  <unicode hex="00A2"/>
  <outline>
    <contour>
      <point x="286" y="-135" type="line"/>
      <point x="286" y="-13" type="line"/>
      <point x="131" y="-2"/>
      <point x="15" y="83"/>
      <point x="15" y="254" type="curve" smooth="yes"/>
      <point x="15" y="262" type="line" smooth="yes"/>
      <point x="15" y="429"/>
      <point x="133" y="523"/>
      <point x="286" y="537" type="curve"/>
      <point x="286" y="629" type="line"/>
      <point x="355" y="629" type="line"/>
      <point x="355" y="538" type="line"/>
      <point x="488" y="529"/>
      <point x="590" y="457"/>
      <point x="598" y="308" type="curve"/>
      <point x="395" y="308" type="line"/>
      <point x="391" y="342"/>
      <point x="380" y="363"/>
      <point x="355" y="372" type="curve"/>
      <point x="355" y="140" type="line"/>
      <point x="386" y="147"/>
      <point x="403" y="170"/>
      <point x="406" y="215" type="curve"/>
      <point x="601" y="215" type="line"/>
      <point x="598" y="83"/>
      <point x="512" y="-2"/>
      <point x="355" y="-13" type="curve"/>
      <point x="355" y="-135" type="line"/>
    </contour>
    <contour>
      <point x="238" y="258" type="line" smooth="yes"/>
      <point x="238" y="190"/>
      <point x="254" y="156"/>
      <point x="286" y="143" type="curve"/>
      <point x="286" y="372" type="line"/>
      <point x="254" y="361"/>
      <point x="238" y="330"/>
      <point x="238" y="266" type="curve" smooth="yes"/>
    </contour>
  </outline>
</glyph>
<glyph name="sterling" format="2">
  <advance width="688"/>
  <unicode hex="00A3"/>
  <outline>
    <contour>
      <point x="27" y="282" type="line"/>
      <point x="27" y="414" type="line"/>
      <point x="70" y="414" type="line"/>
      <point x="65" y="435"/>
      <point x="62" y="458"/>
      <point x="62" y="484" type="curve" smooth="yes"/>
      <point x="62" y="644"/>
      <point x="194" y="726"/>
      <point x="365" y="726" type="curve" smooth="yes"/>
      <point x="580" y="726"/>
      <point x="664" y="619"/>
      <point x="670" y="458" type="curve"/>
      <point x="430" y="458" type="line"/>
      <point x="425" y="510"/>
      <point x="406" y="528"/>
      <point x="376" y="528" type="curve" smooth="yes"/>
      <point x="342" y="528"/>
      <point x="324" y="507"/>
      <point x="324" y="468" type="curve" smooth="yes"/>
      <point x="324" y="451"/>
      <point x="324" y="433"/>
      <point x="326" y="414" type="curve"/>
      <point x="484" y="414" type="line"/>
      <point x="484" y="282" type="line"/>
      <point x="335" y="282" type="line"/>
      <point x="336" y="273"/>
      <point x="336" y="264"/>
      <point x="336" y="255" type="curve" smooth="yes"/>
      <point x="336" y="236"/>
      <point x="334" y="220"/>
      <point x="330" y="205" type="curve"/>
      <point x="352" y="199"/>
      <point x="370" y="195"/>
      <point x="388" y="195" type="curve" smooth="yes"/>
      <point x="418" y="195"/>
      <point x="434" y="210"/>
      <point x="436" y="240" type="curve"/>
      <point x="678" y="240" type="line"/>
      <point x="673" y="98"/>
      <point x="594" y="-9"/>
      <point x="443" y="-9" type="curve" smooth="yes"/>
      <point x="336" y="-9"/>
      <point x="283" y="38"/>
      <point x="239" y="38" type="curve" smooth="yes"/>
      <point x="215" y="38"/>
      <point x="202" y="23"/>
      <point x="199" y="0" type="curve"/>
      <point x="7" y="0" type="line"/>
      <point x="12" y="84"/>
      <point x="44" y="157"/>
      <point x="103" y="195" type="curve"/>
      <point x="107" y="210"/>
      <point x="110" y="231"/>
      <point x="110" y="255" type="curve" smooth="yes"/>
      <point x="110" y="264"/>
      <point x="109" y="273"/>
      <point x="108" y="282" type="curve"/>
    </contour>
  </outline>
</glyph>
<glyph name="yen" format="2">
  <advance width="682"/>
  <unicode hex="00A5"/>
  <outline>
    <contour>
      <point x="54" y="301" type="line"/>
      <point x="54" y="379" type="line"/>
      <point x="182" y="379" type="line"/>
      <point x="2" y="715" type="line"/>
      <point x="290" y="715" type="line"/>
      <point x="357" y="529" type="line"/>
      <point x="427" y="715" type="line"/>
      <point x="680" y="715" type="line"/>
      <point x="508" y="379" type="line"/>
      <point x="638" y="379" type="line"/>
      <point x="638" y="301" type="line"/>
      <point x="480" y="301" type="line"/>
      <point x="480" y="263" type="line"/>
      <point x="638" y="263" type="line"/>
      <point x="638" y="185" type="line"/>
      <point x="480" y="185" type="line"/>
      <point x="480" y="0" type="line"/>
      <point x="212" y="0" type="line"/>
      <point x="212" y="185" type="line"/>
      <point x="54" y="185" type="line"/>
      <point x="54" y="263" type="line"/>
      <point x="212" y="263" type="line"/>
      <point x="212" y="301" type="line"/>
    </contour>
  </outline>
</glyph>
<glyph name="section" format="2">
  <advance width="641"/>
  <unicode hex="00A7"/>
  <outline>
    <contour>
      <point x="305" y="-137" type="curve" smooth="yes"/>
      <point x="152" y="-137"/>
      <point x="73" y="-62"/>
      <point x="66" y="56" type="curve"/>
      <point x="269" y="56" type="line"/>
      <point x="271" y="28"/>
      <point x="285" y="10"/>
      <point x="313" y="10" type="curve" smooth="yes"/>
      <point x="336" y="10"/>
      <point x="348" y="17"/>
      <point x="348" y="34" type="curve" smooth="yes"/>
      <point x="348" y="54"/>
      <point x="322" y="61"/>
      <point x="259" y="76" type="curve" smooth="yes"/>
      <point x="109" y="111"/>
      <point x="11" y="154"/>
      <point x="11" y="282" type="curve" smooth="yes"/>
      <point x="11" y="352"/>
      <point x="55" y="395"/>
      <point x="117" y="421" type="curve"/>
      <point x="92" y="452"/>
      <point x="81" y="491"/>
      <point x="81" y="531" type="curve" smooth="yes"/>
      <point x="81" y="655"/>
      <point x="181" y="726"/>
      <point x="336" y="726" type="curve" smooth="yes"/>
      <point x="489" y="726"/>
      <point x="568" y="649"/>
      <point x="575" y="529" type="curve"/>
      <point x="372" y="529" type="line"/>
      <point x="369" y="559"/>
      <point x="356" y="575"/>
      <point x="328" y="575" type="curve" smooth="yes"/>
      <point x="306" y="575"/>
      <point x="293" y="567"/>
      <point x="293" y="552" type="curve" smooth="yes"/>
      <point x="293" y="529"/>
      <point x="314" y="524"/>
      <point x="382" y="508" type="curve" smooth="yes"/>
      <point x="529" y="474"/>
      <point x="630" y="434"/>
      <point x="630" y="304" type="curve" smooth="yes"/>
      <point x="630" y="233"/>
      <point x="586" y="192"/>
      <point x="524" y="164" type="curve"/>
      <point x="548" y="134"/>
      <point x="560" y="97"/>
      <point x="560" y="55" type="curve" smooth="yes"/>
      <point x="560" y="-64"/>
      <point x="460" y="-137"/>
    </contour>
    <contour>
      <point x="390" y="243" type="line"/>
      <point x="406" y="245"/>
      <point x="411" y="254"/>
      <point x="411" y="267" type="curve" smooth="yes"/>
      <point x="411" y="288"/>
      <point x="389" y="293"/>
      <point x="325" y="315" type="curve" smooth="yes"/>
      <point x="253" y="341" type="line"/>
      <point x="236" y="338"/>
      <point x="231" y="330"/>
      <point x="231" y="317" type="curve" smooth="yes"/>
      <point x="231" y="297"/>
      <point x="258" y="290"/>
      <point x="317" y="269" type="curve" smooth="yes"/>
    </contour>
  </outline>
</glyph>
<glyph name="dieresis" format="2">
  <advance width="400"/>
  <unicode hex="00A8"/>
  <outline>
    <contour>
      <point x="87" y="552" type="curve" smooth="yes"/>
      <point x="30" y="552"/>
      <point x="-15" y="596"/>
      <point x="-15" y="651" type="curve" smooth="yes"/>
      <point x="-15" y="706"/>
      <point x="30" y="750"/>
      <point x="87" y="750" type="curve" smooth="yes"/>
      <point x="144" y="750"/>
      <point x="190" y="706"/>
      <point x="190" y="651" type="curve" smooth="yes"/>
      <point x="190" y="596"/>
      <point x="144" y="552"/>
    </contour>
    <contour>
      <point x="312" y="552" type="curve" smooth="yes"/>
      <point x="255" y="552"/>
      <point x="211" y="596"/>
      <point x="211" y="651" type="curve" smooth="yes"/>
      <point x="211" y="706"/>
      <point x="255" y="750"/>
      <point x="312" y="750" type="curve" smooth="yes"/>
      <point x="370" y="750"/>
      <point x="415" y="706"/>
      <point x="415" y="651" type="curve" smooth="yes"/>
      <point x="415" y="596"/>
      <point x="370" y="552"/>
    </contour>
  </outline>
</glyph>
<glyph name="copyright" format="2">
  <advance width="842"/>
  <unicode hex="00A9"/>
  <outline>
    <contour>
      <point x="431" y="149" type="curve" smooth="yes"/>
      <point x="277" y="149"/>
      <point x="209" y="231"/>
      <point x="209" y="354" type="curve" smooth="yes"/>
      <point x="209" y="362" type="line" smooth="yes"/>
      <point x="209" y="488"/>
      <point x="302" y="566"/>
      <point x="424" y="566" type="curve" smooth="yes"/>
      <point x="539" y="566"/>
      <point x="614" y="516"/>
      <point x="623" y="400" type="curve"/>
      <point x="468" y="400" type="line"/>
      <point x="466" y="430"/>
      <point x="451" y="448"/>
      <point x="424" y="448" type="curve" smooth="yes"/>
      <point x="388" y="448"/>
      <point x="367" y="421"/>
      <point x="367" y="362" type="curve" smooth="yes"/>
      <point x="367" y="355" type="line" smooth="yes"/>
      <point x="367" y="298"/>
      <point x="387" y="268"/>
      <point x="427" y="268" type="curve" smooth="yes"/>
      <point x="455" y="268"/>
      <point x="476" y="283"/>
      <point x="479" y="317" type="curve"/>
      <point x="628" y="317" type="line"/>
      <point x="624" y="208"/>
      <point x="543" y="149"/>
    </contour>
    <contour>
      <point x="420" y="30" type="curve" smooth="yes"/>
      <point x="600" y="30"/>
      <point x="744" y="162"/>
      <point x="744" y="359" type="curve" smooth="yes"/>
      <point x="744" y="553"/>
      <point x="604" y="685"/>
      <point x="422" y="685" type="curve" smooth="yes"/>
      <point x="238" y="685"/>
      <point x="98" y="552"/>
      <point x="98" y="357" type="curve" smooth="yes"/>
      <point x="98" y="160"/>
      <point x="242" y="30"/>
    </contour>
    <contour>
      <point x="420" y="-25" type="curve" smooth="yes"/>
      <point x="203" y="-25"/>
      <point x="28" y="140"/>
      <point x="28" y="357" type="curve" smooth="yes"/>
      <point x="28" y="571"/>
      <point x="202" y="740"/>
      <point x="422" y="740" type="curve" smooth="yes"/>
      <point x="645" y="740"/>
      <point x="814" y="572"/>
      <point x="814" y="359" type="curve" smooth="yes"/>
      <point x="814" y="141"/>
      <point x="640" y="-25"/>
    </contour>
  </outline>
</glyph>
<glyph name="ordfeminine" format="2">
  <advance width="516"/>
  <unicode hex="00AA"/>
  <outline>
    <contour>
      <point x="167" y="286" type="curve" smooth="yes"/>
      <point x="94" y="286"/>
      <point x="26" y="322"/>
      <point x="26" y="412" type="curve" smooth="yes"/>
      <point x="26" y="510"/>
      <point x="91" y="545"/>
      <point x="249" y="545" type="curve" smooth="yes"/>
      <point x="280" y="545" type="line"/>
      <point x="280" y="554" type="line" smooth="yes"/>
      <point x="280" y="573"/>
      <point x="277" y="590"/>
      <point x="252" y="590" type="curve" smooth="yes"/>
      <point x="229" y="590"/>
      <point x="224" y="569"/>
      <point x="223" y="558" type="curve"/>
      <point x="39" y="558" type="line"/>
      <point x="45" y="661"/>
      <point x="124" y="723"/>
      <point x="262" y="723" type="curve" smooth="yes"/>
      <point x="403" y="723"/>
      <point x="476" y="666"/>
      <point x="476" y="561" type="curve" smooth="yes"/>
      <point x="476" y="298" type="line"/>
      <point x="285" y="298" type="line"/>
      <point x="285" y="343" type="line"/>
      <point x="273" y="320"/>
      <point x="238" y="286"/>
    </contour>
    <contour>
      <point x="247" y="415" type="curve" smooth="yes"/>
      <point x="267" y="415"/>
      <point x="280" y="427"/>
      <point x="280" y="442" type="curve" smooth="yes"/>
      <point x="280" y="453" type="line"/>
      <point x="255" y="453" type="line" smooth="yes"/>
      <point x="224" y="453"/>
      <point x="220" y="445"/>
      <point x="220" y="433" type="curve" smooth="yes"/>
      <point x="220" y="420"/>
      <point x="232" y="415"/>
    </contour>
  </outline>
</glyph>
<glyph name="guillemotleft" format="2">
  <advance width="470"/>
  <unicode hex="00AB"/>
  <outline>
    <contour>
      <point x="138" y="63" type="line"/>
      <point x="16" y="261" type="line"/>
      <point x="138" y="459" type="line"/>
      <point x="270" y="459" type="line"/>
      <point x="153" y="261" type="line"/>
      <point x="270" y="63" type="line"/>
    </contour>
    <contour>
      <point x="319" y="63" type="line"/>
      <point x="197" y="261" type="line"/>
      <point x="319" y="459" type="line"/>
      <point x="451" y="459" type="line"/>
      <point x="334" y="261" type="line"/>
      <point x="451" y="63" type="line"/>
    </contour>
  </outline>
</glyph>
<glyph name="registered" format="2">
  <advance width="518"/>
  <unicode hex="00AE"/>
  <outline>
    <contour>
      <point x="169" y="396" type="line"/>
      <point x="169" y="615" type="line"/>
      <point x="265" y="615" type="line" smooth="yes"/>
      <point x="330" y="615"/>
      <point x="360" y="589"/>
      <point x="360" y="541" type="curve" smooth="yes"/>
      <point x="360" y="540" type="line" smooth="yes"/>
      <point x="360" y="511"/>
      <point x="347" y="494"/>
      <point x="328" y="483" type="curve"/>
      <point x="373" y="396" type="line"/>
      <point x="290" y="396" type="line"/>
      <point x="256" y="466" type="line"/>
      <point x="250" y="466" type="line"/>
      <point x="250" y="396" type="line"/>
    </contour>
    <contour>
      <point x="250" y="517" type="line"/>
      <point x="259" y="517" type="line" smooth="yes"/>
      <point x="275" y="517"/>
      <point x="282" y="523"/>
      <point x="282" y="536" type="curve" smooth="yes"/>
      <point x="282" y="537" type="line" smooth="yes"/>
      <point x="282" y="549"/>
      <point x="275" y="554"/>
      <point x="259" y="554" type="curve" smooth="yes"/>
      <point x="250" y="554" type="line"/>
    </contour>
    <contour>
      <point x="259" y="320" type="curve" smooth="yes"/>
      <point x="365" y="320"/>
      <point x="446" y="395"/>
      <point x="446" y="503" type="curve" smooth="yes"/>
      <point x="446" y="611"/>
      <point x="368" y="686"/>
      <point x="259" y="686" type="curve" smooth="yes"/>
      <point x="150" y="686"/>
      <point x="72" y="610"/>
      <point x="72" y="502" type="curve" smooth="yes"/>
      <point x="72" y="393"/>
      <point x="154" y="320"/>
    </contour>
    <contour>
      <point x="259" y="280" type="curve" smooth="yes"/>
      <point x="130" y="280"/>
      <point x="26" y="376"/>
      <point x="26" y="502" type="curve" smooth="yes"/>
      <point x="26" y="626"/>
      <point x="129" y="726"/>
      <point x="259" y="726" type="curve" smooth="yes"/>
      <point x="391" y="726"/>
      <point x="492" y="627"/>
      <point x="492" y="503" type="curve" smooth="yes"/>
      <point x="492" y="377"/>
      <point x="389" y="280"/>
    </contour>
  </outline>
</glyph>
<glyph name="degree" format="2">
  <advance width="466"/>
  <unicode hex="00B0"/>
  <outline>
    <contour>
      <point x="234" y="444" type="curve" smooth="yes"/>
      <point x="287" y="444"/>
      <point x="325" y="488"/>
      <point x="325" y="545" type="curve" smooth="yes"/>
      <point x="325" y="604"/>
      <point x="287" y="648"/>
      <point x="234" y="648" type="curve" smooth="yes"/>
      <point x="179" y="648"/>
      <point x="141" y="604"/>
      <point x="141" y="545" type="curve" smooth="yes"/>
      <point x="141" y="488"/>
      <point x="179" y="444"/>
    </contour>
    <contour>
      <point x="234" y="368" type="curve" smooth="yes"/>
      <point x="132" y="368"/>
      <point x="50" y="449"/>
      <point x="50" y="545" type="curve" smooth="yes"/>
      <point x="50" y="643"/>
      <point x="132" y="724"/>
      <point x="234" y="724" type="curve" smooth="yes"/>
      <point x="334" y="724"/>
      <point x="416" y="643"/>
      <point x="416" y="545" type="curve" smooth="yes"/>
      <point x="416" y="449"/>
      <point x="334" y="368"/>
    </contour>
  </outline>
</glyph>
<glyph name="twosuperior" format="2">
  <advance width="388"/>
  <unicode hex="00B2"/>
  <outline>
    <contour>
      <point x="3" y="322" type="line"/>
      <point x="3" y="342" type="line"/>
      <point x="132" y="473" type="line" smooth="yes"/>
      <point x="178" y="520"/>
      <point x="207" y="549"/>
      <point x="207" y="577" type="curve" smooth="yes"/>
      <point x="207" y="592"/>
      <point x="201" y="601"/>
      <point x="185" y="601" type="curve" smooth="yes"/>
      <point x="169" y="601"/>
      <point x="159" y="586"/>
      <point x="156" y="555" type="curve"/>
      <point x="5" y="555" type="line"/>
      <point x="8" y="666"/>
      <point x="80" y="721"/>
      <point x="194" y="721" type="curve" smooth="yes"/>
      <point x="316" y="721"/>
      <point x="369" y="662"/>
      <point x="369" y="591" type="curve" smooth="yes"/>
      <point x="369" y="536"/>
      <point x="334" y="496"/>
      <point x="287" y="453" type="curve" smooth="yes"/>
      <point x="272" y="439" type="line"/>
      <point x="370" y="439" type="line"/>
      <point x="370" y="322" type="line"/>
    </contour>
  </outline>
</glyph>
<glyph name="threesuperior" format="2">
  <advance width="406"/>
  <unicode hex="00B3"/>
  <outline>
    <contour>
      <point x="204" y="314" type="curve" smooth="yes"/>
      <point x="67" y="314"/>
      <point x="21" y="376"/>
      <point x="16" y="459" type="curve"/>
      <point x="161" y="459" type="line"/>
      <point x="163" y="441"/>
      <point x="173" y="427"/>
      <point x="194" y="427" type="curve" smooth="yes"/>
      <point x="210" y="427"/>
      <point x="220" y="436"/>
      <point x="220" y="451" type="curve" smooth="yes"/>
      <point x="220" y="466"/>
      <point x="210" y="474"/>
      <point x="184" y="474" type="curve" smooth="yes"/>
      <point x="151" y="474" type="line"/>
      <point x="151" y="562" type="line"/>
      <point x="184" y="562" type="line" smooth="yes"/>
      <point x="212" y="562"/>
      <point x="223" y="571"/>
      <point x="223" y="588" type="curve" smooth="yes"/>
      <point x="223" y="601"/>
      <point x="215" y="609"/>
      <point x="198" y="609" type="curve" smooth="yes"/>
      <point x="183" y="609"/>
      <point x="171" y="599"/>
      <point x="167" y="579" type="curve"/>
      <point x="23" y="579" type="line"/>
      <point x="29" y="661"/>
      <point x="85" y="721"/>
      <point x="203" y="721" type="curve" smooth="yes"/>
      <point x="313" y="721"/>
      <point x="379" y="683"/>
      <point x="379" y="610" type="curve" smooth="yes"/>
      <point x="379" y="566"/>
      <point x="353" y="537"/>
      <point x="306" y="526" type="curve"/>
      <point x="353" y="520"/>
      <point x="386" y="488"/>
      <point x="386" y="444" type="curve" smooth="yes"/>
      <point x="386" y="368"/>
      <point x="329" y="314"/>
    </contour>
  </outline>
</glyph>
<glyph name="acute" format="2">
  <advance width="400"/>
  <unicode hex="00B4"/>
  <outline>
    <contour>
      <point x="112" y="568" type="line"/>
      <point x="161" y="743" type="line"/>
      <point x="380" y="743" type="line"/>
      <point x="275" y="568" type="line"/>
    </contour>
  </outline>
</glyph>
<glyph name="paragraph" format="2">
  <advance width="532"/>
  <unicode hex="00B6"/>
  <outline>
    <contour>
      <point x="246" y="-100" type="line"/>
      <point x="246" y="320" type="line"/>
      <point x="241" y="320" type="line" smooth="yes"/>
      <point x="105" y="320"/>
      <point x="19" y="384"/>
      <point x="19" y="514" type="curve" smooth="yes"/>
      <point x="19" y="650"/>
      <point x="109" y="715"/>
      <point x="241" y="715" type="curve" smooth="yes"/>
      <point x="474" y="715" type="line"/>
      <point x="474" y="-100" type="line"/>
      <point x="395" y="-100" type="line"/>
      <point x="395" y="648" type="line"/>
      <point x="324" y="648" type="line"/>
      <point x="324" y="-100" type="line"/>
    </contour>
  </outline>
</glyph>
<glyph name="periodcentered" format="2">
  <advance width="308"/>
  <unicode hex="00B7"/>
  <outline>
    <contour>
      <point x="152" y="206" type="curve" smooth="yes"/>
      <point x="81" y="206"/>
      <point x="30" y="259"/>
      <point x="30" y="326" type="curve" smooth="yes"/>
      <point x="30" y="392"/>
      <point x="81" y="446"/>
      <point x="152" y="446" type="curve" smooth="yes"/>
      <point x="225" y="446"/>
      <point x="278" y="392"/>
      <point x="278" y="326" type="curve" smooth="yes"/>
      <point x="278" y="259"/>
      <point x="225" y="206"/>
    </contour>
  </outline>
</glyph>
<glyph name="cedilla" format="2">
  <advance width="400"/>
  <unicode hex="00B8"/>
  <outline>
    <contour>
      <point x="202" y="-232" type="curve" smooth="yes"/>
      <point x="122" y="-232"/>
      <point x="72" y="-199"/>
      <point x="61" y="-135" type="curve"/>
      <point x="161" y="-135" type="line"/>
      <point x="164" y="-147"/>
      <point x="172" y="-158"/>
      <point x="193" y="-158" type="curve" smooth="yes"/>
      <point x="211" y="-158"/>
      <point x="221" y="-147"/>
      <point x="221" y="-131" type="curve" smooth="yes"/>
      <point x="221" y="-115"/>
      <point x="211" y="-102"/>
      <point x="189" y="-102" type="curve" smooth="yes"/>
      <point x="172" y="-102"/>
      <point x="162" y="-108"/>
      <point x="155" y="-115" type="curve"/>
      <point x="113" y="-71" type="line"/>
      <point x="163" y="0" type="line"/>
      <point x="245" y="0" type="line"/>
      <point x="214" y="-41" type="line"/>
      <point x="278" y="-35"/>
      <point x="333" y="-63"/>
      <point x="333" y="-130" type="curve" smooth="yes"/>
      <point x="333" y="-193"/>
      <point x="284" y="-232"/>
    </contour>
  </outline>
</glyph>
<glyph name="ordmasculine" format="2">
  <advance width="537"/>
  <unicode hex="00BA"/>
  <outline>
    <contour>
      <point x="269" y="429" type="curve" smooth="yes"/>
      <point x="301" y="429"/>
      <point x="310" y="451"/>
      <point x="310" y="503" type="curve" smooth="yes"/>
      <point x="310" y="509" type="line" smooth="yes"/>
      <point x="310" y="558"/>
      <point x="301" y="580"/>
      <point x="269" y="580" type="curve" smooth="yes"/>
      <point x="240" y="580"/>
      <point x="227" y="561"/>
      <point x="227" y="511" type="curve" smooth="yes"/>
      <point x="227" y="505" type="line" smooth="yes"/>
      <point x="227" y="451"/>
      <point x="237" y="429"/>
    </contour>
    <contour>
      <point x="268" y="286" type="curve" smooth="yes"/>
      <point x="134" y="286"/>
      <point x="26" y="355"/>
      <point x="26" y="497" type="curve" smooth="yes"/>
      <point x="26" y="503" type="line" smooth="yes"/>
      <point x="26" y="643"/>
      <point x="134" y="723"/>
      <point x="269" y="723" type="curve" smooth="yes"/>
      <point x="404" y="723"/>
      <point x="511" y="647"/>
      <point x="511" y="510" type="curve" smooth="yes"/>
      <point x="511" y="504" type="line" smooth="yes"/>
      <point x="511" y="363"/>
      <point x="402" y="286"/>
    </contour>
  </outline>
</glyph>
<glyph name="guillemotright" format="2">
  <advance width="470"/>
  <unicode hex="00BB"/>
  <outline>
    <contour>
      <point x="19" y="63" type="line"/>
      <point x="136" y="261" type="line"/>
      <point x="19" y="459" type="line"/>
      <point x="151" y="459" type="line"/>
      <point x="273" y="261" type="line"/>
      <point x="151" y="63" type="line"/>
    </contour>
    <contour>
      <point x="200" y="63" type="line"/>
      <point x="317" y="261" type="line"/>
      <point x="200" y="459" type="line"/>
      <point x="332" y="459" type="line"/>
      <point x="454" y="261" type="line"/>
      <point x="332" y="63" type="line"/>
    </contour>
  </outline>
</glyph>
<glyph name="onequarter" format="2">
  <advance width="856"/>
  <unicode hex="00BC"/>
  <outline>
    <contour>
      <point x="104" y="322" type="line"/>
      <point x="104" y="555" type="line"/>
      <point x="21" y="513" type="line"/>
      <point x="21" y="645" type="line"/>
      <point x="129" y="715" type="line"/>
      <point x="271" y="715" type="line"/>
      <point x="271" y="322" type="line"/>
    </contour>
    <contour>
      <point x="75" y="0" type="line"/>
      <point x="662" y="715" type="line"/>
      <point x="771" y="715" type="line"/>
      <point x="184" y="0" type="line"/>
    </contour>
    <contour>
      <point x="623" y="0" type="line"/>
      <point x="623" y="70" type="line"/>
      <point x="428" y="70" type="line"/>
      <point x="428" y="132" type="line"/>
      <point x="586" y="393" type="line"/>
      <point x="784" y="393" type="line"/>
      <point x="784" y="177" type="line"/>
      <point x="833" y="177" type="line"/>
      <point x="833" y="70" type="line"/>
      <point x="784" y="70" type="line"/>
      <point x="784" y="0" type="line"/>
    </contour>
    <contour>
      <point x="564" y="177" type="line"/>
      <point x="628" y="177" type="line"/>
      <point x="628" y="287" type="line"/>
    </contour>
  </outline>
</glyph>
<glyph name="onehalf" format="2">
  <advance width="874"/>
  <unicode hex="00BD"/>
  <outline>
    <contour>
      <point x="104" y="322" type="line"/>
      <point x="104" y="555" type="line"/>
      <point x="21" y="513" type="line"/>
      <point x="21" y="645" type="line"/>
      <point x="129" y="715" type="line"/>
      <point x="271" y="715" type="line"/>
      <point x="271" y="322" type="line"/>
    </contour>
    <contour>
      <point x="62" y="0" type="line"/>
      <point x="649" y="715" type="line"/>
      <point x="758" y="715" type="line"/>
      <point x="171" y="0" type="line"/>
    </contour>
    <contour>
      <point x="486" y="0" type="line"/>
      <point x="486" y="20" type="line"/>
      <point x="615" y="151" type="line" smooth="yes"/>
      <point x="661" y="198"/>
      <point x="690" y="227"/>
      <point x="690" y="255" type="curve" smooth="yes"/>
      <point x="690" y="270"/>
      <point x="684" y="279"/>
      <point x="668" y="279" type="curve" smooth="yes"/>
      <point x="652" y="279"/>
      <point x="642" y="264"/>
      <point x="639" y="233" type="curve"/>
      <point x="488" y="233" type="line"/>
      <point x="491" y="344"/>
      <point x="563" y="399"/>
      <point x="677" y="399" type="curve" smooth="yes"/>
      <point x="799" y="399"/>
      <point x="852" y="340"/>
      <point x="852" y="269" type="curve" smooth="yes"/>
      <point x="852" y="214"/>
      <point x="817" y="174"/>
      <point x="770" y="131" type="curve" smooth="yes"/>
      <point x="755" y="117" type="line"/>
      <point x="853" y="117" type="line"/>
      <point x="853" y="0" type="line"/>
    </contour>
  </outline>
</glyph>
<glyph name="threequarters" format="2">
  <advance width="900"/>
  <unicode hex="00BE"/>
  <outline>
    <contour>
      <point x="207" y="314" type="curve" smooth="yes"/>
      <point x="70" y="314"/>
      <point x="24" y="376"/>
      <point x="19" y="459" type="curve"/>
      <point x="164" y="459" type="line"/>
      <point x="166" y="441"/>
      <point x="176" y="427"/>
      <point x="197" y="427" type="curve" smooth="yes"/>
      <point x="213" y="427"/>
      <point x="223" y="436"/>
      <point x="223" y="451" type="curve" smooth="yes"/>
      <point x="223" y="466"/>
      <point x="213" y="474"/>
      <point x="187" y="474" type="curve" smooth="yes"/>
      <point x="154" y="474" type="line"/>
      <point x="154" y="562" type="line"/>
      <point x="187" y="562" type="line" smooth="yes"/>
      <point x="215" y="562"/>
      <point x="226" y="571"/>
      <point x="226" y="588" type="curve" smooth="yes"/>
      <point x="226" y="601"/>
      <point x="218" y="609"/>
      <point x="201" y="609" type="curve" smooth="yes"/>
      <point x="186" y="609"/>
      <point x="174" y="599"/>
      <point x="170" y="579" type="curve"/>
      <point x="26" y="579" type="line"/>
      <point x="32" y="661"/>
      <point x="88" y="721"/>
      <point x="206" y="721" type="curve" smooth="yes"/>
      <point x="316" y="721"/>
      <point x="382" y="683"/>
      <point x="382" y="610" type="curve" smooth="yes"/>
      <point x="382" y="566"/>
      <point x="356" y="537"/>
      <point x="309" y="526" type="curve"/>
      <point x="356" y="520"/>
      <point x="389" y="488"/>
      <point x="389" y="444" type="curve" smooth="yes"/>
      <point x="389" y="368"/>
      <point x="332" y="314"/>
    </contour>
    <contour>
      <point x="129" y="0" type="line"/>
      <point x="716" y="715" type="line"/>
      <point x="825" y="715" type="line"/>
      <point x="238" y="0" type="line"/>
    </contour>
    <contour>
      <point x="667" y="0" type="line"/>
      <point x="667" y="70" type="line"/>
      <point x="472" y="70" type="line"/>
      <point x="472" y="132" type="line"/>
      <point x="630" y="393" type="line"/>
      <point x="828" y="393" type="line"/>
      <point x="828" y="177" type="line"/>
      <point x="877" y="177" type="line"/>
      <point x="877" y="70" type="line"/>
      <point x="828" y="70" type="line"/>
      <point x="828" y="0" type="line"/>
    </contour>
    <contour>
      <point x="608" y="177" type="line"/>
      <point x="672" y="177" type="line"/>
      <point x="672" y="287" type="line"/>
    </contour>
  </outline>
</glyph>
<glyph name="questiondown" format="2">
  <advance width="591"/>
  <unicode hex="00BF"/>
  <outline>
    <contour>
      <point x="427" y="347" type="line"/>
      <point x="427" y="344" type="line" smooth="yes"/>
      <point x="427" y="270"/>
      <point x="376" y="223"/>
      <point x="332" y="182" type="curve" smooth="yes"/>
      <point x="300" y="152"/>
      <point x="271" y="126"/>
      <point x="271" y="97" type="curve" smooth="yes"/>
      <point x="271" y="69"/>
      <point x="283" y="58"/>
      <point x="308" y="58" type="curve" smooth="yes"/>
      <point x="335" y="58"/>
      <point x="352" y="82"/>
      <point x="359" y="124" type="curve"/>
      <point x="583" y="124" type="line"/>
      <point x="579" y="-45"/>
      <point x="458" y="-127"/>
      <point x="288" y="-127" type="curve" smooth="yes"/>
      <point x="124" y="-127"/>
      <point x="20" y="-64"/>
      <point x="20" y="73" type="curve" smooth="yes"/>
      <point x="20" y="134"/>
      <point x="44" y="178"/>
      <point x="80" y="214" type="curve" smooth="yes"/>
      <point x="132" y="266"/>
      <point x="195" y="304"/>
      <point x="209" y="347" type="curve"/>
    </contour>
    <contour>
      <point x="317" y="613" type="curve" smooth="yes"/>
      <point x="390" y="613"/>
      <point x="447" y="561"/>
      <point x="447" y="496" type="curve" smooth="yes"/>
      <point x="447" y="431"/>
      <point x="390" y="378"/>
      <point x="317" y="378" type="curve" smooth="yes"/>
      <point x="246" y="378"/>
      <point x="189" y="431"/>
      <point x="189" y="496" type="curve" smooth="yes"/>
      <point x="189" y="561"/>
      <point x="246" y="613"/>
    </contour>
  </outline>
</glyph>
<glyph name="Acircumflex" format="2">
  <advance width="784"/>
  <unicode hex="00C2"/>
  <outline>
    <contour>
      <point x="1" y="0" type="line"/>
      <point x="221" y="715" type="line"/>
      <point x="564" y="715" type="line"/>
      <point x="783" y="0" type="line"/>
      <point x="499" y="0" type="line"/>
      <point x="475" y="95" type="line"/>
      <point x="273" y="95" type="line"/>
      <point x="249" y="0" type="line"/>
    </contour>
    <contour>
      <point x="181" y="753" type="line"/>
      <point x="298" y="908" type="line"/>
      <point x="487" y="908" type="line"/>
      <point x="598" y="753" type="line"/>
      <point x="433" y="753" type="line"/>
      <point x="388" y="797" type="line"/>
      <point x="343" y="753" type="line"/>
    </contour>
    <contour>
      <point x="375" y="501" type="line"/>
      <point x="317" y="273" type="line"/>
      <point x="431" y="273" type="line"/>
    </contour>
  </outline>
</glyph>
<glyph name="Atilde" format="2">
  <advance width="784"/>
  <unicode hex="00C3"/>
  <outline>
    <contour>
      <point x="1" y="0" type="line"/>
      <point x="221" y="715" type="line"/>
      <point x="564" y="715" type="line"/>
      <point x="783" y="0" type="line"/>
      <point x="499" y="0" type="line"/>
      <point x="475" y="95" type="line"/>
      <point x="273" y="95" type="line"/>
      <point x="249" y="0" type="line"/>
    </contour>
    <contour>
      <point x="460" y="750" type="curve" smooth="yes"/>
      <point x="397" y="750"/>
      <point x="366" y="779"/>
      <point x="335" y="779" type="curve" smooth="yes"/>
      <point x="320" y="779"/>
      <point x="310" y="768"/>
      <point x="308" y="753" type="curve"/>
      <point x="185" y="753" type="line"/>
      <point x="191" y="875"/>
      <point x="250" y="925"/>
      <point x="318" y="925" type="curve" smooth="yes"/>
      <point x="377" y="925"/>
      <point x="411" y="896"/>
      <point x="446" y="896" type="curve" smooth="yes"/>
      <point x="463" y="896"/>
      <point x="470" y="906"/>
      <point x="473" y="922" type="curve"/>
      <point x="596" y="922" type="line"/>
      <point x="589" y="800"/>
      <point x="525" y="750"/>
    </contour>
    <contour>
      <point x="375" y="501" type="line"/>
      <point x="317" y="273" type="line"/>
      <point x="431" y="273" type="line"/>
    </contour>
  </outline>
</glyph>
<glyph name="Adieresis" format="2">
  <advance width="784"/>
  <unicode hex="00C4"/>
  <outline>
    <contour>
      <point x="1" y="0" type="line"/>
      <point x="221" y="715" type="line"/>
      <point x="564" y="715" type="line"/>
      <point x="783" y="0" type="line"/>
      <point x="499" y="0" type="line"/>
      <point x="475" y="95" type="line"/>
      <point x="273" y="95" type="line"/>
      <point x="249" y="0" type="line"/>
    </contour>
    <contour>
      <point x="273" y="742" type="curve" smooth="yes"/>
      <point x="216" y="742"/>
      <point x="171" y="786"/>
      <point x="171" y="841" type="curve" smooth="yes"/>
      <point x="171" y="896"/>
      <point x="216" y="940"/>
      <point x="273" y="940" type="curve" smooth="yes"/>
      <point x="330" y="940"/>
      <point x="376" y="896"/>
      <point x="376" y="841" type="curve" smooth="yes"/>
      <point x="376" y="786"/>
      <point x="330" y="742"/>
    </contour>
    <contour>
      <point x="506" y="742" type="curve" smooth="yes"/>
      <point x="449" y="742"/>
      <point x="405" y="786"/>
      <point x="405" y="841" type="curve" smooth="yes"/>
      <point x="405" y="896"/>
      <point x="449" y="940"/>
      <point x="506" y="940" type="curve" smooth="yes"/>
      <point x="564" y="940"/>
      <point x="609" y="896"/>
      <point x="609" y="841" type="curve" smooth="yes"/>
      <point x="609" y="786"/>
      <point x="564" y="742"/>
    </contour>
    <contour>
      <point x="375" y="501" type="line"/>
      <point x="317" y="273" type="line"/>
      <point x="431" y="273" type="line"/>
    </contour>
  </outline>
</glyph>
<glyph name="Aring" format="2">
  <advance width="784"/>
  <unicode hex="00C5"/>
  <outline>
    <contour>
      <point x="1" y="0" type="line"/>
      <point x="221" y="715" type="line"/>
      <point x="564" y="715" type="line"/>
      <point x="783" y="0" type="line"/>
      <point x="499" y="0" type="line"/>
      <point x="475" y="95" type="line"/>
      <point x="273" y="95" type="line"/>
      <point x="249" y="0" type="line"/>
    </contour>
    <contour>
      <point x="390" y="737" type="curve" smooth="yes"/>
      <point x="321" y="737"/>
      <point x="264" y="792"/>
      <point x="264" y="859" type="curve" smooth="yes"/>
      <point x="264" y="926"/>
      <point x="321" y="981"/>
      <point x="390" y="981" type="curve" smooth="yes"/>
      <point x="459" y="981"/>
      <point x="516" y="926"/>
      <point x="516" y="859" type="curve" smooth="yes"/>
      <point x="516" y="792"/>
      <point x="459" y="737"/>
    </contour>
    <contour>
      <point x="375" y="501" type="line"/>
      <point x="317" y="273" type="line"/>
      <point x="431" y="273" type="line"/>
    </contour>
    <contour>
      <point x="390" y="812" type="curve" smooth="yes"/>
      <point x="415" y="812"/>
      <point x="433" y="831"/>
      <point x="433" y="859" type="curve" smooth="yes"/>
      <point x="433" y="887"/>
      <point x="415" y="906"/>
      <point x="390" y="906" type="curve" smooth="yes"/>
      <point x="364" y="906"/>
      <point x="347" y="887"/>
      <point x="347" y="859" type="curve" smooth="yes"/>
      <point x="347" y="831"/>
      <point x="364" y="812"/>
    </contour>
  </outline>
</glyph>
<glyph name="Ccedilla" format="2">
  <advance width="774"/>
  <unicode hex="00C7"/>
  <outline>
    <contour>
      <point x="379" y="-232" type="curve" smooth="yes"/>
      <point x="299" y="-232"/>
      <point x="249" y="-199"/>
      <point x="238" y="-135" type="curve"/>
      <point x="338" y="-135" type="line"/>
      <point x="341" y="-147"/>
      <point x="349" y="-158"/>
      <point x="370" y="-158" type="curve" smooth="yes"/>
      <point x="388" y="-158"/>
      <point x="398" y="-147"/>
      <point x="398" y="-131" type="curve" smooth="yes"/>
      <point x="398" y="-115"/>
      <point x="388" y="-102"/>
      <point x="366" y="-102" type="curve" smooth="yes"/>
      <point x="349" y="-102"/>
      <point x="339" y="-108"/>
      <point x="332" y="-115" type="curve"/>
      <point x="290" y="-71" type="line"/>
      <point x="333" y="-9" type="line"/>
      <point x="117" y="17"/>
      <point x="20" y="156"/>
      <point x="20" y="353" type="curve" smooth="yes"/>
      <point x="20" y="361" type="line" smooth="yes"/>
      <point x="20" y="585"/>
      <point x="184" y="726"/>
      <point x="400" y="726" type="curve" smooth="yes"/>
      <point x="605" y="726"/>
      <point x="736" y="636"/>
      <point x="754" y="430" type="curve"/>
      <point x="478" y="430" type="line"/>
      <point x="475" y="484"/>
      <point x="447" y="516"/>
      <point x="401" y="516" type="curve" smooth="yes"/>
      <point x="338" y="516"/>
      <point x="301" y="466"/>
      <point x="301" y="362" type="curve" smooth="yes"/>
      <point x="301" y="354" type="line" smooth="yes"/>
      <point x="301" y="253"/>
      <point x="337" y="199"/>
      <point x="406" y="199" type="curve" smooth="yes"/>
      <point x="455" y="199"/>
      <point x="491" y="225"/>
      <point x="497" y="285" type="curve"/>
      <point x="763" y="285" type="line"/>
      <point x="755" y="90"/>
      <point x="611" y="-14"/>
      <point x="413" y="-14" type="curve" smooth="yes"/>
      <point x="411" y="-14" type="line"/>
      <point x="391" y="-41" type="line"/>
      <point x="455" y="-35"/>
      <point x="510" y="-63"/>
      <point x="510" y="-130" type="curve" smooth="yes"/>
      <point x="510" y="-193"/>
      <point x="461" y="-232"/>
    </contour>
  </outline>
</glyph>
<glyph name="Ecircumflex" format="2">
  <advance width="635"/>
  <unicode hex="00CA"/>
  <outline>
    <contour>
      <point x="58" y="0" type="line"/>
      <point x="58" y="715" type="line"/>
      <point x="592" y="715" type="line"/>
      <point x="592" y="512" type="line"/>
      <point x="323" y="512" type="line"/>
      <point x="323" y="451" type="line"/>
      <point x="535" y="451" type="line"/>
      <point x="535" y="267" type="line"/>
      <point x="323" y="267" type="line"/>
      <point x="323" y="203" type="line"/>
      <point x="607" y="203" type="line"/>
      <point x="607" y="0" type="line"/>
    </contour>
    <contour>
      <point x="124" y="753" type="line"/>
      <point x="241" y="908" type="line"/>
      <point x="430" y="908" type="line"/>
      <point x="541" y="753" type="line"/>
      <point x="376" y="753" type="line"/>
      <point x="331" y="797" type="line"/>
      <point x="286" y="753" type="line"/>
    </contour>
  </outline>
</glyph>
<glyph name="Edieresis" format="2">
  <advance width="635"/>
  <unicode hex="00CB"/>
  <outline>
    <contour>
      <point x="58" y="0" type="line"/>
      <point x="58" y="715" type="line"/>
      <point x="592" y="715" type="line"/>
      <point x="592" y="512" type="line"/>
      <point x="323" y="512" type="line"/>
      <point x="323" y="451" type="line"/>
      <point x="535" y="451" type="line"/>
      <point x="535" y="267" type="line"/>
      <point x="323" y="267" type="line"/>
      <point x="323" y="203" type="line"/>
      <point x="607" y="203" type="line"/>
      <point x="607" y="0" type="line"/>
    </contour>
    <contour>
      <point x="216" y="742" type="curve" smooth="yes"/>
      <point x="159" y="742"/>
      <point x="114" y="786"/>
      <point x="114" y="841" type="curve" smooth="yes"/>
      <point x="114" y="896"/>
      <point x="159" y="940"/>
      <point x="216" y="940" type="curve" smooth="yes"/>
      <point x="273" y="940"/>
      <point x="319" y="896"/>
      <point x="319" y="841" type="curve" smooth="yes"/>
      <point x="319" y="786"/>
      <point x="273" y="742"/>
    </contour>
    <contour>
      <point x="449" y="742" type="curve" smooth="yes"/>
      <point x="392" y="742"/>
      <point x="348" y="786"/>
      <point x="348" y="841" type="curve" smooth="yes"/>
      <point x="348" y="896"/>
      <point x="392" y="940"/>
      <point x="449" y="940" type="curve" smooth="yes"/>
      <point x="507" y="940"/>
      <point x="552" y="896"/>
      <point x="552" y="841" type="curve" smooth="yes"/>
      <point x="552" y="786"/>
      <point x="507" y="742"/>
    </contour>
  </outline>
</glyph>
<glyph name="Iacute" format="2">
  <advance width="391"/>
  <unicode hex="00CD"/>
  <outline>
    <contour>
      <point x="61" y="0" type="line"/>
      <point x="61" y="715" type="line"/>
      <point x="330" y="715" type="line"/>
      <point x="330" y="0" type="line"/>
    </contour>
    <contour>
      <point x="99" y="753" type="line"/>
      <point x="148" y="908" type="line"/>
      <point x="377" y="908" type="line"/>
      <point x="272" y="753" type="line"/>
    </contour>
  </outline>
</glyph>
<glyph name="Idieresis" format="2">
  <advance width="391"/>
  <unicode hex="00CF"/>
  <outline>
    <contour>
      <point x="61" y="0" type="line"/>
      <point x="61" y="715" type="line"/>
      <point x="330" y="715" type="line"/>
      <point x="330" y="0" type="line"/>
    </contour>
    <contour>
      <point x="78" y="742" type="curve" smooth="yes"/>
      <point x="21" y="742"/>
      <point x="-24" y="786"/>
      <point x="-24" y="841" type="curve" smooth="yes"/>
      <point x="-24" y="896"/>
      <point x="21" y="940"/>
      <point x="78" y="940" type="curve" smooth="yes"/>
      <point x="135" y="940"/>
      <point x="181" y="896"/>
      <point x="181" y="841" type="curve" smooth="yes"/>
      <point x="181" y="786"/>
      <point x="135" y="742"/>
    </contour>
    <contour>
      <point x="311" y="742" type="curve" smooth="yes"/>
      <point x="254" y="742"/>
      <point x="210" y="786"/>
      <point x="210" y="841" type="curve" smooth="yes"/>
      <point x="210" y="896"/>
      <point x="254" y="940"/>
      <point x="311" y="940" type="curve" smooth="yes"/>
      <point x="369" y="940"/>
      <point x="414" y="896"/>
      <point x="414" y="841" type="curve" smooth="yes"/>
      <point x="414" y="786"/>
      <point x="369" y="742"/>
    </contour>
  </outline>
</glyph>
<glyph name="Eth" format="2">
  <advance width="804"/>
  <unicode hex="00D0"/>
  <outline>
    <contour>
      <point x="27" y="272" type="line"/>
      <point x="27" y="447" type="line"/>
      <point x="76" y="447" type="line"/>
      <point x="76" y="715" type="line"/>
      <point x="372" y="715" type="line" smooth="yes"/>
      <point x="631" y="715"/>
      <point x="766" y="601"/>
      <point x="766" y="367" type="curve" smooth="yes"/>
      <point x="766" y="360" type="line" smooth="yes"/>
      <point x="766" y="124"/>
      <point x="626" y="0"/>
      <point x="373" y="0" type="curve" smooth="yes"/>
      <point x="76" y="0" type="line"/>
      <point x="76" y="272" type="line"/>
    </contour>
    <contour>
      <point x="337" y="203" type="line"/>
      <point x="364" y="203" type="line" smooth="yes"/>
      <point x="454" y="203"/>
      <point x="488" y="243"/>
      <point x="488" y="354" type="curve" smooth="yes"/>
      <point x="488" y="362" type="line" smooth="yes"/>
      <point x="488" y="483"/>
      <point x="448" y="512"/>
      <point x="362" y="512" type="curve" smooth="yes"/>
      <point x="337" y="512" type="line"/>
      <point x="337" y="447" type="line"/>
      <point x="412" y="447" type="line"/>
      <point x="412" y="272" type="line"/>
      <point x="337" y="272" type="line"/>
    </contour>
  </outline>
</glyph>
<glyph name="Ntilde" format="2">
  <advance width="805"/>
  <unicode hex="00D1"/>
  <outline>
    <contour>
      <point x="58" y="0" type="line"/>
      <point x="58" y="715" type="line"/>
      <point x="355" y="715" type="line"/>
      <point x="510" y="383" type="line"/>
      <point x="510" y="715" type="line"/>
      <point x="746" y="715" type="line"/>
      <point x="746" y="0" type="line"/>
      <point x="493" y="0" type="line"/>
      <point x="295" y="390" type="line"/>
      <point x="295" y="0" type="line"/>
    </contour>
    <contour>
      <point x="495" y="750" type="curve" smooth="yes"/>
      <point x="432" y="750"/>
      <point x="401" y="779"/>
      <point x="370" y="779" type="curve" smooth="yes"/>
      <point x="355" y="779"/>
      <point x="345" y="768"/>
      <point x="343" y="753" type="curve"/>
      <point x="220" y="753" type="line"/>
      <point x="226" y="875"/>
      <point x="285" y="925"/>
      <point x="353" y="925" type="curve" smooth="yes"/>
      <point x="412" y="925"/>
      <point x="446" y="896"/>
      <point x="481" y="896" type="curve" smooth="yes"/>
      <point x="498" y="896"/>
      <point x="505" y="906"/>
      <point x="508" y="922" type="curve"/>
      <point x="631" y="922" type="line"/>
      <point x="624" y="800"/>
      <point x="560" y="750"/>
    </contour>
  </outline>
</glyph>
<glyph name="Otilde" format="2">
  <advance width="823"/>
  <unicode hex="00D5"/>
  <outline>
    <contour>
      <point x="411" y="194" type="curve" smooth="yes"/>
      <point x="481" y="194"/>
      <point x="526" y="250"/>
      <point x="526" y="354" type="curve" smooth="yes"/>
      <point x="526" y="362" type="line" smooth="yes"/>
      <point x="526" y="472"/>
      <point x="478" y="519"/>
      <point x="410" y="519" type="curve" smooth="yes"/>
      <point x="343" y="519"/>
      <point x="297" y="471"/>
      <point x="297" y="362" type="curve" smooth="yes"/>
      <point x="297" y="354" type="line" smooth="yes"/>
      <point x="297" y="246"/>
      <point x="338" y="194"/>
    </contour>
    <contour>
      <point x="404" y="-14" type="curve" smooth="yes"/>
      <point x="163" y="-14"/>
      <point x="19" y="131"/>
      <point x="19" y="353" type="curve" smooth="yes"/>
      <point x="19" y="361" type="line" smooth="yes"/>
      <point x="19" y="587"/>
      <point x="194" y="726"/>
      <point x="410" y="726" type="curve" smooth="yes"/>
      <point x="632" y="726"/>
      <point x="804" y="601"/>
      <point x="804" y="368" type="curve" smooth="yes"/>
      <point x="804" y="360" type="line" smooth="yes"/>
      <point x="804" y="131"/>
      <point x="647" y="-14"/>
    </contour>
    <contour>
      <point x="481" y="750" type="curve" smooth="yes"/>
      <point x="418" y="750"/>
      <point x="387" y="779"/>
      <point x="356" y="779" type="curve" smooth="yes"/>
      <point x="341" y="779"/>
      <point x="331" y="768"/>
      <point x="329" y="753" type="curve"/>
      <point x="206" y="753" type="line"/>
      <point x="212" y="875"/>
      <point x="271" y="925"/>
      <point x="339" y="925" type="curve" smooth="yes"/>
      <point x="398" y="925"/>
      <point x="432" y="896"/>
      <point x="467" y="896" type="curve" smooth="yes"/>
      <point x="484" y="896"/>
      <point x="491" y="906"/>
      <point x="494" y="922" type="curve"/>
      <point x="617" y="922" type="line"/>
      <point x="610" y="800"/>
      <point x="546" y="750"/>
    </contour>
  </outline>
</glyph>
<glyph name="multiply" format="2">
  <advance width="623"/>
  <unicode hex="00D7"/>
  <outline>
    <contour>
      <point x="160" y="69" type="line"/>
      <point x="42" y="187" type="line"/>
      <point x="193" y="338" type="line"/>
      <point x="38" y="492" type="line"/>
      <point x="157" y="612" type="line"/>
      <point x="311" y="456" type="line"/>
      <point x="463" y="607" type="line"/>
      <point x="581" y="489" type="line"/>
      <point x="429" y="338" type="line"/>
      <point x="585" y="184" type="line"/>
      <point x="465" y="64" type="line"/>
      <point x="311" y="220" type="line"/>
    </contour>
  </outline>
</glyph>
<glyph name="Oslash" format="2">
  <advance width="823"/>
  <unicode hex="00D8"/>
  <outline>
    <contour>
      <point x="91" y="-34" type="line"/>
      <point x="37" y="18" type="line"/>
      <point x="111" y="96" type="line"/>
      <point x="51" y="160"/>
      <point x="19" y="248"/>
      <point x="19" y="353" type="curve" smooth="yes"/>
      <point x="19" y="361" type="line" smooth="yes"/>
      <point x="19" y="587"/>
      <point x="194" y="726"/>
      <point x="410" y="726" type="curve" smooth="yes"/>
      <point x="500" y="726"/>
      <point x="581" y="705"/>
      <point x="647" y="665" type="curve"/>
      <point x="719" y="742" type="line"/>
      <point x="773" y="690" type="line"/>
      <point x="706" y="619" type="line"/>
      <point x="767" y="559"/>
      <point x="804" y="475"/>
      <point x="804" y="368" type="curve" smooth="yes"/>
      <point x="804" y="360" type="line" smooth="yes"/>
      <point x="804" y="131"/>
      <point x="647" y="-14"/>
      <point x="404" y="-14" type="curve" smooth="yes"/>
      <point x="309" y="-14"/>
      <point x="230" y="8"/>
      <point x="168" y="48" type="curve"/>
    </contour>
    <contour>
      <point x="411" y="194" type="curve" smooth="yes"/>
      <point x="483" y="194"/>
      <point x="529" y="250"/>
      <point x="529" y="354" type="curve" smooth="yes"/>
      <point x="529" y="362" type="line" smooth="yes"/>
      <point x="529" y="385"/>
      <point x="527" y="406"/>
      <point x="522" y="424" type="curve"/>
      <point x="333" y="223" type="line"/>
      <point x="352" y="203"/>
      <point x="379" y="194"/>
    </contour>
    <contour>
      <point x="293" y="354" type="line" smooth="yes"/>
      <point x="293" y="332"/>
      <point x="294" y="312"/>
      <point x="298" y="295" type="curve"/>
      <point x="484" y="493" type="line"/>
      <point x="464" y="510"/>
      <point x="439" y="519"/>
      <point x="410" y="519" type="curve" smooth="yes"/>
      <point x="341" y="519"/>
      <point x="293" y="471"/>
      <point x="293" y="362" type="curve" smooth="yes"/>
    </contour>
  </outline>
</glyph>
<glyph name="Udieresis" format="2">
  <advance width="799"/>
  <unicode hex="00DC"/>
  <outline>
    <contour>
      <point x="401" y="-14" type="curve" smooth="yes"/>
      <point x="180" y="-14"/>
      <point x="54" y="92"/>
      <point x="54" y="305" type="curve" smooth="yes"/>
      <point x="54" y="715" type="line"/>
      <point x="320" y="715" type="line"/>
      <point x="320" y="313" type="line" smooth="yes"/>
      <point x="320" y="237"/>
      <point x="330" y="194"/>
      <point x="401" y="194" type="curve" smooth="yes"/>
      <point x="471" y="194"/>
      <point x="477" y="240"/>
      <point x="477" y="311" type="curve" smooth="yes"/>
      <point x="477" y="715" type="line"/>
      <point x="745" y="715" type="line"/>
      <point x="745" y="304" type="line" smooth="yes"/>
      <point x="745" y="78"/>
      <point x="606" y="-14"/>
    </contour>
    <contour>
      <point x="280" y="742" type="curve" smooth="yes"/>
      <point x="223" y="742"/>
      <point x="178" y="786"/>
      <point x="178" y="841" type="curve" smooth="yes"/>
      <point x="178" y="896"/>
      <point x="223" y="940"/>
      <point x="280" y="940" type="curve" smooth="yes"/>
      <point x="337" y="940"/>
      <point x="383" y="896"/>
      <point x="383" y="841" type="curve" smooth="yes"/>
      <point x="383" y="786"/>
      <point x="337" y="742"/>
    </contour>
    <contour>
      <point x="513" y="742" type="curve" smooth="yes"/>
      <point x="456" y="742"/>
      <point x="412" y="786"/>
      <point x="412" y="841" type="curve" smooth="yes"/>
      <point x="412" y="896"/>
      <point x="456" y="940"/>
      <point x="513" y="940" type="curve" smooth="yes"/>
      <point x="571" y="940"/>
      <point x="616" y="896"/>
      <point x="616" y="841" type="curve" smooth="yes"/>
      <point x="616" y="786"/>
      <point x="571" y="742"/>
    </contour>
  </outline>
</glyph>
<glyph name="Yacute" format="2">
  <advance width="718"/>
  <unicode hex="00DD"/>
  <outline>
    <contour>
      <point x="230" y="0" type="line"/>
      <point x="230" y="303" type="line"/>
      <point x="0" y="715" type="line"/>
      <point x="288" y="715" type="line"/>
      <point x="375" y="521" type="line"/>
      <point x="465" y="715" type="line"/>
      <point x="718" y="715" type="line"/>
      <point x="498" y="304" type="line"/>
      <point x="498" y="0" type="line"/>
    </contour>
    <contour>
      <point x="273" y="753" type="line"/>
      <point x="322" y="908" type="line"/>
      <point x="551" y="908" type="line"/>
      <point x="446" y="753" type="line"/>
    </contour>
  </outline>
</glyph>
<glyph name="Thorn" format="2">
  <advance width="688"/>
  <unicode hex="00DE"/>
  <outline>
    <contour>
      <point x="58" y="0" type="line"/>
      <point x="58" y="715" type="line"/>
      <point x="323" y="715" type="line"/>
      <point x="323" y="606" type="line"/>
      <point x="366" y="606" type="line" smooth="yes"/>
      <point x="592" y="606"/>
      <point x="672" y="521"/>
      <point x="672" y="364" type="curve" smooth="yes"/>
      <point x="672" y="360" type="line" smooth="yes"/>
      <point x="672" y="212"/>
      <point x="578" y="120"/>
      <point x="379" y="120" type="curve" smooth="yes"/>
      <point x="323" y="120" type="line"/>
      <point x="323" y="0" type="line"/>
    </contour>
    <contour>
      <point x="323" y="296" type="line"/>
      <point x="349" y="296" type="line" smooth="yes"/>
      <point x="397" y="296"/>
      <point x="421" y="317"/>
      <point x="421" y="359" type="curve" smooth="yes"/>
      <point x="421" y="363" type="line" smooth="yes"/>
      <point x="421" y="404"/>
      <point x="398" y="422"/>
      <point x="350" y="422" type="curve" smooth="yes"/>
      <point x="323" y="422" type="line"/>
    </contour>
  </outline>
</glyph>
<glyph name="germandbls" format="2">
  <advance width="659"/>
  <unicode hex="00DF"/>
  <outline>
    <contour>
      <point x="404" y="-10" type="curve" smooth="yes"/>
      <point x="359" y="-10"/>
      <point x="328" y="-6"/>
      <point x="306" y="-2" type="curve"/>
      <point x="306" y="166" type="line"/>
      <point x="315" y="164"/>
      <point x="324" y="162"/>
      <point x="336" y="162" type="curve" smooth="yes"/>
      <point x="380" y="162"/>
      <point x="414" y="187"/>
      <point x="414" y="260" type="curve" smooth="yes"/>
      <point x="414" y="265" type="line" smooth="yes"/>
      <point x="414" y="363"/>
      <point x="366" y="373"/>
      <point x="304" y="370" type="curve"/>
      <point x="304" y="515" type="line"/>
      <point x="348" y="516"/>
      <point x="372" y="542"/>
      <point x="372" y="571" type="curve" smooth="yes"/>
      <point x="372" y="573" type="line" smooth="yes"/>
      <point x="372" y="604"/>
      <point x="355" y="625"/>
      <point x="321" y="625" type="curve" smooth="yes"/>
      <point x="287" y="625"/>
      <point x="266" y="600"/>
      <point x="266" y="553" type="curve" smooth="yes"/>
      <point x="266" y="0" type="line"/>
      <point x="37" y="0" type="line"/>
      <point x="37" y="533" type="line" smooth="yes"/>
      <point x="37" y="711"/>
      <point x="173" y="769"/>
      <point x="337" y="769" type="curve" smooth="yes"/>
      <point x="493" y="769"/>
      <point x="588" y="711"/>
      <point x="588" y="584" type="curve" smooth="yes"/>
      <point x="588" y="582" type="line" smooth="yes"/>
      <point x="588" y="511"/>
      <point x="534" y="468"/>
      <point x="470" y="450" type="curve"/>
      <point x="559" y="432"/>
      <point x="646" y="374"/>
      <point x="646" y="247" type="curve" smooth="yes"/>
      <point x="646" y="240" type="line" smooth="yes"/>
      <point x="646" y="81"/>
      <point x="550" y="-10"/>
    </contour>
  </outline>
</glyph>
<glyph name="agrave" format="2">
  <advance width="598"/>
  <unicode hex="00E0"/>
  <outline>
    <contour>
      <point x="193" y="-14" type="curve" smooth="yes"/>
      <point x="100" y="-14"/>
      <point x="15" y="32"/>
      <point x="15" y="145" type="curve" smooth="yes"/>
      <point x="15" y="269"/>
      <point x="106" y="316"/>
      <point x="301" y="316" type="curve" smooth="yes"/>
      <point x="338" y="316" type="line"/>
      <point x="338" y="319" type="line" smooth="yes"/>
      <point x="338" y="352"/>
      <point x="336" y="384"/>
      <point x="291" y="384" type="curve" smooth="yes"/>
      <point x="254" y="384"/>
      <point x="247" y="355"/>
      <point x="245" y="339" type="curve"/>
      <point x="33" y="339" type="line"/>
      <point x="40" y="468"/>
      <point x="141" y="539"/>
      <point x="305" y="539" type="curve" smooth="yes"/>
      <point x="472" y="539"/>
      <point x="564" y="471"/>
      <point x="564" y="336" type="curve" smooth="yes"/>
      <point x="564" y="0" type="line"/>
      <point x="344" y="0" type="line"/>
      <point x="344" y="59" type="line"/>
      <point x="326" y="26"/>
      <point x="281" y="-14"/>
    </contour>
    <contour>
      <point x="282" y="136" type="curve" smooth="yes"/>
      <point x="315" y="136"/>
      <point x="338" y="156"/>
      <point x="338" y="183" type="curve" smooth="yes"/>
      <point x="338" y="200" type="line"/>
      <point x="303" y="200" type="line" smooth="yes"/>
      <point x="249" y="200"/>
      <point x="240" y="190"/>
      <point x="240" y="165" type="curve" smooth="yes"/>
      <point x="240" y="147"/>
      <point x="256" y="136"/>
    </contour>
    <contour>
      <point x="225" y="568" type="line"/>
      <point x="120" y="743" type="line"/>
      <point x="339" y="743" type="line"/>
      <point x="388" y="568" type="line"/>
    </contour>
  </outline>
</glyph>
<glyph name="atilde" format="2">
  <advance width="598"/>
  <unicode hex="00E3"/>
  <outline>
    <contour>
      <point x="193" y="-14" type="curve" smooth="yes"/>
      <point x="100" y="-14"/>
      <point x="15" y="32"/>
      <point x="15" y="145" type="curve" smooth="yes"/>
      <point x="15" y="269"/>
      <point x="106" y="316"/>
      <point x="301" y="316" type="curve" smooth="yes"/>
      <point x="338" y="316" type="line"/>
      <point x="338" y="319" type="line" smooth="yes"/>
      <point x="338" y="352"/>
      <point x="336" y="384"/>
      <point x="291" y="384" type="curve" smooth="yes"/>
      <point x="254" y="384"/>
      <point x="247" y="355"/>
      <point x="245" y="339" type="curve"/>
      <point x="33" y="339" type="line"/>
      <point x="40" y="468"/>
      <point x="141" y="539"/>
      <point x="305" y="539" type="curve" smooth="yes"/>
      <point x="472" y="539"/>
      <point x="564" y="471"/>
      <point x="564" y="336" type="curve" smooth="yes"/>
      <point x="564" y="0" type="line"/>
      <point x="344" y="0" type="line"/>
      <point x="344" y="59" type="line"/>
      <point x="326" y="26"/>
      <point x="281" y="-14"/>
    </contour>
    <contour>
      <point x="282" y="136" type="curve" smooth="yes"/>
      <point x="315" y="136"/>
      <point x="338" y="156"/>
      <point x="338" y="183" type="curve" smooth="yes"/>
      <point x="338" y="200" type="line"/>
      <point x="303" y="200" type="line" smooth="yes"/>
      <point x="249" y="200"/>
      <point x="240" y="190"/>
      <point x="240" y="165" type="curve" smooth="yes"/>
      <point x="240" y="147"/>
      <point x="256" y="136"/>
    </contour>
    <contour>
      <point x="371" y="570" type="curve" smooth="yes"/>
      <point x="308" y="570"/>
      <point x="281" y="599"/>
      <point x="250" y="599" type="curve" smooth="yes"/>
      <point x="235" y="599"/>
      <point x="225" y="588"/>
      <point x="223" y="573" type="curve"/>
      <point x="107" y="573" type="line"/>
      <point x="113" y="695"/>
      <point x="162" y="749"/>
      <point x="230" y="749" type="curve" smooth="yes"/>
      <point x="289" y="749"/>
      <point x="320" y="720"/>
      <point x="355" y="720" type="curve" smooth="yes"/>
      <point x="372" y="720"/>
      <point x="379" y="730"/>
      <point x="382" y="746" type="curve"/>
      <point x="498" y="746" type="line"/>
      <point x="491" y="624"/>
      <point x="436" y="570"/>
    </contour>
  </outline>
</glyph>
<glyph name="ae" format="2">
  <advance width="922"/>
  <unicode hex="00E6"/>
  <outline>
    <contour>
      <point x="623" y="-14" type="curve" smooth="yes"/>
      <point x="530" y="-14"/>
      <point x="460" y="14"/>
      <point x="415" y="68" type="curve"/>
      <point x="377" y="19"/>
      <point x="320" y="-14"/>
      <point x="216" y="-14" type="curve" smooth="yes"/>
      <point x="105" y="-14"/>
      <point x="12" y="32"/>
      <point x="12" y="145" type="curve" smooth="yes"/>
      <point x="12" y="269"/>
      <point x="103" y="318"/>
      <point x="298" y="318" type="curve" smooth="yes"/>
      <point x="338" y="318" type="line"/>
      <point x="338" y="320" type="line" smooth="yes"/>
      <point x="338" y="354"/>
      <point x="334" y="384"/>
      <point x="289" y="384" type="curve" smooth="yes"/>
      <point x="252" y="384"/>
      <point x="245" y="361"/>
      <point x="242" y="339" type="curve"/>
      <point x="30" y="339" type="line"/>
      <point x="37" y="468"/>
      <point x="139" y="539"/>
      <point x="303" y="539" type="curve" smooth="yes"/>
      <point x="379" y="539"/>
      <point x="431" y="522"/>
      <point x="463" y="490" type="curve"/>
      <point x="507" y="522"/>
      <point x="562" y="539"/>
      <point x="625" y="539" type="curve" smooth="yes"/>
      <point x="779" y="539"/>
      <point x="906" y="453"/>
      <point x="906" y="264" type="curve" smooth="yes"/>
      <point x="906" y="215" type="line"/>
      <point x="555" y="215" type="line"/>
      <point x="561" y="163"/>
      <point x="589" y="138"/>
      <point x="631" y="138" type="curve" smooth="yes"/>
      <point x="679" y="138"/>
      <point x="692" y="163"/>
      <point x="697" y="184" type="curve"/>
      <point x="908" y="184" type="line"/>
      <point x="893" y="60"/>
      <point x="802" y="-14"/>
    </contour>
    <contour>
      <point x="556" y="318" type="curve"/>
      <point x="687" y="318" type="line"/>
      <point x="686" y="364"/>
      <point x="669" y="396"/>
      <point x="625" y="396" type="curve" smooth="yes"/>
      <point x="587" y="396"/>
      <point x="560" y="371"/>
    </contour>
    <contour>
      <point x="281" y="136" type="curve" smooth="yes"/>
      <point x="319" y="136"/>
      <point x="338" y="156"/>
      <point x="338" y="183" type="curve" smooth="yes"/>
      <point x="338" y="211" type="line"/>
      <point x="300" y="211" type="line" smooth="yes"/>
      <point x="252" y="211"/>
      <point x="237" y="198"/>
      <point x="237" y="170" type="curve" smooth="yes"/>
      <point x="237" y="147"/>
      <point x="255" y="136"/>
    </contour>
  </outline>
</glyph>
<glyph name="ccedilla" format="2">
  <advance width="590"/>
  <unicode hex="00E7"/>
  <outline>
    <contour>
      <point x="279" y="-232" type="curve" smooth="yes"/>
      <point x="199" y="-232"/>
      <point x="149" y="-199"/>
      <point x="138" y="-135" type="curve"/>
      <point x="238" y="-135" type="line"/>
      <point x="241" y="-147"/>
      <point x="249" y="-158"/>
      <point x="270" y="-158" type="curve" smooth="yes"/>
      <point x="288" y="-158"/>
      <point x="298" y="-147"/>
      <point x="298" y="-131" type="curve" smooth="yes"/>
      <point x="298" y="-115"/>
      <point x="288" y="-102"/>
      <point x="266" y="-102" type="curve" smooth="yes"/>
      <point x="249" y="-102"/>
      <point x="239" y="-108"/>
      <point x="232" y="-115" type="curve"/>
      <point x="190" y="-71" type="line"/>
      <point x="234" y="-8" type="line"/>
      <point x="106" y="12"/>
      <point x="15" y="97"/>
      <point x="15" y="254" type="curve" smooth="yes"/>
      <point x="15" y="262" type="line" smooth="yes"/>
      <point x="15" y="444"/>
      <point x="145" y="539"/>
      <point x="307" y="539" type="curve" smooth="yes"/>
      <point x="444" y="539"/>
      <point x="570" y="481"/>
      <point x="578" y="308" type="curve"/>
      <point x="365" y="308" type="line"/>
      <point x="360" y="339"/>
      <point x="354" y="364"/>
      <point x="313" y="364" type="curve" smooth="yes"/>
      <point x="266" y="364"/>
      <point x="248" y="335"/>
      <point x="248" y="266" type="curve" smooth="yes"/>
      <point x="248" y="258" type="line" smooth="yes"/>
      <point x="248" y="186"/>
      <point x="264" y="150"/>
      <point x="316" y="150" type="curve" smooth="yes"/>
      <point x="353" y="150"/>
      <point x="372" y="173"/>
      <point x="376" y="215" type="curve"/>
      <point x="581" y="215" type="line"/>
      <point x="578" y="77"/>
      <point x="493" y="-10"/>
      <point x="311" y="-14" type="curve"/>
      <point x="291" y="-41" type="line"/>
      <point x="355" y="-35"/>
      <point x="410" y="-63"/>
      <point x="410" y="-130" type="curve" smooth="yes"/>
      <point x="410" y="-193"/>
      <point x="361" y="-232"/>
    </contour>
  </outline>
</glyph>
<glyph name="iacute" format="2">
  <advance width="316"/>
  <unicode hex="00ED"/>
  <outline>
    <contour>
      <point x="44" y="0" type="line"/>
      <point x="44" y="523" type="line"/>
      <point x="272" y="523" type="line"/>
      <point x="272" y="0" type="line"/>
    </contour>
    <contour>
      <point x="72" y="568" type="line"/>
      <point x="121" y="743" type="line"/>
      <point x="340" y="743" type="line"/>
      <point x="235" y="568" type="line"/>
    </contour>
  </outline>
</glyph>
<glyph name="icircumflex" format="2">
  <advance width="316"/>
  <unicode hex="00EE"/>
  <outline>
    <contour>
      <point x="44" y="0" type="line"/>
      <point x="44" y="523" type="line"/>
      <point x="272" y="523" type="line"/>
      <point x="272" y="0" type="line"/>
    </contour>
    <contour>
      <point x="-47" y="571" type="line"/>
      <point x="83" y="743" type="line"/>
      <point x="238" y="743" type="line"/>
      <point x="362" y="571" type="line"/>
      <point x="204" y="571" type="line"/>
      <point x="156" y="617" type="line"/>
      <point x="108" y="571" type="line"/>
    </contour>
  </outline>
</glyph>
<glyph name="idieresis" format="2">
  <advance width="316"/>
  <unicode hex="00EF"/>
  <outline>
    <contour>
      <point x="45" y="552" type="curve" smooth="yes"/>
      <point x="-12" y="552"/>
      <point x="-57" y="596"/>
      <point x="-57" y="651" type="curve" smooth="yes"/>
      <point x="-57" y="706"/>
      <point x="-12" y="750"/>
      <point x="45" y="750" type="curve" smooth="yes"/>
      <point x="102" y="750"/>
      <point x="148" y="706"/>
      <point x="148" y="651" type="curve" smooth="yes"/>
      <point x="148" y="596"/>
      <point x="102" y="552"/>
    </contour>
    <contour>
      <point x="270" y="552" type="curve" smooth="yes"/>
      <point x="213" y="552"/>
      <point x="169" y="596"/>
      <point x="169" y="651" type="curve" smooth="yes"/>
      <point x="169" y="706"/>
      <point x="213" y="750"/>
      <point x="270" y="750" type="curve" smooth="yes"/>
      <point x="328" y="750"/>
      <point x="373" y="706"/>
      <point x="373" y="651" type="curve" smooth="yes"/>
      <point x="373" y="596"/>
      <point x="328" y="552"/>
    </contour>
    <contour>
      <point x="44" y="0" type="line"/>
      <point x="44" y="523" type="line"/>
      <point x="272" y="523" type="line"/>
      <point x="272" y="0" type="line"/>
    </contour>
  </outline>
</glyph>
<glyph name="eth" format="2">
  <advance width="635"/>
  <unicode hex="00F0"/>
  <outline>
    <contour>
      <point x="92" y="556" type="line"/>
      <point x="72" y="617" type="line"/>
      <point x="187" y="650" type="line"/>
      <point x="143" y="686"/>
      <point x="98" y="718"/>
      <point x="61" y="743" type="curve"/>
      <point x="327" y="743" type="line"/>
      <point x="345" y="732"/>
      <point x="364" y="721"/>
      <point x="383" y="707" type="curve"/>
      <point x="502" y="742" type="line"/>
      <point x="522" y="680" type="line"/>
      <point x="447" y="658" type="line"/>
      <point x="537" y="580"/>
      <point x="617" y="465"/>
      <point x="617" y="304" type="curve" smooth="yes"/>
      <point x="617" y="282" type="line" smooth="yes"/>
      <point x="617" y="98"/>
      <point x="497" y="-14"/>
      <point x="311" y="-14" type="curve" smooth="yes"/>
      <point x="144" y="-14"/>
      <point x="15" y="81"/>
      <point x="15" y="266" type="curve" smooth="yes"/>
      <point x="15" y="279" type="line" smooth="yes"/>
      <point x="15" y="451"/>
      <point x="139" y="528"/>
      <point x="239" y="528" type="curve" smooth="yes"/>
      <point x="290" y="528"/>
      <point x="313" y="512"/>
      <point x="340" y="487" type="curve"/>
      <point x="317" y="525"/>
      <point x="283" y="563"/>
      <point x="245" y="600" type="curve"/>
    </contour>
    <contour>
      <point x="317" y="152" type="curve" smooth="yes"/>
      <point x="365" y="152"/>
      <point x="385" y="187"/>
      <point x="385" y="259" type="curve" smooth="yes"/>
      <point x="385" y="267" type="line" smooth="yes"/>
      <point x="385" y="338"/>
      <point x="366" y="372"/>
      <point x="317" y="372" type="curve" smooth="yes"/>
      <point x="270" y="372"/>
      <point x="247" y="341"/>
      <point x="247" y="270" type="curve" smooth="yes"/>
      <point x="247" y="262" type="line" smooth="yes"/>
      <point x="247" y="187"/>
      <point x="267" y="152"/>
    </contour>
  </outline>
</glyph>
<glyph name="ntilde" format="2">
  <advance width="638"/>
  <unicode hex="00F1"/>
  <outline>
    <contour>
      <point x="37" y="0" type="line"/>
      <point x="37" y="523" type="line"/>
      <point x="266" y="523" type="line"/>
      <point x="266" y="439" type="line"/>
      <point x="296" y="495"/>
      <point x="352" y="539"/>
      <point x="440" y="539" type="curve" smooth="yes"/>
      <point x="537" y="539"/>
      <point x="604" y="474"/>
      <point x="604" y="350" type="curve" smooth="yes"/>
      <point x="604" y="0" type="line"/>
      <point x="375" y="0" type="line"/>
      <point x="375" y="292" type="line" smooth="yes"/>
      <point x="375" y="334"/>
      <point x="361" y="357"/>
      <point x="325" y="357" type="curve" smooth="yes"/>
      <point x="284" y="357"/>
      <point x="266" y="334"/>
      <point x="266" y="281" type="curve" smooth="yes"/>
      <point x="266" y="0" type="line"/>
    </contour>
    <contour>
      <point x="390" y="570" type="curve" smooth="yes"/>
      <point x="327" y="570"/>
      <point x="300" y="599"/>
      <point x="269" y="599" type="curve" smooth="yes"/>
      <point x="254" y="599"/>
      <point x="244" y="588"/>
      <point x="242" y="573" type="curve"/>
      <point x="126" y="573" type="line"/>
      <point x="132" y="695"/>
      <point x="181" y="749"/>
      <point x="249" y="749" type="curve" smooth="yes"/>
      <point x="308" y="749"/>
      <point x="339" y="720"/>
      <point x="374" y="720" type="curve" smooth="yes"/>
      <point x="391" y="720"/>
      <point x="398" y="730"/>
      <point x="401" y="746" type="curve"/>
      <point x="517" y="746" type="line"/>
      <point x="510" y="624"/>
      <point x="455" y="570"/>
    </contour>
  </outline>
</glyph>
<glyph name="ocircumflex" format="2">
  <advance width="632"/>
  <unicode hex="00F4"/>
  <outline>
    <contour>
      <point x="317" y="152" type="curve" smooth="yes"/>
      <point x="365" y="152"/>
      <point x="385" y="187"/>
      <point x="385" y="259" type="curve" smooth="yes"/>
      <point x="385" y="267" type="line" smooth="yes"/>
      <point x="385" y="338"/>
      <point x="366" y="372"/>
      <point x="317" y="372" type="curve" smooth="yes"/>
      <point x="270" y="372"/>
      <point x="247" y="341"/>
      <point x="247" y="270" type="curve" smooth="yes"/>
      <point x="247" y="262" type="line" smooth="yes"/>
      <point x="247" y="187"/>
      <point x="267" y="152"/>
    </contour>
    <contour>
      <point x="316" y="-14" type="curve" smooth="yes"/>
      <point x="149" y="-14"/>
      <point x="15" y="77"/>
      <point x="15" y="254" type="curve" smooth="yes"/>
      <point x="15" y="262" type="line" smooth="yes"/>
      <point x="15" y="436"/>
      <point x="148" y="539"/>
      <point x="317" y="539" type="curve" smooth="yes"/>
      <point x="485" y="539"/>
      <point x="617" y="440"/>
      <point x="617" y="269" type="curve" smooth="yes"/>
      <point x="617" y="261" type="line" smooth="yes"/>
      <point x="617" y="85"/>
      <point x="483" y="-14"/>
    </contour>
    <contour>
      <point x="111" y="571" type="line"/>
      <point x="241" y="743" type="line"/>
      <point x="396" y="743" type="line"/>
      <point x="520" y="571" type="line"/>
      <point x="362" y="571" type="line"/>
      <point x="314" y="617" type="line"/>
      <point x="266" y="571" type="line"/>
    </contour>
  </outline>
</glyph>
<glyph name="uacute" format="2">
  <advance width="638"/>
  <unicode hex="00FA"/>
  <outline>
    <contour>
      <point x="206" y="-14" type="curve" smooth="yes"/>
      <point x="107" y="-14"/>
      <point x="33" y="51"/>
      <point x="33" y="177" type="curve" smooth="yes"/>
      <point x="33" y="523" type="line"/>
      <point x="262" y="523" type="line"/>
      <point x="262" y="219" type="line" smooth="yes"/>
      <point x="262" y="177"/>
      <point x="277" y="154"/>
      <point x="312" y="154" type="curve" smooth="yes"/>
      <point x="355" y="154"/>
      <point x="372" y="177"/>
      <point x="372" y="230" type="curve" smooth="yes"/>
      <point x="372" y="523" type="line"/>
      <point x="601" y="523" type="line"/>
      <point x="601" y="0" type="line"/>
      <point x="372" y="0" type="line"/>
      <point x="372" y="80" type="line"/>
      <point x="342" y="23"/>
      <point x="295" y="-14"/>
    </contour>
    <contour>
      <point x="231" y="568" type="line"/>
      <point x="280" y="743" type="line"/>
      <point x="499" y="743" type="line"/>
      <point x="394" y="568" type="line"/>
    </contour>
  </outline>
</glyph>
<glyph name="ucircumflex" format="2">
  <advance width="638"/>
  <unicode hex="00FB"/>
  <outline>
    <contour>
      <point x="206" y="-14" type="curve" smooth="yes"/>
      <point x="107" y="-14"/>
      <point x="33" y="51"/>
      <point x="33" y="177" type="curve" smooth="yes"/>
      <point x="33" y="523" type="line"/>
      <point x="262" y="523" type="line"/>
      <point x="262" y="219" type="line" smooth="yes"/>
      <point x="262" y="177"/>
      <point x="277" y="154"/>
      <point x="312" y="154" type="curve" smooth="yes"/>
      <point x="355" y="154"/>
      <point x="372" y="177"/>
      <point x="372" y="230" type="curve" smooth="yes"/>
      <point x="372" y="523" type="line"/>
      <point x="601" y="523" type="line"/>
      <point x="601" y="0" type="line"/>
      <point x="372" y="0" type="line"/>
      <point x="372" y="80" type="line"/>
      <point x="342" y="23"/>
      <point x="295" y="-14"/>
    </contour>
    <contour>
      <point x="112" y="571" type="line"/>
      <point x="242" y="743" type="line"/>
      <point x="397" y="743" type="line"/>
      <point x="521" y="571" type="line"/>
      <point x="363" y="571" type="line"/>
      <point x="315" y="617" type="line"/>
      <point x="267" y="571" type="line"/>
    </contour>
  </outline>
</glyph>
<glyph name="udieresis" format="2">
  <advance width="638"/>
  <unicode hex="00FC"/>
  <outline>
    <contour>
      <point x="206" y="-14" type="curve" smooth="yes"/>
      <point x="107" y="-14"/>
      <point x="33" y="51"/>
      <point x="33" y="177" type="curve" smooth="yes"/>
      <point x="33" y="523" type="line"/>
      <point x="262" y="523" type="line"/>
      <point x="262" y="219" type="line" smooth="yes"/>
      <point x="262" y="177"/>
      <point x="277" y="154"/>
      <point x="312" y="154" type="curve" smooth="yes"/>
      <point x="355" y="154"/>
      <point x="372" y="177"/>
      <point x="372" y="230" type="curve" smooth="yes"/>
      <point x="372" y="523" type="line"/>
      <point x="601" y="523" type="line"/>
      <point x="601" y="0" type="line"/>
      <point x="372" y="0" type="line"/>
      <point x="372" y="80" type="line"/>
      <point x="342" y="23"/>
      <point x="295" y="-14"/>
    </contour>
    <contour>
      <point x="204" y="552" type="curve" smooth="yes"/>
      <point x="147" y="552"/>
      <point x="102" y="596"/>
      <point x="102" y="651" type="curve" smooth="yes"/>
      <point x="102" y="706"/>
      <point x="147" y="750"/>
      <point x="204" y="750" type="curve" smooth="yes"/>
      <point x="261" y="750"/>
      <point x="307" y="706"/>
      <point x="307" y="651" type="curve" smooth="yes"/>
      <point x="307" y="596"/>
      <point x="261" y="552"/>
    </contour>
    <contour>
      <point x="429" y="552" type="curve" smooth="yes"/>
      <point x="372" y="552"/>
      <point x="328" y="596"/>
      <point x="328" y="651" type="curve" smooth="yes"/>
      <point x="328" y="706"/>
      <point x="372" y="750"/>
      <point x="429" y="750" type="curve" smooth="yes"/>
      <point x="487" y="750"/>
      <point x="532" y="706"/>
      <point x="532" y="651" type="curve" smooth="yes"/>
      <point x="532" y="596"/>
      <point x="487" y="552"/>
    </contour>
  </outline>
</glyph>
<glyph name="yacute" format="2">
  <advance width="620"/>
  <unicode hex="00FD"/>
  <outline>
    <contour>
      <point x="129" y="-172" type="line"/>
      <point x="210" y="52" type="line"/>
      <point x="-1" y="523" type="line"/>
      <point x="247" y="523" type="line"/>
      <point x="329" y="294" type="line"/>
      <point x="406" y="523" type="line"/>
      <point x="621" y="523" type="line"/>
      <point x="345" y="-172" type="line"/>
    </contour>
    <contour>
      <point x="236" y="568" type="line"/>
      <point x="285" y="743" type="line"/>
      <point x="504" y="743" type="line"/>
      <point x="399" y="568" type="line"/>
    </contour>
  </outline>
</glyph>
<glyph name="ydieresis" format="2">
  <advance width="620"/>
  <unicode hex="00FF"/>
  <outline>
    <contour>
      <point x="129" y="-172" type="line"/>
      <point x="210" y="52" type="line"/>
      <point x="-1" y="523" type="line"/>
      <point x="247" y="523" type="line"/>
      <point x="329" y="294" type="line"/>
      <point x="406" y="523" type="line"/>
      <point x="621" y="523" type="line"/>
      <point x="345" y="-172" type="line"/>
    </contour>
    <contour>
      <point x="209" y="552" type="curve" smooth="yes"/>
      <point x="152" y="552"/>
      <point x="107" y="596"/>
      <point x="107" y="651" type="curve" smooth="yes"/>
      <point x="107" y="706"/>
      <point x="152" y="750"/>
      <point x="209" y="750" type="curve" smooth="yes"/>
      <point x="266" y="750"/>
      <point x="312" y="706"/>
      <point x="312" y="651" type="curve" smooth="yes"/>
      <point x="312" y="596"/>
      <point x="266" y="552"/>
    </contour>
    <contour>
      <point x="434" y="552" type="curve" smooth="yes"/>
      <point x="377" y="552"/>
      <point x="333" y="596"/>
      <point x="333" y="651" type="curve" smooth="yes"/>
      <point x="333" y="706"/>
      <point x="377" y="750"/>
      <point x="434" y="750" type="curve" smooth="yes"/>
      <point x="492" y="750"/>
      <point x="537" y="706"/>
      <point x="537" y="651" type="curve" smooth="yes"/>
      <point x="537" y="596"/>
      <point x="492" y="552"/>
    </contour>
  </outline>
</glyph>
<glyph name="Amacron" format="2">
  <advance width="784"/>
  <unicode hex="0100"/>
  <outline>
    <contour>
      <point x="1" y="0" type="line"/>
      <point x="221" y="715" type="line"/>
      <point x="564" y="715" type="line"/>
      <point x="783" y="0" type="line"/>
      <point x="499" y="0" type="line"/>
      <point x="475" y="95" type="line"/>
      <point x="273" y="95" type="line"/>
      <point x="249" y="0" type="line"/>
    </contour>
    <contour>
      <point x="214" y="764" type="line"/>
      <point x="214" y="893" type="line"/>
      <point x="565" y="893" type="line"/>
      <point x="565" y="764" type="line"/>
    </contour>
    <contour>
      <point x="375" y="501" type="line"/>
      <point x="317" y="273" type="line"/>
      <point x="431" y="273" type="line"/>
    </contour>
  </outline>
</glyph>
<glyph name="Abreve" format="2">
  <advance width="784"/>
  <unicode hex="0102"/>
  <outline>
    <contour>
      <point x="1" y="0" type="line"/>
      <point x="221" y="715" type="line"/>
      <point x="564" y="715" type="line"/>
      <point x="783" y="0" type="line"/>
      <point x="499" y="0" type="line"/>
      <point x="475" y="95" type="line"/>
      <point x="273" y="95" type="line"/>
      <point x="249" y="0" type="line"/>
    </contour>
    <contour>
      <point x="390" y="744" type="curve" smooth="yes"/>
      <point x="278" y="744"/>
      <point x="215" y="803"/>
      <point x="208" y="908" type="curve"/>
      <point x="349" y="908" type="line"/>
      <point x="350" y="886"/>
      <point x="366" y="872"/>
      <point x="390" y="872" type="curve" smooth="yes"/>
      <point x="412" y="872"/>
      <point x="429" y="887"/>
      <point x="431" y="908" type="curve"/>
      <point x="572" y="908" type="line"/>
      <point x="563" y="803"/>
      <point x="497" y="744"/>
    </contour>
    <contour>
      <point x="375" y="501" type="line"/>
      <point x="317" y="273" type="line"/>
      <point x="431" y="273" type="line"/>
    </contour>
  </outline>
</glyph>
<glyph name="Aogonek" format="2">
  <advance width="784"/>
  <unicode hex="0104"/>
  <outline>
    <contour>
      <point x="663" y="-182" type="curve" smooth="yes"/>
      <point x="578" y="-182"/>
      <point x="529" y="-149"/>
      <point x="529" y="-100" type="curve" smooth="yes"/>
      <point x="529" y="-49"/>
      <point x="577" y="-21"/>
      <point x="618" y="0" type="curve"/>
      <point x="499" y="0" type="line"/>
      <point x="475" y="95" type="line"/>
      <point x="273" y="95" type="line"/>
      <point x="249" y="0" type="line"/>
      <point x="1" y="0" type="line"/>
      <point x="221" y="715" type="line"/>
      <point x="564" y="715" type="line"/>
      <point x="777" y="19" type="line"/>
      <point x="744" y="0"/>
      <point x="723" y="-30"/>
      <point x="723" y="-46" type="curve" smooth="yes"/>
      <point x="723" y="-59"/>
      <point x="732" y="-67"/>
      <point x="748" y="-67" type="curve" smooth="yes"/>
      <point x="757" y="-67"/>
      <point x="761" y="-66"/>
      <point x="766" y="-65" type="curve"/>
      <point x="766" y="-164" type="line"/>
      <point x="748" y="-173"/>
      <point x="712" y="-182"/>
    </contour>
    <contour>
      <point x="375" y="501" type="line"/>
      <point x="317" y="273" type="line"/>
      <point x="431" y="273" type="line"/>
    </contour>
  </outline>
</glyph>
<glyph name="aogonek" format="2">
  <advance width="598"/>
  <unicode hex="0105"/>
  <outline>
    <contour>
      <point x="462" y="-182" type="curve" smooth="yes"/>
      <point x="386" y="-182"/>
      <point x="339" y="-151"/>
      <point x="339" y="-100" type="curve" smooth="yes"/>
      <point x="339" y="-46"/>
      <point x="386" y="-20"/>
      <point x="429" y="0" type="curve"/>
      <point x="344" y="0" type="line"/>
      <point x="344" y="59" type="line"/>
      <point x="326" y="26"/>
      <point x="281" y="-14"/>
      <point x="193" y="-14" type="curve" smooth="yes"/>
      <point x="100" y="-14"/>
      <point x="15" y="32"/>
      <point x="15" y="145" type="curve" smooth="yes"/>
      <point x="15" y="269"/>
      <point x="106" y="316"/>
      <point x="301" y="316" type="curve" smooth="yes"/>
      <point x="338" y="316" type="line"/>
      <point x="338" y="319" type="line" smooth="yes"/>
      <point x="338" y="352"/>
      <point x="336" y="384"/>
      <point x="291" y="384" type="curve" smooth="yes"/>
      <point x="254" y="384"/>
      <point x="247" y="355"/>
      <point x="245" y="339" type="curve"/>
      <point x="33" y="339" type="line"/>
      <point x="40" y="468"/>
      <point x="141" y="539"/>
      <point x="305" y="539" type="curve" smooth="yes"/>
      <point x="472" y="539"/>
      <point x="564" y="471"/>
      <point x="564" y="336" type="curve" smooth="yes"/>
      <point x="564" y="15" type="line"/>
      <point x="530" y="-14"/>
      <point x="519" y="-34"/>
      <point x="519" y="-51" type="curve" smooth="yes"/>
      <point x="519" y="-67"/>
      <point x="530" y="-75"/>
      <point x="546" y="-75" type="curve" smooth="yes"/>
      <point x="555" y="-75"/>
      <point x="559" y="-74"/>
      <point x="564" y="-73" type="curve"/>
      <point x="564" y="-164" type="line"/>
      <point x="546" y="-173"/>
      <point x="514" y="-182"/>
    </contour>
    <contour>
      <point x="282" y="136" type="curve" smooth="yes"/>
      <point x="315" y="136"/>
      <point x="338" y="156"/>
      <point x="338" y="183" type="curve" smooth="yes"/>
      <point x="338" y="200" type="line"/>
      <point x="303" y="200" type="line" smooth="yes"/>
      <point x="249" y="200"/>
      <point x="240" y="190"/>
      <point x="240" y="165" type="curve" smooth="yes"/>
      <point x="240" y="147"/>
      <point x="256" y="136"/>
    </contour>
  </outline>
</glyph>
<glyph name="Cacute" format="2">
  <advance width="774"/>
  <unicode hex="0106"/>
  <outline>
    <contour>
      <point x="413" y="-14" type="curve" smooth="yes"/>
      <point x="141" y="-14"/>
      <point x="20" y="134"/>
      <point x="20" y="353" type="curve" smooth="yes"/>
      <point x="20" y="361" type="line" smooth="yes"/>
      <point x="20" y="585"/>
      <point x="184" y="726"/>
      <point x="400" y="726" type="curve" smooth="yes"/>
      <point x="605" y="726"/>
      <point x="736" y="636"/>
      <point x="754" y="430" type="curve"/>
      <point x="478" y="430" type="line"/>
      <point x="475" y="484"/>
      <point x="447" y="516"/>
      <point x="401" y="516" type="curve" smooth="yes"/>
      <point x="338" y="516"/>
      <point x="301" y="466"/>
      <point x="301" y="362" type="curve" smooth="yes"/>
      <point x="301" y="354" type="line" smooth="yes"/>
      <point x="301" y="253"/>
      <point x="337" y="199"/>
      <point x="406" y="199" type="curve" smooth="yes"/>
      <point x="455" y="199"/>
      <point x="491" y="225"/>
      <point x="497" y="285" type="curve"/>
      <point x="763" y="285" type="line"/>
      <point x="755" y="90"/>
      <point x="611" y="-14"/>
    </contour>
    <contour>
      <point x="301" y="753" type="line"/>
      <point x="350" y="908" type="line"/>
      <point x="579" y="908" type="line"/>
      <point x="474" y="753" type="line"/>
    </contour>
  </outline>
</glyph>
<glyph name="Cdotaccent" format="2">
  <advance width="774"/>
  <unicode hex="010A"/>
  <outline>
    <contour>
      <point x="413" y="-14" type="curve" smooth="yes"/>
      <point x="141" y="-14"/>
      <point x="20" y="134"/>
      <point x="20" y="353" type="curve" smooth="yes"/>
      <point x="20" y="361" type="line" smooth="yes"/>
      <point x="20" y="585"/>
      <point x="184" y="726"/>
      <point x="400" y="726" type="curve" smooth="yes"/>
      <point x="605" y="726"/>
      <point x="736" y="636"/>
      <point x="754" y="430" type="curve"/>
      <point x="478" y="430" type="line"/>
      <point x="475" y="484"/>
      <point x="447" y="516"/>
      <point x="401" y="516" type="curve" smooth="yes"/>
      <point x="338" y="516"/>
      <point x="301" y="466"/>
      <point x="301" y="362" type="curve" smooth="yes"/>
      <point x="301" y="354" type="line" smooth="yes"/>
      <point x="301" y="253"/>
      <point x="337" y="199"/>
      <point x="406" y="199" type="curve" smooth="yes"/>
      <point x="455" y="199"/>
      <point x="491" y="225"/>
      <point x="497" y="285" type="curve"/>
      <point x="763" y="285" type="line"/>
      <point x="755" y="90"/>
      <point x="611" y="-14"/>
    </contour>
    <contour>
      <point x="398" y="742" type="curve" smooth="yes"/>
      <point x="331" y="742"/>
      <point x="282" y="787"/>
      <point x="282" y="849" type="curve" smooth="yes"/>
      <point x="282" y="911"/>
      <point x="331" y="956"/>
      <point x="398" y="956" type="curve" smooth="yes"/>
      <point x="464" y="956"/>
      <point x="513" y="911"/>
      <point x="513" y="849" type="curve" smooth="yes"/>
      <point x="513" y="787"/>
      <point x="464" y="742"/>
    </contour>
  </outline>
</glyph>
<glyph name="Dcaron" format="2">
  <advance width="767"/>
  <unicode hex="010E"/>
  <outline>
    <contour>
      <point x="325" y="203" type="line"/>
      <point x="346" y="203" type="line" smooth="yes"/>
      <point x="436" y="203"/>
      <point x="470" y="243"/>
      <point x="470" y="354" type="curve" smooth="yes"/>
      <point x="470" y="362" type="line" smooth="yes"/>
      <point x="470" y="483"/>
      <point x="430" y="512"/>
      <point x="344" y="512" type="curve" smooth="yes"/>
      <point x="325" y="512" type="line"/>
    </contour>
    <contour>
      <point x="58" y="0" type="line"/>
      <point x="58" y="715" type="line"/>
      <point x="354" y="715" type="line" smooth="yes"/>
      <point x="613" y="715"/>
      <point x="748" y="601"/>
      <point x="748" y="367" type="curve" smooth="yes"/>
      <point x="748" y="360" type="line" smooth="yes"/>
      <point x="748" y="124"/>
      <point x="608" y="0"/>
      <point x="355" y="0" type="curve" smooth="yes"/>
    </contour>
    <contour>
      <point x="249" y="753" type="line"/>
      <point x="138" y="908" type="line"/>
      <point x="303" y="908" type="line"/>
      <point x="348" y="864" type="line"/>
      <point x="393" y="908" type="line"/>
      <point x="555" y="908" type="line"/>
      <point x="438" y="753" type="line"/>
    </contour>
  </outline>
</glyph>
<glyph name="dcroat" format="2">
  <advance width="650"/>
  <unicode hex="0111"/>
  <outline>
    <contour>
      <point x="241" y="572" type="line"/>
      <point x="241" y="686" type="line"/>
      <point x="384" y="686" type="line"/>
      <point x="384" y="743" type="line"/>
      <point x="613" y="743" type="line"/>
      <point x="613" y="686" type="line"/>
      <point x="660" y="686" type="line"/>
      <point x="660" y="572" type="line"/>
      <point x="613" y="572" type="line"/>
      <point x="613" y="0" type="line"/>
      <point x="384" y="0" type="line"/>
      <point x="384" y="82" type="line"/>
      <point x="360" y="27"/>
      <point x="310" y="-14"/>
      <point x="230" y="-14" type="curve" smooth="yes"/>
      <point x="117" y="-14"/>
      <point x="17" y="68"/>
      <point x="17" y="258" type="curve" smooth="yes"/>
      <point x="17" y="266" type="line" smooth="yes"/>
      <point x="17" y="454"/>
      <point x="115" y="539"/>
      <point x="228" y="539" type="curve" smooth="yes"/>
      <point x="308" y="539"/>
      <point x="355" y="508"/>
      <point x="384" y="454" type="curve"/>
      <point x="384" y="572" type="line"/>
    </contour>
    <contour>
      <point x="321" y="159" type="curve" smooth="yes"/>
      <point x="369" y="159"/>
      <point x="390" y="194"/>
      <point x="390" y="260" type="curve" smooth="yes"/>
      <point x="390" y="268" type="line" smooth="yes"/>
      <point x="390" y="332"/>
      <point x="367" y="371"/>
      <point x="320" y="371" type="curve" smooth="yes"/>
      <point x="272" y="371"/>
      <point x="249" y="340"/>
      <point x="249" y="268" type="curve" smooth="yes"/>
      <point x="249" y="260" type="line" smooth="yes"/>
      <point x="249" y="194"/>
      <point x="271" y="159"/>
    </contour>
  </outline>
</glyph>
<glyph name="Emacron" format="2">
  <advance width="635"/>
  <unicode hex="0112"/>
  <outline>
    <contour>
      <point x="58" y="0" type="line"/>
      <point x="58" y="715" type="line"/>
      <point x="592" y="715" type="line"/>
      <point x="592" y="512" type="line"/>
      <point x="323" y="512" type="line"/>
      <point x="323" y="451" type="line"/>
      <point x="535" y="451" type="line"/>
      <point x="535" y="267" type="line"/>
      <point x="323" y="267" type="line"/>
      <point x="323" y="203" type="line"/>
      <point x="607" y="203" type="line"/>
      <point x="607" y="0" type="line"/>
    </contour>
    <contour>
      <point x="157" y="764" type="line"/>
      <point x="157" y="893" type="line"/>
      <point x="508" y="893" type="line"/>
      <point x="508" y="764" type="line"/>
    </contour>
  </outline>
</glyph>
<glyph name="Ebreve" format="2">
  <advance width="635"/>
  <unicode hex="0114"/>
  <outline>
    <contour>
      <point x="58" y="0" type="line"/>
      <point x="58" y="715" type="line"/>
      <point x="592" y="715" type="line"/>
      <point x="592" y="512" type="line"/>
      <point x="323" y="512" type="line"/>
      <point x="323" y="451" type="line"/>
      <point x="535" y="451" type="line"/>
      <point x="535" y="267" type="line"/>
      <point x="323" y="267" type="line"/>
      <point x="323" y="203" type="line"/>
      <point x="607" y="203" type="line"/>
      <point x="607" y="0" type="line"/>
    </contour>
    <contour>
      <point x="329" y="744" type="curve" smooth="yes"/>
      <point x="217" y="744"/>
      <point x="154" y="803"/>
      <point x="147" y="908" type="curve"/>
      <point x="288" y="908" type="line"/>
      <point x="289" y="886"/>
      <point x="305" y="872"/>
      <point x="329" y="872" type="curve" smooth="yes"/>
      <point x="351" y="872"/>
      <point x="368" y="887"/>
      <point x="370" y="908" type="curve"/>
      <point x="511" y="908" type="line"/>
      <point x="502" y="803"/>
      <point x="436" y="744"/>
    </contour>
  </outline>
</glyph>
<glyph name="ebreve" format="2">
  <advance width="614"/>
  <unicode hex="0115"/>
  <outline>
    <contour>
      <point x="315" y="-14" type="curve" smooth="yes"/>
      <point x="143" y="-14"/>
      <point x="15" y="79"/>
      <point x="15" y="254" type="curve" smooth="yes"/>
      <point x="15" y="262" type="line" smooth="yes"/>
      <point x="15" y="436"/>
      <point x="152" y="539"/>
      <point x="317" y="539" type="curve" smooth="yes"/>
      <point x="471" y="539"/>
      <point x="599" y="453"/>
      <point x="599" y="264" type="curve" smooth="yes"/>
      <point x="599" y="215" type="line"/>
      <point x="245" y="215" type="line"/>
      <point x="251" y="163"/>
      <point x="281" y="138"/>
      <point x="323" y="138" type="curve" smooth="yes"/>
      <point x="371" y="138"/>
      <point x="385" y="163"/>
      <point x="390" y="184" type="curve"/>
      <point x="601" y="184" type="line"/>
      <point x="586" y="60"/>
      <point x="494" y="-14"/>
    </contour>
    <contour>
      <point x="246" y="321" type="curve"/>
      <point x="380" y="321" type="line"/>
      <point x="379" y="364"/>
      <point x="361" y="396"/>
      <point x="317" y="396" type="curve" smooth="yes"/>
      <point x="279" y="396"/>
      <point x="252" y="372"/>
    </contour>
    <contour>
      <point x="307" y="570" type="curve" smooth="yes"/>
      <point x="199" y="570"/>
      <point x="133" y="628"/>
      <point x="128" y="742" type="curve"/>
      <point x="262" y="742" type="line"/>
      <point x="263" y="717"/>
      <point x="279" y="702"/>
      <point x="307" y="702" type="curve" smooth="yes"/>
      <point x="333" y="702"/>
      <point x="351" y="718"/>
      <point x="352" y="742" type="curve"/>
      <point x="486" y="742" type="line"/>
      <point x="479" y="628"/>
      <point x="410" y="570"/>
    </contour>
  </outline>
</glyph>
<glyph name="Edotaccent" format="2">
  <advance width="635"/>
  <unicode hex="0116"/>
  <outline>
    <contour>
      <point x="58" y="0" type="line"/>
      <point x="58" y="715" type="line"/>
      <point x="592" y="715" type="line"/>
      <point x="592" y="512" type="line"/>
      <point x="323" y="512" type="line"/>
      <point x="323" y="451" type="line"/>
      <point x="535" y="451" type="line"/>
      <point x="535" y="267" type="line"/>
      <point x="323" y="267" type="line"/>
      <point x="323" y="203" type="line"/>
      <point x="607" y="203" type="line"/>
      <point x="607" y="0" type="line"/>
    </contour>
    <contour>
      <point x="334" y="742" type="curve" smooth="yes"/>
      <point x="267" y="742"/>
      <point x="218" y="787"/>
      <point x="218" y="849" type="curve" smooth="yes"/>
      <point x="218" y="911"/>
      <point x="267" y="956"/>
      <point x="334" y="956" type="curve" smooth="yes"/>
      <point x="400" y="956"/>
      <point x="449" y="911"/>
      <point x="449" y="849" type="curve" smooth="yes"/>
      <point x="449" y="787"/>
      <point x="400" y="742"/>
    </contour>
  </outline>
</glyph>
<glyph name="Eogonek" format="2">
  <advance width="635"/>
  <unicode hex="0118"/>
  <outline>
    <contour>
      <point x="474" y="-182" type="curve" smooth="yes"/>
      <point x="392" y="-182"/>
      <point x="343" y="-149"/>
      <point x="343" y="-100" type="curve" smooth="yes"/>
      <point x="343" y="-49"/>
      <point x="391" y="-21"/>
      <point x="432" y="0" type="curve"/>
      <point x="58" y="0" type="line"/>
      <point x="58" y="715" type="line"/>
      <point x="592" y="715" type="line"/>
      <point x="592" y="512" type="line"/>
      <point x="323" y="512" type="line"/>
      <point x="323" y="451" type="line"/>
      <point x="535" y="451" type="line"/>
      <point x="535" y="267" type="line"/>
      <point x="323" y="267" type="line"/>
      <point x="323" y="203" type="line"/>
      <point x="607" y="203" type="line"/>
      <point x="607" y="0" type="line"/>
      <point x="564" y="0" type="line"/>
      <point x="546" y="-18"/>
      <point x="537" y="-30"/>
      <point x="537" y="-46" type="curve" smooth="yes"/>
      <point x="537" y="-59"/>
      <point x="546" y="-67"/>
      <point x="562" y="-67" type="curve" smooth="yes"/>
      <point x="571" y="-67"/>
      <point x="575" y="-66"/>
      <point x="580" y="-65" type="curve"/>
      <point x="580" y="-164" type="line"/>
      <point x="562" y="-173"/>
      <point x="526" y="-182"/>
    </contour>
  </outline>
</glyph>
<glyph name="eogonek" format="2">
  <advance width="614"/>
  <unicode hex="0119"/>
  <outline>
    <contour>
      <point x="414" y="-182" type="curve" smooth="yes"/>
      <point x="338" y="-182"/>
      <point x="288" y="-154"/>
      <point x="288" y="-103" type="curve" smooth="yes"/>
      <point x="288" y="-61"/>
      <point x="336" y="-33"/>
      <point x="377" y="-9" type="curve"/>
      <point x="360" y="-12"/>
      <point x="332" y="-14"/>
      <point x="315" y="-14" type="curve" smooth="yes"/>
      <point x="143" y="-14"/>
      <point x="15" y="79"/>
      <point x="15" y="254" type="curve" smooth="yes"/>
      <point x="15" y="262" type="line" smooth="yes"/>
      <point x="15" y="436"/>
      <point x="152" y="539"/>
      <point x="317" y="539" type="curve" smooth="yes"/>
      <point x="471" y="539"/>
      <point x="599" y="453"/>
      <point x="599" y="264" type="curve" smooth="yes"/>
      <point x="599" y="215" type="line"/>
      <point x="245" y="215" type="line"/>
      <point x="251" y="163"/>
      <point x="281" y="138"/>
      <point x="323" y="138" type="curve" smooth="yes"/>
      <point x="371" y="138"/>
      <point x="385" y="163"/>
      <point x="390" y="184" type="curve"/>
      <point x="601" y="184" type="line"/>
      <point x="595" y="124"/>
      <point x="569" y="83"/>
      <point x="540" y="52" type="curve" smooth="yes"/>
      <point x="496" y="5"/>
      <point x="468" y="-21"/>
      <point x="468" y="-51" type="curve" smooth="yes"/>
      <point x="468" y="-67"/>
      <point x="479" y="-75"/>
      <point x="495" y="-75" type="curve" smooth="yes"/>
      <point x="504" y="-75"/>
      <point x="508" y="-74"/>
      <point x="513" y="-73" type="curve"/>
      <point x="513" y="-164" type="line"/>
      <point x="495" y="-173"/>
      <point x="470" y="-182"/>
    </contour>
    <contour>
      <point x="246" y="321" type="curve"/>
      <point x="380" y="321" type="line"/>
      <point x="379" y="364"/>
      <point x="361" y="396"/>
      <point x="317" y="396" type="curve" smooth="yes"/>
      <point x="279" y="396"/>
      <point x="252" y="372"/>
    </contour>
  </outline>
</glyph>
<glyph name="Ecaron" format="2">
  <advance width="635"/>
  <unicode hex="011A"/>
  <outline>
    <contour>
      <point x="58" y="0" type="line"/>
      <point x="58" y="715" type="line"/>
      <point x="592" y="715" type="line"/>
      <point x="592" y="512" type="line"/>
      <point x="323" y="512" type="line"/>
      <point x="323" y="451" type="line"/>
      <point x="535" y="451" type="line"/>
      <point x="535" y="267" type="line"/>
      <point x="323" y="267" type="line"/>
      <point x="323" y="203" type="line"/>
      <point x="607" y="203" type="line"/>
      <point x="607" y="0" type="line"/>
    </contour>
    <contour>
      <point x="234" y="753" type="line"/>
      <point x="123" y="908" type="line"/>
      <point x="288" y="908" type="line"/>
      <point x="333" y="864" type="line"/>
      <point x="378" y="908" type="line"/>
      <point x="540" y="908" type="line"/>
      <point x="423" y="753" type="line"/>
    </contour>
  </outline>
</glyph>
<glyph name="Gcircumflex" format="2">
  <advance width="797"/>
  <unicode hex="011C"/>
  <outline>
    <contour>
      <point x="408" y="-14" type="curve" smooth="yes"/>
      <point x="154" y="-14"/>
      <point x="19" y="136"/>
      <point x="19" y="353" type="curve" smooth="yes"/>
      <point x="19" y="361" type="line" smooth="yes"/>
      <point x="19" y="583"/>
      <point x="189" y="726"/>
      <point x="408" y="726" type="curve" smooth="yes"/>
      <point x="591" y="726"/>
      <point x="754" y="644"/>
      <point x="763" y="444" type="curve"/>
      <point x="500" y="444" type="line"/>
      <point x="496" y="487"/>
      <point x="470" y="517"/>
      <point x="409" y="517" type="curve" smooth="yes"/>
      <point x="341" y="517"/>
      <point x="296" y="461"/>
      <point x="296" y="356" type="curve" smooth="yes"/>
      <point x="296" y="348" type="line" smooth="yes"/>
      <point x="296" y="263"/>
      <point x="317" y="187"/>
      <point x="418" y="187" type="curve" smooth="yes"/>
      <point x="490" y="187"/>
      <point x="515" y="218"/>
      <point x="522" y="245" type="curve"/>
      <point x="422" y="245" type="line"/>
      <point x="422" y="407" type="line"/>
      <point x="779" y="407" type="line"/>
      <point x="779" y="307" type="line" smooth="yes"/>
      <point x="779" y="137"/>
      <point x="665" y="-14"/>
    </contour>
    <contour>
      <point x="199" y="753" type="line"/>
      <point x="316" y="908" type="line"/>
      <point x="505" y="908" type="line"/>
      <point x="616" y="753" type="line"/>
      <point x="451" y="753" type="line"/>
      <point x="406" y="797" type="line"/>
      <point x="361" y="753" type="line"/>
    </contour>
  </outline>
</glyph>
<glyph name="Gbreve" format="2">
  <advance width="797"/>
  <unicode hex="011E"/>
  <outline>
    <contour>
      <point x="408" y="-14" type="curve" smooth="yes"/>
      <point x="154" y="-14"/>
      <point x="19" y="136"/>
      <point x="19" y="353" type="curve" smooth="yes"/>
      <point x="19" y="361" type="line" smooth="yes"/>
      <point x="19" y="583"/>
      <point x="189" y="726"/>
      <point x="408" y="726" type="curve" smooth="yes"/>
      <point x="591" y="726"/>
      <point x="754" y="644"/>
      <point x="763" y="444" type="curve"/>
      <point x="500" y="444" type="line"/>
      <point x="496" y="487"/>
      <point x="470" y="517"/>
      <point x="409" y="517" type="curve" smooth="yes"/>
      <point x="341" y="517"/>
      <point x="296" y="461"/>
      <point x="296" y="356" type="curve" smooth="yes"/>
      <point x="296" y="348" type="line" smooth="yes"/>
      <point x="296" y="263"/>
      <point x="317" y="187"/>
      <point x="418" y="187" type="curve" smooth="yes"/>
      <point x="490" y="187"/>
      <point x="515" y="218"/>
      <point x="522" y="245" type="curve"/>
      <point x="422" y="245" type="line"/>
      <point x="422" y="407" type="line"/>
      <point x="779" y="407" type="line"/>
      <point x="779" y="307" type="line" smooth="yes"/>
      <point x="779" y="137"/>
      <point x="665" y="-14"/>
    </contour>
    <contour>
      <point x="408" y="744" type="curve" smooth="yes"/>
      <point x="296" y="744"/>
      <point x="233" y="803"/>
      <point x="226" y="908" type="curve"/>
      <point x="367" y="908" type="line"/>
      <point x="368" y="886"/>
      <point x="384" y="872"/>
      <point x="408" y="872" type="curve" smooth="yes"/>
      <point x="430" y="872"/>
      <point x="447" y="887"/>
      <point x="449" y="908" type="curve"/>
      <point x="590" y="908" type="line"/>
      <point x="581" y="803"/>
      <point x="515" y="744"/>
    </contour>
  </outline>
</glyph>
<glyph name="gbreve" format="2">
  <advance width="650"/>
  <unicode hex="011F"/>
  <outline>
    <contour>
      <point x="302" y="-195" type="curve" smooth="yes"/>
      <point x="113" y="-195"/>
      <point x="23" y="-123"/>
      <point x="10" y="12" type="curve"/>
      <point x="236" y="12" type="line"/>
      <point x="241" y="-11"/>
      <point x="251" y="-41"/>
      <point x="303" y="-41" type="curve" smooth="yes"/>
      <point x="370" y="-41"/>
      <point x="384" y="2"/>
      <point x="384" y="43" type="curve" smooth="yes"/>
      <point x="384" y="125" type="line"/>
      <point x="360" y="76"/>
      <point x="309" y="39"/>
      <point x="230" y="39" type="curve" smooth="yes"/>
      <point x="116" y="39"/>
      <point x="17" y="120"/>
      <point x="17" y="283" type="curve" smooth="yes"/>
      <point x="17" y="291" type="line" smooth="yes"/>
      <point x="17" y="452"/>
      <point x="115" y="539"/>
      <point x="228" y="539" type="curve" smooth="yes"/>
      <point x="308" y="539"/>
      <point x="355" y="508"/>
      <point x="384" y="454" type="curve"/>
      <point x="384" y="523" type="line"/>
      <point x="613" y="523" type="line"/>
      <point x="613" y="48" type="line" smooth="yes"/>
      <point x="613" y="-110"/>
      <point x="510" y="-195"/>
    </contour>
    <contour>
      <point x="321" y="195" type="curve" smooth="yes"/>
      <point x="369" y="195"/>
      <point x="390" y="230"/>
      <point x="390" y="281" type="curve" smooth="yes"/>
      <point x="390" y="289" type="line" smooth="yes"/>
      <point x="390" y="337"/>
      <point x="367" y="372"/>
      <point x="320" y="372" type="curve" smooth="yes"/>
      <point x="272" y="372"/>
      <point x="249" y="341"/>
      <point x="249" y="288" type="curve" smooth="yes"/>
      <point x="249" y="280" type="line" smooth="yes"/>
      <point x="249" y="230"/>
      <point x="270" y="195"/>
    </contour>
    <contour>
      <point x="311" y="570" type="curve" smooth="yes"/>
      <point x="203" y="570"/>
      <point x="137" y="628"/>
      <point x="132" y="742" type="curve"/>
      <point x="266" y="742" type="line"/>
      <point x="267" y="717"/>
      <point x="283" y="702"/>
      <point x="311" y="702" type="curve" smooth="yes"/>
      <point x="337" y="702"/>
      <point x="355" y="718"/>
      <point x="356" y="742" type="curve"/>
      <point x="490" y="742" type="line"/>
      <point x="483" y="628"/>
      <point x="414" y="570"/>
    </contour>
  </outline>
</glyph>
<glyph name="gcommaaccent" format="2">
  <advance width="650"/>
  <unicode hex="0123"/>
  <outline>
    <contour>
      <point x="302" y="-195" type="curve" smooth="yes"/>
      <point x="113" y="-195"/>
      <point x="23" y="-123"/>
      <point x="10" y="12" type="curve"/>
      <point x="236" y="12" type="line"/>
      <point x="241" y="-11"/>
      <point x="251" y="-41"/>
      <point x="303" y="-41" type="curve" smooth="yes"/>
      <point x="370" y="-41"/>
      <point x="384" y="2"/>
      <point x="384" y="43" type="curve" smooth="yes"/>
      <point x="384" y="125" type="line"/>
      <point x="360" y="76"/>
      <point x="309" y="39"/>
      <point x="230" y="39" type="curve" smooth="yes"/>
      <point x="116" y="39"/>
      <point x="17" y="120"/>
      <point x="17" y="283" type="curve" smooth="yes"/>
      <point x="17" y="291" type="line" smooth="yes"/>
      <point x="17" y="452"/>
      <point x="115" y="539"/>
      <point x="228" y="539" type="curve" smooth="yes"/>
      <point x="308" y="539"/>
      <point x="355" y="508"/>
      <point x="384" y="454" type="curve"/>
      <point x="384" y="523" type="line"/>
      <point x="613" y="523" type="line"/>
      <point x="613" y="48" type="line" smooth="yes"/>
      <point x="613" y="-110"/>
      <point x="510" y="-195"/>
    </contour>
    <contour>
      <point x="321" y="195" type="curve" smooth="yes"/>
      <point x="369" y="195"/>
      <point x="390" y="230"/>
      <point x="390" y="281" type="curve" smooth="yes"/>
      <point x="390" y="289" type="line" smooth="yes"/>
      <point x="390" y="337"/>
      <point x="367" y="372"/>
      <point x="320" y="372" type="curve" smooth="yes"/>
      <point x="272" y="372"/>
      <point x="249" y="341"/>
      <point x="249" y="288" type="curve" smooth="yes"/>
      <point x="249" y="280" type="line" smooth="yes"/>
      <point x="249" y="230"/>
      <point x="270" y="195"/>
    </contour>
    <contour>
      <point x="420" y="562" type="line"/>
      <point x="223" y="562" type="line"/>
      <point x="327" y="762" type="line"/>
      <point x="453" y="735" type="line"/>
    </contour>
  </outline>
</glyph>
<glyph name="Hcircumflex" format="2">
  <advance width="812"/>
  <unicode hex="0124"/>
  <outline>
    <contour>
      <point x="58" y="0" type="line"/>
      <point x="58" y="715" type="line"/>
      <point x="325" y="715" type="line"/>
      <point x="325" y="468" type="line"/>
      <point x="488" y="468" type="line"/>
      <point x="488" y="715" type="line"/>
      <point x="754" y="715" type="line"/>
      <point x="754" y="0" type="line"/>
      <point x="488" y="0" type="line"/>
      <point x="488" y="263" type="line"/>
      <point x="325" y="263" type="line"/>
      <point x="325" y="0" type="line"/>
    </contour>
    <contour>
      <point x="197" y="753" type="line"/>
      <point x="314" y="908" type="line"/>
      <point x="503" y="908" type="line"/>
      <point x="614" y="753" type="line"/>
      <point x="449" y="753" type="line"/>
      <point x="404" y="797" type="line"/>
      <point x="359" y="753" type="line"/>
    </contour>
  </outline>
</glyph>
<glyph name="hcircumflex" format="2">
  <advance width="638"/>
  <unicode hex="0125"/>
  <outline>
    <contour>
      <point x="37" y="0" type="line"/>
      <point x="37" y="743" type="line"/>
      <point x="266" y="743" type="line"/>
      <point x="266" y="439" type="line"/>
      <point x="296" y="495"/>
      <point x="352" y="539"/>
      <point x="440" y="539" type="curve" smooth="yes"/>
      <point x="537" y="539"/>
      <point x="604" y="474"/>
      <point x="604" y="350" type="curve" smooth="yes"/>
      <point x="604" y="0" type="line"/>
      <point x="375" y="0" type="line"/>
      <point x="375" y="292" type="line" smooth="yes"/>
      <point x="375" y="334"/>
      <point x="361" y="357"/>
      <point x="325" y="357" type="curve" smooth="yes"/>
      <point x="284" y="357"/>
      <point x="266" y="334"/>
      <point x="266" y="281" type="curve" smooth="yes"/>
      <point x="266" y="0" type="line"/>
    </contour>
    <contour>
      <point x="115" y="771" type="line"/>
      <point x="245" y="943" type="line"/>
      <point x="400" y="943" type="line"/>
      <point x="524" y="771" type="line"/>
      <point x="366" y="771" type="line"/>
      <point x="318" y="817" type="line"/>
      <point x="270" y="771" type="line"/>
    </contour>
  </outline>
</glyph>
<glyph name="Hbar" format="2">
  <advance width="812"/>
  <unicode hex="0126"/>
  <outline>
    <contour>
      <point x="3" y="535" type="line"/>
      <point x="3" y="646" type="line"/>
      <point x="58" y="646" type="line"/>
      <point x="58" y="715" type="line"/>
      <point x="325" y="715" type="line"/>
      <point x="325" y="646" type="line"/>
      <point x="488" y="646" type="line"/>
      <point x="488" y="715" type="line"/>
      <point x="754" y="715" type="line"/>
      <point x="754" y="646" type="line"/>
      <point x="809" y="646" type="line"/>
      <point x="809" y="535" type="line"/>
      <point x="754" y="535" type="line"/>
      <point x="754" y="0" type="line"/>
      <point x="488" y="0" type="line"/>
      <point x="488" y="263" type="line"/>
      <point x="325" y="263" type="line"/>
      <point x="325" y="0" type="line"/>
      <point x="58" y="0" type="line"/>
      <point x="58" y="535" type="line"/>
    </contour>
    <contour>
      <point x="325" y="468" type="line"/>
      <point x="488" y="468" type="line"/>
      <point x="488" y="535" type="line"/>
      <point x="325" y="535" type="line"/>
    </contour>
  </outline>
</glyph>
<glyph name="Itilde" format="2">
  <advance width="391"/>
  <unicode hex="0128"/>
  <outline>
    <contour>
      <point x="61" y="0" type="line"/>
      <point x="61" y="715" type="line"/>
      <point x="330" y="715" type="line"/>
      <point x="330" y="0" type="line"/>
    </contour>
    <contour>
      <point x="265" y="750" type="curve" smooth="yes"/>
      <point x="202" y="750"/>
      <point x="171" y="779"/>
      <point x="140" y="779" type="curve" smooth="yes"/>
      <point x="125" y="779"/>
      <point x="115" y="768"/>
      <point x="113" y="753" type="curve"/>
      <point x="-10" y="753" type="line"/>
      <point x="-4" y="875"/>
      <point x="55" y="925"/>
      <point x="123" y="925" type="curve" smooth="yes"/>
      <point x="182" y="925"/>
      <point x="216" y="896"/>
      <point x="251" y="896" type="curve" smooth="yes"/>
      <point x="268" y="896"/>
      <point x="275" y="906"/>
      <point x="278" y="922" type="curve"/>
      <point x="401" y="922" type="line"/>
      <point x="394" y="800"/>
      <point x="330" y="750"/>
    </contour>
  </outline>
</glyph>
<glyph name="itilde" format="2">
  <advance width="316"/>
  <unicode hex="0129"/>
  <outline>
    <contour>
      <point x="44" y="0" type="line"/>
      <point x="44" y="523" type="line"/>
      <point x="272" y="523" type="line"/>
      <point x="272" y="0" type="line"/>
    </contour>
    <contour>
      <point x="227" y="570" type="curve" smooth="yes"/>
      <point x="164" y="570"/>
      <point x="137" y="599"/>
      <point x="106" y="599" type="curve" smooth="yes"/>
      <point x="91" y="599"/>
      <point x="81" y="588"/>
      <point x="79" y="573" type="curve"/>
      <point x="-37" y="573" type="line"/>
      <point x="-31" y="695"/>
      <point x="18" y="749"/>
      <point x="86" y="749" type="curve" smooth="yes"/>
      <point x="145" y="749"/>
      <point x="176" y="720"/>
      <point x="211" y="720" type="curve" smooth="yes"/>
      <point x="228" y="720"/>
      <point x="235" y="730"/>
      <point x="238" y="746" type="curve"/>
      <point x="354" y="746" type="line"/>
      <point x="347" y="624"/>
      <point x="292" y="570"/>
    </contour>
  </outline>
</glyph>
<glyph name="imacron" format="2">
  <advance width="316"/>
  <unicode hex="012B"/>
  <outline>
    <contour>
      <point x="22" y="593" type="line"/>
      <point x="22" y="712" type="line"/>
      <point x="294" y="712" type="line"/>
      <point x="294" y="593" type="line"/>
    </contour>
    <contour>
      <point x="44" y="0" type="line"/>
      <point x="44" y="523" type="line"/>
      <point x="272" y="523" type="line"/>
      <point x="272" y="0" type="line"/>
    </contour>
  </outline>
</glyph>
<glyph name="Ibreve" format="2">
  <advance width="391"/>
  <unicode hex="012C"/>
  <outline>
    <contour>
      <point x="61" y="0" type="line"/>
      <point x="61" y="715" type="line"/>
      <point x="330" y="715" type="line"/>
      <point x="330" y="0" type="line"/>
    </contour>
    <contour>
      <point x="195" y="744" type="curve" smooth="yes"/>
      <point x="83" y="744"/>
      <point x="20" y="803"/>
      <point x="13" y="908" type="curve"/>
      <point x="154" y="908" type="line"/>
      <point x="155" y="886"/>
      <point x="171" y="872"/>
      <point x="195" y="872" type="curve" smooth="yes"/>
      <point x="217" y="872"/>
      <point x="234" y="887"/>
      <point x="236" y="908" type="curve"/>
      <point x="377" y="908" type="line"/>
      <point x="368" y="803"/>
      <point x="302" y="744"/>
    </contour>
  </outline>
</glyph>
<glyph name="ibreve" format="2">
  <advance width="316"/>
  <unicode hex="012D"/>
  <outline>
    <contour>
      <point x="44" y="0" type="line"/>
      <point x="44" y="523" type="line"/>
      <point x="272" y="523" type="line"/>
      <point x="272" y="0" type="line"/>
    </contour>
    <contour>
      <point x="158" y="570" type="curve" smooth="yes"/>
      <point x="50" y="570"/>
      <point x="-16" y="628"/>
      <point x="-21" y="742" type="curve"/>
      <point x="113" y="742" type="line"/>
      <point x="114" y="717"/>
      <point x="130" y="702"/>
      <point x="158" y="702" type="curve" smooth="yes"/>
      <point x="184" y="702"/>
      <point x="202" y="718"/>
      <point x="203" y="742" type="curve"/>
      <point x="337" y="742" type="line"/>
      <point x="330" y="628"/>
      <point x="261" y="570"/>
    </contour>
  </outline>
</glyph>
<glyph name="Iogonek" format="2">
  <advance width="391"/>
  <unicode hex="012E"/>
  <outline>
    <contour>
      <point x="226" y="-182" type="curve" smooth="yes"/>
      <point x="142" y="-182"/>
      <point x="93" y="-149"/>
      <point x="93" y="-100" type="curve" smooth="yes"/>
      <point x="93" y="-49"/>
      <point x="141" y="-21"/>
      <point x="182" y="0" type="curve"/>
      <point x="61" y="0" type="line"/>
      <point x="61" y="715" type="line"/>
      <point x="330" y="715" type="line"/>
      <point x="330" y="16" type="line"/>
      <point x="305" y="-5"/>
      <point x="287" y="-27"/>
      <point x="287" y="-46" type="curve" smooth="yes"/>
      <point x="287" y="-59"/>
      <point x="296" y="-67"/>
      <point x="312" y="-67" type="curve" smooth="yes"/>
      <point x="321" y="-67"/>
      <point x="325" y="-66"/>
      <point x="330" y="-65" type="curve"/>
      <point x="330" y="-164" type="line"/>
      <point x="312" y="-173"/>
      <point x="276" y="-182"/>
    </contour>
  </outline>
</glyph>
<glyph name="iogonek" format="2">
  <advance width="316"/>
  <unicode hex="012F"/>
  <outline>
    <contour>
      <point x="172" y="-182" type="curve" smooth="yes"/>
      <point x="96" y="-182"/>
      <point x="49" y="-151"/>
      <point x="49" y="-100" type="curve" smooth="yes"/>
      <point x="49" y="-46"/>
      <point x="96" y="-20"/>
      <point x="139" y="0" type="curve"/>
      <point x="44" y="0" type="line"/>
      <point x="44" y="523" type="line"/>
      <point x="272" y="523" type="line"/>
      <point x="272" y="12" type="line"/>
      <point x="238" y="-16"/>
      <point x="229" y="-34"/>
      <point x="229" y="-51" type="curve" smooth="yes"/>
      <point x="229" y="-67"/>
      <point x="240" y="-75"/>
      <point x="256" y="-75" type="curve" smooth="yes"/>
      <point x="265" y="-75"/>
      <point x="269" y="-74"/>
      <point x="274" y="-73" type="curve"/>
      <point x="274" y="-164" type="line"/>
      <point x="256" y="-173"/>
      <point x="228" y="-182"/>
    </contour>
    <contour>
      <point x="158" y="542" type="curve" smooth="yes"/>
      <point x="88" y="542"/>
      <point x="37" y="589"/>
      <point x="37" y="654" type="curve" smooth="yes"/>
      <point x="37" y="719"/>
      <point x="88" y="766"/>
      <point x="158" y="766" type="curve" smooth="yes"/>
      <point x="227" y="766"/>
      <point x="279" y="719"/>
      <point x="279" y="654" type="curve" smooth="yes"/>
      <point x="279" y="589"/>
      <point x="227" y="542"/>
    </contour>
  </outline>
</glyph>
<glyph name="Idotaccent" format="2">
  <advance width="391"/>
  <unicode hex="0130"/>
  <outline>
    <contour>
      <point x="61" y="0" type="line"/>
      <point x="61" y="715" type="line"/>
      <point x="330" y="715" type="line"/>
      <point x="330" y="0" type="line"/>
    </contour>
    <contour>
      <point x="196" y="742" type="curve" smooth="yes"/>
      <point x="129" y="742"/>
      <point x="80" y="787"/>
      <point x="80" y="849" type="curve" smooth="yes"/>
      <point x="80" y="911"/>
      <point x="129" y="956"/>
      <point x="196" y="956" type="curve" smooth="yes"/>
      <point x="262" y="956"/>
      <point x="311" y="911"/>
      <point x="311" y="849" type="curve" smooth="yes"/>
      <point x="311" y="787"/>
      <point x="262" y="742"/>
    </contour>
  </outline>
</glyph>
<glyph name="IJ" format="2">
  <advance width="879"/>
  <unicode hex="0132"/>
  <outline>
    <contour>
      <point x="61" y="0" type="line"/>
      <point x="61" y="715" type="line"/>
      <point x="330" y="715" type="line"/>
      <point x="330" y="0" type="line"/>
    </contour>
    <contour>
      <point x="547" y="-9" type="curve" smooth="yes"/>
      <point x="473" y="-9"/>
      <point x="435" y="1"/>
      <point x="401" y="18" type="curve"/>
      <point x="401" y="212" type="line"/>
      <point x="424" y="206"/>
      <point x="445" y="201"/>
      <point x="484" y="201" type="curve" smooth="yes"/>
      <point x="532" y="201"/>
      <point x="566" y="219"/>
      <point x="566" y="281" type="curve" smooth="yes"/>
      <point x="566" y="715" type="line"/>
      <point x="833" y="715" type="line"/>
      <point x="833" y="281" type="line" smooth="yes"/>
      <point x="833" y="94"/>
      <point x="746" y="-9"/>
    </contour>
  </outline>
</glyph>
<glyph name="ij" format="2">
  <advance width="632"/>
  <unicode hex="0133"/>
  <outline>
    <contour>
      <point x="44" y="0" type="line"/>
      <point x="44" y="523" type="line"/>
      <point x="272" y="523" type="line"/>
      <point x="272" y="0" type="line"/>
    </contour>
    <contour>
      <point x="158" y="542" type="curve" smooth="yes"/>
      <point x="88" y="542"/>
      <point x="37" y="589"/>
      <point x="37" y="654" type="curve" smooth="yes"/>
      <point x="37" y="719"/>
      <point x="88" y="766"/>
      <point x="158" y="766" type="curve" smooth="yes"/>
      <point x="227" y="766"/>
      <point x="279" y="719"/>
      <point x="279" y="654" type="curve" smooth="yes"/>
      <point x="279" y="589"/>
      <point x="227" y="542"/>
    </contour>
    <contour>
      <point x="302" y="-181" type="curve"/>
      <point x="302" y="-20" type="line"/>
      <point x="339" y="-18"/>
      <point x="359" y="-6"/>
      <point x="359" y="32" type="curve" smooth="yes"/>
      <point x="359" y="523" type="line"/>
      <point x="587" y="523" type="line"/>
      <point x="587" y="23" type="line" smooth="yes"/>
      <point x="587" y="-97"/>
      <point x="529" y="-182"/>
    </contour>
    <contour>
      <point x="474" y="542" type="curve" smooth="yes"/>
      <point x="404" y="542"/>
      <point x="353" y="589"/>
      <point x="353" y="654" type="curve" smooth="yes"/>
      <point x="353" y="719"/>
      <point x="404" y="766"/>
      <point x="474" y="766" type="curve" smooth="yes"/>
      <point x="543" y="766"/>
      <point x="595" y="719"/>
      <point x="595" y="654" type="curve" smooth="yes"/>
      <point x="595" y="589"/>
      <point x="543" y="542"/>
    </contour>
  </outline>
</glyph>
<glyph name="Jcircumflex" format="2">
  <advance width="508"/>
  <unicode hex="0134"/>
  <outline>
    <contour>
      <point x="176" y="-9" type="curve" smooth="yes"/>
      <point x="102" y="-9"/>
      <point x="64" y="1"/>
      <point x="30" y="18" type="curve"/>
      <point x="30" y="212" type="line"/>
      <point x="53" y="206"/>
      <point x="74" y="201"/>
      <point x="113" y="201" type="curve" smooth="yes"/>
      <point x="161" y="201"/>
      <point x="195" y="219"/>
      <point x="195" y="281" type="curve" smooth="yes"/>
      <point x="195" y="715" type="line"/>
      <point x="462" y="715" type="line"/>
      <point x="462" y="281" type="line" smooth="yes"/>
      <point x="462" y="94"/>
      <point x="375" y="-9"/>
    </contour>
    <contour>
      <point x="119" y="753" type="line"/>
      <point x="236" y="908" type="line"/>
      <point x="425" y="908" type="line"/>
      <point x="536" y="753" type="line"/>
      <point x="371" y="753" type="line"/>
      <point x="326" y="797" type="line"/>
      <point x="281" y="753" type="line"/>
    </contour>
  </outline>
</glyph>
<glyph name="jcircumflex" format="2">
  <advance width="316"/>
  <unicode hex="0135"/>
  <outline>
    <contour>
      <point x="-14" y="-181" type="curve"/>
      <point x="-14" y="-20" type="line"/>
      <point x="23" y="-18"/>
      <point x="43" y="-6"/>
      <point x="43" y="32" type="curve" smooth="yes"/>
      <point x="43" y="523" type="line"/>
      <point x="271" y="523" type="line"/>
      <point x="271" y="23" type="line" smooth="yes"/>
      <point x="271" y="-97"/>
      <point x="213" y="-182"/>
    </contour>
    <contour>
      <point x="-48" y="571" type="line"/>
      <point x="82" y="743" type="line"/>
      <point x="237" y="743" type="line"/>
      <point x="361" y="571" type="line"/>
      <point x="203" y="571" type="line"/>
      <point x="155" y="617" type="line"/>
      <point x="107" y="571" type="line"/>
    </contour>
  </outline>
</glyph>
<glyph name="Kcommaaccent" format="2">
  <advance width="782"/>
  <unicode hex="0136"/>
  <outline>
    <contour>
      <point x="58" y="0" type="line"/>
      <point x="58" y="715" type="line"/>
      <point x="325" y="715" type="line"/>
      <point x="325" y="471" type="line"/>
      <point x="491" y="715" type="line"/>
      <point x="765" y="715" type="line"/>
      <point x="532" y="390" type="line"/>
      <point x="778" y="0" type="line"/>
      <point x="473" y="0" type="line"/>
      <point x="325" y="257" type="line"/>
      <point x="325" y="0" type="line"/>
    </contour>
    <contour>
      <point x="393" y="-236" type="line"/>
      <point x="267" y="-209" type="line"/>
      <point x="300" y="-36" type="line"/>
      <point x="497" y="-36" type="line"/>
    </contour>
  </outline>
</glyph>
<glyph name="Lacute" format="2">
  <advance width="595"/>
  <unicode hex="0139"/>
  <outline>
    <contour>
      <point x="58" y="0" type="line"/>
      <point x="58" y="715" type="line"/>
      <point x="325" y="715" type="line"/>
      <point x="325" y="204" type="line"/>
      <point x="566" y="204" type="line"/>
      <point x="566" y="0" type="line"/>
    </contour>
    <contour>
      <point x="99" y="753" type="line"/>
      <point x="148" y="908" type="line"/>
      <point x="377" y="908" type="line"/>
      <point x="272" y="753" type="line"/>
    </contour>
  </outline>
</glyph>
<glyph name="lacute" format="2">
  <advance width="313"/>
  <unicode hex="013A"/>
  <outline>
    <contour>
      <point x="43" y="0" type="line"/>
      <point x="43" y="743" type="line"/>
      <point x="270" y="743" type="line"/>
      <point x="270" y="0" type="line"/>
    </contour>
    <contour>
      <point x="71" y="768" type="line"/>
      <point x="120" y="943" type="line"/>
      <point x="339" y="943" type="line"/>
      <point x="234" y="768" type="line"/>
    </contour>
  </outline>
</glyph>
<glyph name="lcommaaccent" format="2">
  <advance width="313"/>
  <unicode hex="013C"/>
  <outline>
    <contour>
      <point x="43" y="0" type="line"/>
      <point x="43" y="743" type="line"/>
      <point x="270" y="743" type="line"/>
      <point x="270" y="0" type="line"/>
    </contour>
    <contour>
      <point x="150" y="-236" type="line"/>
      <point x="24" y="-209" type="line"/>
      <point x="57" y="-36" type="line"/>
      <point x="254" y="-36" type="line"/>
    </contour>
  </outline>
</glyph>
<glyph name="Lcaron" format="2">
  <advance width="595"/>
  <unicode hex="013D"/>
  <outline>
    <contour>
      <point x="370" y="529" type="line"/>
      <point x="383" y="715" type="line"/>
      <point x="559" y="715" type="line"/>
      <point x="497" y="529" type="line"/>
    </contour>
    <contour>
      <point x="58" y="0" type="line"/>
      <point x="58" y="715" type="line"/>
      <point x="325" y="715" type="line"/>
      <point x="325" y="204" type="line"/>
      <point x="566" y="204" type="line"/>
      <point x="566" y="0" type="line"/>
    </contour>
  </outline>
</glyph>
<glyph name="lcaron" format="2">
  <advance width="313"/>
  <unicode hex="013E"/>
  <outline>
    <contour>
      <point x="43" y="0" type="line"/>
      <point x="43" y="743" type="line"/>
      <point x="270" y="743" type="line"/>
      <point x="270" y="0" type="line"/>
    </contour>
    <contour>
      <point x="301" y="569" type="line"/>
      <point x="308" y="743" type="line"/>
      <point x="461" y="743" type="line"/>
      <point x="411" y="569" type="line"/>
    </contour>
  </outline>
</glyph>
<glyph name="Ldot" format="2">
  <advance width="635"/>
  <unicode hex="013F"/>
  <outline>
    <contour>
      <point x="58" y="0" type="line"/>
      <point x="58" y="715" type="line"/>
      <point x="325" y="715" type="line"/>
      <point x="325" y="204" type="line"/>
      <point x="566" y="204" type="line"/>
      <point x="566" y="0" type="line"/>
    </contour>
    <contour>
      <point x="513" y="290" type="curve" smooth="yes"/>
      <point x="442" y="290"/>
      <point x="391" y="343"/>
      <point x="391" y="410" type="curve" smooth="yes"/>
      <point x="391" y="476"/>
      <point x="442" y="530"/>
      <point x="513" y="530" type="curve" smooth="yes"/>
      <point x="586" y="530"/>
      <point x="639" y="476"/>
      <point x="639" y="410" type="curve" smooth="yes"/>
      <point x="639" y="343"/>
      <point x="586" y="290"/>
    </contour>
  </outline>
</glyph>
<glyph name="ldot" format="2">
  <advance width="521"/>
  <unicode hex="0140"/>
  <outline>
    <contour>
      <point x="43" y="0" type="line"/>
      <point x="43" y="743" type="line"/>
      <point x="270" y="743" type="line"/>
      <point x="270" y="0" type="line"/>
    </contour>
    <contour>
      <point x="415" y="236" type="curve" smooth="yes"/>
      <point x="344" y="236"/>
      <point x="293" y="289"/>
      <point x="293" y="356" type="curve" smooth="yes"/>
      <point x="293" y="422"/>
      <point x="344" y="476"/>
      <point x="415" y="476" type="curve" smooth="yes"/>
      <point x="488" y="476"/>
      <point x="541" y="422"/>
      <point x="541" y="356" type="curve" smooth="yes"/>
      <point x="541" y="289"/>
      <point x="488" y="236"/>
    </contour>
  </outline>
</glyph>
<glyph name="Lslash" format="2">
  <advance width="613"/>
  <unicode hex="0141"/>
  <outline>
    <contour>
      <point x="16" y="217" type="line"/>
      <point x="16" y="346" type="line"/>
      <point x="76" y="366" type="line"/>
      <point x="76" y="715" type="line"/>
      <point x="343" y="715" type="line"/>
      <point x="343" y="457" type="line"/>
      <point x="513" y="515" type="line"/>
      <point x="513" y="385" type="line"/>
      <point x="343" y="327" type="line"/>
      <point x="343" y="204" type="line"/>
      <point x="584" y="204" type="line"/>
      <point x="584" y="0" type="line"/>
      <point x="76" y="0" type="line"/>
      <point x="76" y="237" type="line"/>
    </contour>
  </outline>
</glyph>
<glyph name="lslash" format="2">
  <advance width="363"/>
  <unicode hex="0142"/>
  <outline>
    <contour>
      <point x="15" y="235" type="line"/>
      <point x="15" y="374" type="line"/>
      <point x="68" y="398" type="line"/>
      <point x="68" y="743" type="line"/>
      <point x="295" y="743" type="line"/>
      <point x="295" y="500" type="line"/>
      <point x="351" y="525" type="line"/>
      <point x="351" y="386" type="line"/>
      <point x="295" y="361" type="line"/>
      <point x="295" y="0" type="line"/>
      <point x="68" y="0" type="line"/>
      <point x="68" y="259" type="line"/>
    </contour>
  </outline>
</glyph>
<glyph name="nacute" format="2">
  <advance width="638"/>
  <unicode hex="0144"/>
  <outline>
    <contour>
      <point x="37" y="0" type="line"/>
      <point x="37" y="523" type="line"/>
      <point x="266" y="523" type="line"/>
      <point x="266" y="439" type="line"/>
      <point x="296" y="495"/>
      <point x="352" y="539"/>
      <point x="440" y="539" type="curve" smooth="yes"/>
      <point x="537" y="539"/>
      <point x="604" y="474"/>
      <point x="604" y="350" type="curve" smooth="yes"/>
      <point x="604" y="0" type="line"/>
      <point x="375" y="0" type="line"/>
      <point x="375" y="292" type="line" smooth="yes"/>
      <point x="375" y="334"/>
      <point x="361" y="357"/>
      <point x="325" y="357" type="curve" smooth="yes"/>
      <point x="284" y="357"/>
      <point x="266" y="334"/>
      <point x="266" y="281" type="curve" smooth="yes"/>
      <point x="266" y="0" type="line"/>
    </contour>
    <contour>
      <point x="235" y="568" type="line"/>
      <point x="284" y="743" type="line"/>
      <point x="503" y="743" type="line"/>
      <point x="398" y="568" type="line"/>
    </contour>
  </outline>
</glyph>
<glyph name="Ncommaaccent" format="2">
  <advance width="805"/>
  <unicode hex="0145"/>
  <outline>
    <contour>
      <point x="58" y="0" type="line"/>
      <point x="58" y="715" type="line"/>
      <point x="355" y="715" type="line"/>
      <point x="510" y="383" type="line"/>
      <point x="510" y="715" type="line"/>
      <point x="746" y="715" type="line"/>
      <point x="746" y="0" type="line"/>
      <point x="493" y="0" type="line"/>
      <point x="295" y="390" type="line"/>
      <point x="295" y="0" type="line"/>
    </contour>
    <contour>
      <point x="396" y="-236" type="line"/>
      <point x="270" y="-209" type="line"/>
      <point x="303" y="-36" type="line"/>
      <point x="500" y="-36" type="line"/>
    </contour>
  </outline>
</glyph>
<glyph name="ncommaaccent" format="2">
  <advance width="638"/>
  <unicode hex="0146"/>
  <outline>
    <contour>
      <point x="37" y="0" type="line"/>
      <point x="37" y="523" type="line"/>
      <point x="266" y="523" type="line"/>
      <point x="266" y="439" type="line"/>
      <point x="296" y="495"/>
      <point x="352" y="539"/>
      <point x="440" y="539" type="curve" smooth="yes"/>
      <point x="537" y="539"/>
      <point x="604" y="474"/>
      <point x="604" y="350" type="curve" smooth="yes"/>
      <point x="604" y="0" type="line"/>
      <point x="375" y="0" type="line"/>
      <point x="375" y="292" type="line" smooth="yes"/>
      <point x="375" y="334"/>
      <point x="361" y="357"/>
      <point x="325" y="357" type="curve" smooth="yes"/>
      <point x="284" y="357"/>
      <point x="266" y="334"/>
      <point x="266" y="281" type="curve" smooth="yes"/>
      <point x="266" y="0" type="line"/>
    </contour>
    <contour>
      <point x="314" y="-236" type="line"/>
      <point x="188" y="-209" type="line"/>
      <point x="221" y="-36" type="line"/>
      <point x="418" y="-36" type="line"/>
    </contour>
  </outline>
</glyph>
<glyph name="Ncaron" format="2">
  <advance width="805"/>
  <unicode hex="0147"/>
  <outline>
    <contour>
      <point x="58" y="0" type="line"/>
      <point x="58" y="715" type="line"/>
      <point x="355" y="715" type="line"/>
      <point x="510" y="383" type="line"/>
      <point x="510" y="715" type="line"/>
      <point x="746" y="715" type="line"/>
      <point x="746" y="0" type="line"/>
      <point x="493" y="0" type="line"/>
      <point x="295" y="390" type="line"/>
      <point x="295" y="0" type="line"/>
    </contour>
    <contour>
      <point x="326" y="753" type="line"/>
      <point x="215" y="908" type="line"/>
      <point x="380" y="908" type="line"/>
      <point x="425" y="864" type="line"/>
      <point x="470" y="908" type="line"/>
      <point x="632" y="908" type="line"/>
      <point x="515" y="753" type="line"/>
    </contour>
  </outline>
</glyph>
<glyph name="napostrophe" format="2">
  <advance width="817"/>
  <unicode hex="0149"/>
  <outline>
    <contour>
      <point x="216" y="0" type="line"/>
      <point x="216" y="523" type="line"/>
      <point x="445" y="523" type="line"/>
      <point x="445" y="439" type="line"/>
      <point x="475" y="495"/>
      <point x="531" y="539"/>
      <point x="619" y="539" type="curve" smooth="yes"/>
      <point x="716" y="539"/>
      <point x="783" y="474"/>
      <point x="783" y="350" type="curve" smooth="yes"/>
      <point x="783" y="0" type="line"/>
      <point x="554" y="0" type="line"/>
      <point x="554" y="292" type="line" smooth="yes"/>
      <point x="554" y="334"/>
      <point x="540" y="357"/>
      <point x="504" y="357" type="curve" smooth="yes"/>
      <point x="463" y="357"/>
      <point x="445" y="334"/>
      <point x="445" y="281" type="curve" smooth="yes"/>
      <point x="445" y="0" type="line"/>
    </contour>
    <contour>
      <point x="101" y="397" type="line"/>
      <point x="-25" y="443" type="line"/>
      <point x="50" y="729" type="line"/>
      <point x="248" y="668" type="line"/>
    </contour>
  </outline>
</glyph>
